kMon99V7.ufo
<glyph name="quotedbl" format="2">
  <advance width="716"/>
  <unicode hex="0022"/>
  <outline>
    <contour>
      <point x="139" y="1447" type="line"/>
      <point x="139" y="904" type="line"/>
      <point x="277" y="904" type="line"/>
      <point x="277" y="1447" type="line"/>
    </contour>
    <contour>
      <point x="439" y="1447" type="line"/>
      <point x="439" y="904" type="line"/>
      <point x="577" y="904" type="line"/>
      <point x="577" y="1447" type="line"/>
    </contour>
  </outline>
</glyph>
<glyph name="numbersign" format="2">
  <advance width="1455"/>
  <unicode hex="0023"/>
  <outline>
    <contour>
      <point x="705" y="0" type="line"/>
      <point x="859" y="0" type="line"/>
      <point x="949" y="465" type="line"/>
      <point x="1286" y="465" type="line"/>
      <point x="1309" y="604" type="line"/>
      <point x="971" y="604" type="line"/>
      <point x="1020" y="866" type="line"/>
      <point x="1361" y="866" type="line"/>
      <point x="1384" y="1005" type="line"/>
      <point x="1042" y="1005" type="line"/>
      <point x="1125" y="1447" type="line"/>
      <point x="967" y="1447" type="line"/>
      <point x="889" y="1005" type="line"/>
      <point x="626" y="1005" type="line"/>
      <point x="705" y="1447" type="line"/>
      <point x="551" y="1447" type="line"/>
      <point x="472" y="1005" type="line"/>
      <point x="180" y="1005" type="line"/>
      <point x="154" y="866" type="line"/>
      <point x="446" y="866" type="line"/>
      <point x="397" y="604" type="line"/>
      <point x="105" y="604" type="line"/>
      <point x="79" y="465" type="line"/>
      <point x="371" y="465" type="line"/>
      <point x="289" y="0" type="line"/>
      <point x="446" y="0" type="line"/>
      <point x="529" y="465" type="line"/>
      <point x="791" y="465" type="line"/>
    </contour>
    <contour>
      <point x="817" y="604" type="line"/>
      <point x="551" y="604" type="line"/>
      <point x="604" y="866" type="line"/>
      <point x="866" y="866" type="line"/>
    </contour>
  </outline>
</glyph>
<glyph name="dollar" format="2">
  <advance width="1110"/>
  <unicode hex="0024"/>
  <outline>
    <contour>
      <point x="487" y="1519" type="line"/>
      <point x="487" y="1406" type="line"/>
      <point x="270" y="1406"/>
      <point x="94" y="1241"/>
      <point x="94" y="1046" type="curve" smooth="yes"/>
      <point x="94" y="795"/>
      <point x="240" y="705"/>
      <point x="487" y="630" type="curve"/>
      <point x="487" y="139" type="line"/>
      <point x="360" y="139"/>
      <point x="270" y="253"/>
      <point x="240" y="456" type="curve"/>
      <point x="64" y="456" type="line"/>
      <point x="86" y="171"/>
      <point x="277" y="-19"/>
      <point x="487" y="-19" type="curve"/>
      <point x="487" y="-139" type="line"/>
      <point x="585" y="-139" type="line"/>
      <point x="585" y="-19" type="line"/>
      <point x="787" y="-19"/>
      <point x="1027" y="60"/>
      <point x="1027" y="349" type="curve" smooth="yes"/>
      <point x="1027" y="604"/>
      <point x="844" y="705"/>
      <point x="585" y="780" type="curve"/>
      <point x="585" y="1245" type="line"/>
      <point x="720" y="1245"/>
      <point x="802" y="1136"/>
      <point x="825" y="1024" type="curve"/>
      <point x="1005" y="1024" type="line"/>
      <point x="971" y="1271"/>
      <point x="787" y="1406"/>
      <point x="585" y="1406" type="curve"/>
      <point x="585" y="1519" type="line"/>
    </contour>
    <contour>
      <point x="487" y="802" type="line"/>
      <point x="345" y="855"/>
      <point x="277" y="945"/>
      <point x="277" y="1050" type="curve" smooth="yes"/>
      <point x="277" y="1162"/>
      <point x="356" y="1245"/>
      <point x="487" y="1245" type="curve"/>
    </contour>
    <contour>
      <point x="585" y="600" type="line"/>
      <point x="780" y="529"/>
      <point x="844" y="461"/>
      <point x="844" y="349" type="curve" smooth="yes"/>
      <point x="844" y="229"/>
      <point x="731" y="139"/>
      <point x="585" y="139" type="curve"/>
    </contour>
  </outline>
</glyph>
<glyph name="parenright" format="2">
  <advance width="997"/>
  <unicode hex="0029"/>
  <outline>
    <contour>
      <point x="542" y="778" type="curve" smooth="yes"/>
      <point x="542" y="480"/>
      <point x="377" y="0"/>
      <point x="244" y="-112" type="curve"/>
      <point x="236" y="-120"/>
      <point x="231" y="-123"/>
      <point x="231" y="-138" type="curve" smooth="yes"/>
      <point x="231" y="-154"/>
      <point x="253" y="-165"/>
      <point x="288" y="-165" type="curve" smooth="yes"/>
      <point x="324" y="-165"/>
      <point x="372" y="-153"/>
      <point x="425" y="-124" type="curve" smooth="yes"/>
      <point x="549" y="-54"/>
      <point x="922" y="306"/>
      <point x="922" y="778" type="curve"/>
      <point x="922" y="1240"/>
      <point x="549" y="1528"/>
      <point x="424" y="1597" type="curve" smooth="yes"/>
      <point x="371" y="1626"/>
      <point x="322" y="1638"/>
      <point x="286" y="1638" type="curve" smooth="yes"/>
      <point x="252" y="1638"/>
      <point x="231" y="1628"/>
      <point x="231" y="1613" type="curve" smooth="yes"/>
      <point x="231" y="1598"/>
      <point x="236" y="1588"/>
      <point x="244" y="1581" type="curve" smooth="yes"/>
      <point x="377" y="1470"/>
      <point x="542" y="1075"/>
    </contour>
  </outline>
</glyph>
<glyph name="hyphen" format="2">
  <advance width="1125"/>
  <unicode hex="002D"/>
  <unicode hex="00AD"/>
  <outline>
    <contour>
      <point x="225" y="690" type="line"/>
      <point x="225" y="521" type="line"/>
      <point x="975" y="521" type="line"/>
      <point x="975" y="690" type="line"/>
    </contour>
  </outline>
</glyph>
<glyph name="period" format="2">
  <advance width="611"/>
  <unicode hex="002E"/>
  <outline>
    <contour>
      <point x="191" y="165" type="curve" smooth="yes"/>
      <point x="191" y="69"/>
      <point x="268" y="0"/>
      <point x="384" y="0" type="curve" smooth="yes"/>
      <point x="499" y="0"/>
      <point x="576" y="69"/>
      <point x="576" y="165" type="curve"/>
      <point x="576" y="257"/>
      <point x="499" y="326"/>
      <point x="384" y="326" type="curve"/>
      <point x="268" y="326"/>
      <point x="191" y="257"/>
    </contour>
  </outline>
</glyph>
<glyph name="two" format="2">
  <advance width="1110"/>
  <unicode hex="0032"/>
  <outline>
    <contour>
      <point x="292" y="956" type="line"/>
      <point x="292" y="1136"/>
      <point x="405" y="1249"/>
      <point x="585" y="1249" type="curve" smooth="yes"/>
      <point x="731" y="1249"/>
      <point x="832" y="1147"/>
      <point x="832" y="979" type="curve" smooth="yes"/>
      <point x="832" y="866"/>
      <point x="772" y="799"/>
      <point x="681" y="732" type="curve" smooth="yes"/>
      <point x="439" y="555"/>
      <point x="105" y="356"/>
      <point x="105" y="135" type="curve" smooth="yes"/>
      <point x="105" y="0" type="line"/>
      <point x="990" y="0" type="line"/>
      <point x="990" y="176" type="line"/>
      <point x="304" y="176" type="line"/>
      <point x="322" y="240"/>
      <point x="349" y="281"/>
      <point x="395" y="321" type="curve" smooth="yes"/>
      <point x="517" y="427"/>
      <point x="660" y="510"/>
      <point x="788" y="598" type="curve" smooth="yes"/>
      <point x="922" y="690"/>
      <point x="1031" y="791"/>
      <point x="1031" y="979" type="curve" smooth="yes"/>
      <point x="1031" y="1196"/>
      <point x="870" y="1406"/>
      <point x="585" y="1406" type="curve" smooth="yes"/>
      <point x="292" y="1406"/>
      <point x="120" y="1222"/>
      <point x="90" y="956" type="curve"/>
    </contour>
  </outline>
</glyph>
<glyph name="five" format="2">
  <advance width="1110"/>
  <unicode hex="0035"/>
  <outline>
    <contour>
      <point x="266" y="641" type="line"/>
      <point x="326" y="731"/>
      <point x="416" y="769"/>
      <point x="510" y="769" type="curve" smooth="yes"/>
      <point x="675" y="769"/>
      <point x="832" y="637"/>
      <point x="832" y="457" type="curve" smooth="yes"/>
      <point x="832" y="277"/>
      <point x="709" y="139"/>
      <point x="525" y="139" type="curve" smooth="yes"/>
      <point x="394" y="139"/>
      <point x="281" y="229"/>
      <point x="247" y="375" type="curve"/>
      <point x="49" y="375" type="line"/>
      <point x="94" y="116"/>
      <point x="285" y="-19"/>
      <point x="521" y="-19" type="curve" smooth="yes"/>
      <point x="866" y="-19"/>
      <point x="1031" y="210"/>
      <point x="1031" y="450" type="curve" smooth="yes"/>
      <point x="1031" y="716"/>
      <point x="832" y="926"/>
      <point x="559" y="926" type="curve" smooth="yes"/>
      <point x="469" y="926"/>
      <point x="364" y="900"/>
      <point x="292" y="840" type="curve"/>
      <point x="285" y="840" type="line"/>
      <point x="326" y="1230" type="line"/>
      <point x="949" y="1230" type="line"/>
      <point x="949" y="1387" type="line"/>
      <point x="187" y="1387" type="line"/>
      <point x="94" y="641" type="line"/>
    </contour>
  </outline>
</glyph>
<glyph name="seven" format="2">
  <advance width="1110"/>
  <unicode hex="0037"/>
  <outline>
    <contour>
      <point x="476" y="0" type="line"/>
      <point x="510" y="382"/>
      <point x="724" y="851"/>
      <point x="1035" y="1230" type="curve"/>
      <point x="1035" y="1387" type="line"/>
      <point x="71" y="1387" type="line"/>
      <point x="71" y="1230" type="line"/>
      <point x="847" y="1230" type="line"/>
      <point x="847" y="1222" type="line"/>
      <point x="536" y="862"/>
      <point x="337" y="461"/>
      <point x="277" y="0" type="curve"/>
    </contour>
  </outline>
</glyph>
<glyph name="eight" format="2">
  <advance width="1110"/>
  <unicode hex="0038"/>
  <outline>
    <contour>
      <point x="551" y="1406" type="curve" smooth="yes"/>
      <point x="270" y="1406"/>
      <point x="105" y="1252"/>
      <point x="105" y="1057" type="curve" smooth="yes"/>
      <point x="105" y="900"/>
      <point x="184" y="795"/>
      <point x="304" y="742" type="curve"/>
      <point x="135" y="694"/>
      <point x="71" y="532"/>
      <point x="71" y="390" type="curve" smooth="yes"/>
      <point x="71" y="176"/>
      <point x="259" y="-23"/>
      <point x="551" y="-23" type="curve" smooth="yes"/>
      <point x="844" y="-23"/>
      <point x="1031" y="180"/>
      <point x="1031" y="394" type="curve" smooth="yes"/>
      <point x="1031" y="536"/>
      <point x="967" y="694"/>
      <point x="799" y="742" type="curve"/>
      <point x="915" y="799"/>
      <point x="997" y="900"/>
      <point x="997" y="1057" type="curve" smooth="yes"/>
      <point x="997" y="1249"/>
      <point x="821" y="1406"/>
    </contour>
    <contour>
      <point x="551" y="1249" type="curve" smooth="yes"/>
      <point x="720" y="1249"/>
      <point x="799" y="1147"/>
      <point x="799" y="1039" type="curve" smooth="yes"/>
      <point x="799" y="926"/>
      <point x="712" y="817"/>
      <point x="551" y="817" type="curve" smooth="yes"/>
      <point x="390" y="817"/>
      <point x="304" y="926"/>
      <point x="304" y="1039" type="curve" smooth="yes"/>
      <point x="304" y="1147"/>
      <point x="382" y="1249"/>
    </contour>
    <contour>
      <point x="551" y="660" type="curve" smooth="yes"/>
      <point x="731" y="660"/>
      <point x="832" y="521"/>
      <point x="832" y="390" type="curve" smooth="yes"/>
      <point x="832" y="262"/>
      <point x="742" y="139"/>
      <point x="551" y="139" type="curve" smooth="yes"/>
      <point x="394" y="139"/>
      <point x="270" y="259"/>
      <point x="270" y="390" type="curve" smooth="yes"/>
      <point x="270" y="521"/>
      <point x="367" y="660"/>
    </contour>
  </outline>
</glyph>
<glyph name="nine" format="2">
  <advance width="1110"/>
  <unicode hex="0039"/>
  <outline>
    <contour>
      <point x="79" y="352" type="line"/>
      <point x="101" y="86"/>
      <point x="311" y="-19"/>
      <point x="532" y="-19" type="curve" smooth="yes"/>
      <point x="945" y="-19"/>
      <point x="1035" y="409"/>
      <point x="1035" y="761" type="curve" smooth="yes"/>
      <point x="1035" y="1174"/>
      <point x="844" y="1406"/>
      <point x="532" y="1406" type="curve" smooth="yes"/>
      <point x="221" y="1406"/>
      <point x="60" y="1177"/>
      <point x="60" y="907" type="curve" smooth="yes"/>
      <point x="60" y="641"/>
      <point x="311" y="457"/>
      <point x="532" y="457" type="curve" smooth="yes"/>
      <point x="634" y="457"/>
      <point x="754" y="491"/>
      <point x="844" y="611" type="curve"/>
      <point x="844" y="371"/>
      <point x="769" y="139"/>
      <point x="532" y="139" type="curve" smooth="yes"/>
      <point x="420" y="139"/>
      <point x="296" y="202"/>
      <point x="259" y="352" type="curve"/>
    </contour>
    <contour>
      <point x="532" y="615" type="curve" smooth="yes"/>
      <point x="379" y="615"/>
      <point x="259" y="757"/>
      <point x="259" y="934" type="curve" smooth="yes"/>
      <point x="259" y="1106"/>
      <point x="379" y="1249"/>
      <point x="532" y="1249" type="curve" smooth="yes"/>
      <point x="686" y="1249"/>
      <point x="817" y="1106"/>
      <point x="817" y="934" type="curve" smooth="yes"/>
      <point x="817" y="757"/>
      <point x="686" y="615"/>
    </contour>
  </outline>
</glyph>
<glyph name="semicolon" format="2">
  <advance width="570"/>
  <unicode hex="003B"/>
  <unicode hex="037E"/>
  <outline>
    <contour>
      <point x="300" y="994" type="curve" smooth="yes"/>
      <point x="232" y="994"/>
      <point x="180" y="941"/>
      <point x="180" y="874" type="curve" smooth="yes"/>
      <point x="180" y="810"/>
      <point x="232" y="757"/>
      <point x="300" y="757" type="curve" smooth="yes"/>
      <point x="364" y="757"/>
      <point x="416" y="810"/>
      <point x="416" y="874" type="curve" smooth="yes"/>
      <point x="416" y="941"/>
      <point x="364" y="994"/>
    </contour>
    <contour>
      <point x="139" y="-356" type="line"/>
      <point x="319" y="-341"/>
      <point x="476" y="-203"/>
      <point x="476" y="-8" type="curve" smooth="yes"/>
      <point x="476" y="120"/>
      <point x="390" y="221"/>
      <point x="285" y="221" type="curve" smooth="yes"/>
      <point x="202" y="221"/>
      <point x="139" y="161"/>
      <point x="139" y="90" type="curve" smooth="yes"/>
      <point x="139" y="19"/>
      <point x="187" y="-34"/>
      <point x="244" y="-34" type="curve" smooth="yes"/>
      <point x="300" y="-34"/>
      <point x="304" y="0"/>
      <point x="341" y="0" type="curve" smooth="yes"/>
      <point x="360" y="0"/>
      <point x="375" y="-26"/>
      <point x="375" y="-60" type="curve" smooth="yes"/>
      <point x="375" y="-165"/>
      <point x="270" y="-270"/>
      <point x="139" y="-304" type="curve"/>
    </contour>
  </outline>
</glyph>
<glyph name="equal" format="2">
  <advance width="1151"/>
  <unicode hex="003D"/>
  <outline>
    <contour>
      <point x="154" y="994" type="line"/>
      <point x="154" y="780" type="line"/>
      <point x="997" y="780" type="line"/>
      <point x="997" y="994" type="line"/>
    </contour>
    <contour>
      <point x="154" y="564" type="line"/>
      <point x="154" y="349" type="line"/>
      <point x="997" y="349" type="line"/>
      <point x="997" y="564" type="line"/>
    </contour>
  </outline>
</glyph>
<glyph name="question" format="2">
  <advance width="1916"/>
  <unicode hex="003F"/>
  <outline>
    <contour>
      <point x="799" y="1352" type="line"/>
      <point x="799" y="1421"/>
      <point x="829" y="1506"/>
      <point x="952" y="1506" type="curve"/>
      <point x="1091" y="1506"/>
      <point x="1140" y="1363"/>
      <point x="1140" y="1267" type="curve"/>
      <point x="1140" y="1159"/>
      <point x="1067" y="1071"/>
      <point x="982" y="967" type="curve"/>
      <point x="849" y="806"/>
      <point x="699" y="628"/>
      <point x="699" y="502" type="curve"/>
      <point x="699" y="429"/>
      <point x="718" y="381"/>
      <point x="744" y="319" type="curve"/>
      <point x="1147" y="319" type="line"/>
      <point x="1132" y="352"/>
      <point x="1102" y="418"/>
      <point x="1102" y="502" type="curve"/>
      <point x="1102" y="637"/>
      <point x="1202" y="722"/>
      <point x="1286" y="821" type="curve"/>
      <point x="1417" y="975"/>
      <point x="1564" y="1144"/>
      <point x="1564" y="1286" type="curve"/>
      <point x="1564" y="1447"/>
      <point x="1382" y="1697"/>
      <point x="952" y="1697" type="curve"/>
      <point x="517" y="1697"/>
      <point x="381" y="1466"/>
      <point x="381" y="1326" type="curve"/>
      <point x="381" y="1217"/>
      <point x="414" y="1125"/>
      <point x="510" y="1063" type="curve" smooth="yes"/>
      <point x="557" y="1033"/>
      <point x="637" y="1003"/>
      <point x="756" y="1003" type="curve"/>
      <point x="879" y="1003"/>
      <point x="1007" y="1056"/>
      <point x="1007" y="1155" type="curve" smooth="yes"/>
      <point x="1007" y="1228"/>
      <point x="922" y="1297"/>
      <point x="799" y="1297" type="curve"/>
    </contour>
    <contour>
      <point x="744" y="114" type="curve" smooth="yes"/>
      <point x="744" y="43"/>
      <point x="849" y="0"/>
      <point x="952" y="0" type="curve"/>
      <point x="1074" y="0"/>
      <point x="1155" y="43"/>
      <point x="1155" y="114" type="curve"/>
      <point x="1155" y="187"/>
      <point x="1074" y="227"/>
      <point x="952" y="227" type="curve"/>
      <point x="849" y="227"/>
      <point x="744" y="187"/>
    </contour>
  </outline>
</glyph>
<glyph name="at" format="2">
  <advance width="2014"/>
  <unicode hex="0040"/>
  <outline>
    <contour>
      <point x="1316" y="1121" type="line"/>
      <point x="1271" y="997" type="line"/>
      <point x="1252" y="1024"/>
      <point x="1185" y="1155"/>
      <point x="1042" y="1155" type="curve" smooth="yes"/>
      <point x="769" y="1155"/>
      <point x="577" y="855"/>
      <point x="577" y="596" type="curve" smooth="yes"/>
      <point x="577" y="439"/>
      <point x="690" y="277"/>
      <point x="877" y="277" type="curve" smooth="yes"/>
      <point x="982" y="277"/>
      <point x="1035" y="311"/>
      <point x="1117" y="401" type="curve"/>
      <point x="1144" y="304"/>
      <point x="1174" y="277"/>
      <point x="1249" y="277" type="curve" smooth="yes"/>
      <point x="1507" y="277"/>
      <point x="1736" y="480"/>
      <point x="1736" y="866" type="curve" smooth="yes"/>
      <point x="1736" y="1245"/>
      <point x="1425" y="1485"/>
      <point x="1069" y="1485" type="curve" smooth="yes"/>
      <point x="634" y="1485"/>
      <point x="277" y="1207"/>
      <point x="277" y="686" type="curve" smooth="yes"/>
      <point x="277" y="259"/>
      <point x="634" y="-41"/>
      <point x="1005" y="-41" type="curve" smooth="yes"/>
      <point x="1286" y="-41"/>
      <point x="1575" y="60"/>
      <point x="1676" y="319" type="curve"/>
      <point x="1541" y="319" type="line"/>
      <point x="1440" y="169"/>
      <point x="1275" y="86"/>
      <point x="1050" y="86" type="curve" smooth="yes"/>
      <point x="739" y="86"/>
      <point x="412" y="315"/>
      <point x="412" y="690" type="curve" smooth="yes"/>
      <point x="412" y="1087"/>
      <point x="690" y="1361"/>
      <point x="1069" y="1361" type="curve" smooth="yes"/>
      <point x="1357" y="1361"/>
      <point x="1601" y="1155"/>
      <point x="1601" y="844" type="curve" smooth="yes"/>
      <point x="1601" y="461"/>
      <point x="1380" y="405"/>
      <point x="1312" y="405" type="curve" smooth="yes"/>
      <point x="1284" y="405"/>
      <point x="1268" y="424"/>
      <point x="1268" y="460" type="curve" smooth="yes"/>
      <point x="1268" y="477"/>
      <point x="1272" y="497"/>
      <point x="1279" y="521" type="curve" smooth="yes"/>
      <point x="1451" y="1121" type="line"/>
    </contour>
    <contour>
      <point x="1162" y="626" type="line" smooth="yes"/>
      <point x="1114" y="480"/>
      <point x="1020" y="424"/>
      <point x="911" y="424" type="curve" smooth="yes"/>
      <point x="799" y="424"/>
      <point x="742" y="514"/>
      <point x="742" y="615" type="curve" smooth="yes"/>
      <point x="742" y="787"/>
      <point x="885" y="1009"/>
      <point x="1046" y="1009" type="curve" smooth="yes"/>
      <point x="1141" y="1009"/>
      <point x="1216" y="941"/>
      <point x="1216" y="831" type="curve" smooth="yes"/>
      <point x="1216" y="806"/>
      <point x="1212" y="779"/>
      <point x="1204" y="750" type="curve"/>
    </contour>
  </outline>
</glyph>
<glyph name="F" format="2">
  <advance width="1170"/>
  <unicode hex="0046"/>
  <outline>
    <contour>
      <point x="146" y="1440" type="line"/>
      <point x="146" y="0" type="line"/>
      <point x="345" y="0" type="line"/>
      <point x="345" y="652" type="line"/>
      <point x="1009" y="652" type="line"/>
      <point x="1009" y="829" type="line"/>
      <point x="345" y="829" type="line"/>
      <point x="345" y="1264" type="line"/>
      <point x="1110" y="1264" type="line"/>
      <point x="1110" y="1440" type="line"/>
    </contour>
  </outline>
</glyph>
<glyph name="G" format="2">
  <advance width="1534"/>
  <unicode hex="0047"/>
  <outline>
    <contour>
      <point x="1361" y="780" type="line"/>
      <point x="739" y="780" type="line"/>
      <point x="739" y="604" type="line"/>
      <point x="1177" y="604" type="line"/>
      <point x="1177" y="364"/>
      <point x="952" y="139"/>
      <point x="735" y="139" type="curve" smooth="yes"/>
      <point x="469" y="139"/>
      <point x="289" y="326"/>
      <point x="289" y="712" type="curve" smooth="yes"/>
      <point x="289" y="1046"/>
      <point x="427" y="1309"/>
      <point x="739" y="1309" type="curve" smooth="yes"/>
      <point x="990" y="1309"/>
      <point x="1117" y="1189"/>
      <point x="1177" y="1001" type="curve"/>
      <point x="1361" y="1001" type="line"/>
      <point x="1297" y="1264"/>
      <point x="1102" y="1485"/>
      <point x="739" y="1485" type="curve" smooth="yes"/>
      <point x="386" y="1485"/>
      <point x="79" y="1237"/>
      <point x="79" y="712" type="curve" smooth="yes"/>
      <point x="79" y="281"/>
      <point x="334" y="-41"/>
      <point x="739" y="-41" type="curve" smooth="yes"/>
      <point x="937" y="-41"/>
      <point x="1114" y="71"/>
      <point x="1177" y="191" type="curve"/>
      <point x="1234" y="0" type="line"/>
      <point x="1361" y="0" type="line"/>
    </contour>
  </outline>
</glyph>
<glyph name="L" format="2">
  <advance width="1091"/>
  <unicode hex="004C"/>
  <outline>
    <contour>
      <point x="146" y="1440" type="line"/>
      <point x="146" y="0" type="line"/>
      <point x="1046" y="0" type="line"/>
      <point x="1046" y="176" type="line"/>
      <point x="341" y="176" type="line"/>
      <point x="341" y="1440" type="line"/>
    </contour>
  </outline>
</glyph>
<glyph name="O" format="2">
  <advance width="1507"/>
  <unicode hex="004F"/>
  <outline>
    <contour>
      <point x="754" y="-41" type="curve" smooth="yes"/>
      <point x="1166" y="-41"/>
      <point x="1425" y="285"/>
      <point x="1425" y="731" type="curve" smooth="yes"/>
      <point x="1425" y="1177"/>
      <point x="1166" y="1485"/>
      <point x="754" y="1485" type="curve" smooth="yes"/>
      <point x="345" y="1485"/>
      <point x="82" y="1177"/>
      <point x="82" y="731" type="curve" smooth="yes"/>
      <point x="82" y="285"/>
      <point x="341" y="-41"/>
    </contour>
    <contour>
      <point x="754" y="139" type="curve" smooth="yes"/>
      <point x="461" y="139"/>
      <point x="292" y="334"/>
      <point x="292" y="731" type="curve" smooth="yes"/>
      <point x="292" y="1129"/>
      <point x="465" y="1309"/>
      <point x="754" y="1309" type="curve" smooth="yes"/>
      <point x="1046" y="1309"/>
      <point x="1215" y="1129"/>
      <point x="1215" y="731" type="curve" smooth="yes"/>
      <point x="1215" y="334"/>
      <point x="1050" y="139"/>
    </contour>
  </outline>
</glyph>
<glyph name="P" format="2">
  <advance width="1245"/>
  <unicode hex="0050"/>
  <outline>
    <contour>
      <point x="150" y="0" type="line"/>
      <point x="345" y="0" type="line"/>
      <point x="345" y="596" type="line"/>
      <point x="739" y="596" type="line" smooth="yes"/>
      <point x="997" y="596"/>
      <point x="1170" y="806"/>
      <point x="1170" y="1024" type="curve" smooth="yes"/>
      <point x="1170" y="1222"/>
      <point x="997" y="1440"/>
      <point x="739" y="1440" type="curve" smooth="yes"/>
      <point x="150" y="1440" type="line"/>
    </contour>
    <contour>
      <point x="345" y="1264" type="line"/>
      <point x="720" y="1264" type="line" smooth="yes"/>
      <point x="847" y="1264"/>
      <point x="956" y="1159"/>
      <point x="956" y="1024" type="curve" smooth="yes"/>
      <point x="956" y="881"/>
      <point x="836" y="772"/>
      <point x="720" y="772" type="curve" smooth="yes"/>
      <point x="345" y="772" type="line"/>
    </contour>
  </outline>
</glyph>
<glyph name="Q" format="2">
  <advance width="1526"/>
  <unicode hex="0051"/>
  <outline>
    <contour>
      <point x="750" y="-41" type="curve" smooth="yes"/>
      <point x="889" y="-41"/>
      <point x="1012" y="-4"/>
      <point x="1114" y="64" type="curve"/>
      <point x="1316" y="-139" type="line"/>
      <point x="1440" y="-15" type="line"/>
      <point x="1245" y="180" type="line"/>
      <point x="1361" y="319"/>
      <point x="1425" y="510"/>
      <point x="1425" y="731" type="curve" smooth="yes"/>
      <point x="1425" y="1177"/>
      <point x="1162" y="1485"/>
      <point x="754" y="1485" type="curve" smooth="yes"/>
      <point x="345" y="1485"/>
      <point x="82" y="1177"/>
      <point x="82" y="731" type="curve" smooth="yes"/>
      <point x="82" y="285"/>
      <point x="337" y="-41"/>
    </contour>
    <contour>
      <point x="836" y="345" type="line"/>
      <point x="986" y="191" type="line"/>
      <point x="919" y="157"/>
      <point x="844" y="139"/>
      <point x="754" y="139" type="curve" smooth="yes"/>
      <point x="457" y="139"/>
      <point x="292" y="334"/>
      <point x="292" y="731" type="curve" smooth="yes"/>
      <point x="292" y="1129"/>
      <point x="461" y="1309"/>
      <point x="754" y="1309" type="curve" smooth="yes"/>
      <point x="1042" y="1309"/>
      <point x="1215" y="1129"/>
      <point x="1215" y="731" type="curve" smooth="yes"/>
      <point x="1215" y="547"/>
      <point x="1181" y="409"/>
      <point x="1114" y="311" type="curve"/>
      <point x="956" y="469" type="line"/>
    </contour>
  </outline>
</glyph>
<glyph name="V" format="2">
  <advance width="1252"/>
  <unicode hex="0056"/>
  <outline>
    <contour>
      <point x="19" y="1440" type="line"/>
      <point x="517" y="0" type="line"/>
      <point x="735" y="0" type="line"/>
      <point x="1234" y="1440" type="line"/>
      <point x="1016" y="1440" type="line"/>
      <point x="626" y="251" type="line"/>
      <point x="622" y="251" type="line"/>
      <point x="236" y="1440" type="line"/>
    </contour>
  </outline>
</glyph>
<glyph name="W" format="2">
  <advance width="1796"/>
  <unicode hex="0057"/>
  <outline>
    <contour>
      <point x="19" y="1440" type="line"/>
      <point x="382" y="0" type="line"/>
      <point x="592" y="0" type="line"/>
      <point x="900" y="1177" type="line"/>
      <point x="1204" y="0" type="line"/>
      <point x="1414" y="0" type="line"/>
      <point x="1777" y="1440" type="line"/>
      <point x="1560" y="1440" type="line"/>
      <point x="1290" y="277" type="line"/>
      <point x="1001" y="1440" type="line"/>
      <point x="799" y="1440" type="line"/>
      <point x="506" y="277" type="line"/>
      <point x="240" y="1440" type="line"/>
    </contour>
  </outline>
</glyph>
<glyph name="X" format="2">
  <advance width="1219"/>
  <unicode hex="0058"/>
  <outline>
    <contour>
      <point x="60" y="1440" type="line"/>
      <point x="506" y="735" type="line"/>
      <point x="19" y="0" type="line"/>
      <point x="259" y="0" type="line"/>
      <point x="611" y="581" type="line"/>
      <point x="960" y="0" type="line"/>
      <point x="1200" y="0" type="line"/>
      <point x="712" y="735" type="line"/>
      <point x="1162" y="1440" type="line"/>
      <point x="941" y="1440" type="line"/>
      <point x="611" y="889" type="line"/>
      <point x="277" y="1440" type="line"/>
    </contour>
  </outline>
</glyph>
<glyph name="bracketleft" format="2">
  <advance width="645"/>
  <unicode hex="005B"/>
  <outline>
    <contour>
      <point x="150" y="-400" type="line"/>
      <point x="620" y="-400" type="line"/>
      <point x="620" y="-280" type="line"/>
      <point x="350" y="-280" type="line"/>
      <point x="350" y="1720" type="line"/>
      <point x="620" y="1720" type="line"/>
      <point x="620" y="1840" type="line"/>
      <point x="150" y="1840" type="line"/>
    </contour>
  </outline>
</glyph>
<glyph name="backslash" format="2">
  <advance width="581"/>
  <unicode hex="005C"/>
  <outline>
    <contour>
      <point x="581" y="-34" type="line"/>
      <point x="97" y="1474" type="line"/>
      <point x="-4" y="1474" type="line"/>
      <point x="480" y="-34" type="line"/>
    </contour>
  </outline>
</glyph>
<glyph name="grave" format="2">
  <advance width="356"/>
  <unicode hex="0060"/>
  <outline>
    <contour>
      <point x="266" y="971" type="line"/>
      <point x="266" y="1189" type="line"/>
      <point x="172" y="1189" type="line"/>
      <point x="172" y="1230" type="line" smooth="yes"/>
      <point x="172" y="1316"/>
      <point x="187" y="1369"/>
      <point x="266" y="1395" type="curve"/>
      <point x="266" y="1489" type="line"/>
      <point x="146" y="1462"/>
      <point x="71" y="1369"/>
      <point x="71" y="1230" type="curve" smooth="yes"/>
      <point x="71" y="971" type="line"/>
    </contour>
  </outline>
</glyph>
<glyph name="d" format="2">
  <advance width="1106"/>
  <unicode hex="0064"/>
  <outline>
    <contour>
      <point x="806" y="0" type="line"/>
      <point x="979" y="0" type="line"/>
      <point x="979" y="1447" type="line"/>
      <point x="806" y="1447" type="line"/>
      <point x="806" y="896" type="line"/>
      <point x="742" y="982"/>
      <point x="652" y="1057"/>
      <point x="502" y="1057" type="curve" smooth="yes"/>
      <point x="247" y="1057"/>
      <point x="71" y="840"/>
      <point x="71" y="529" type="curve" smooth="yes"/>
      <point x="71" y="229"/>
      <point x="225" y="-19"/>
      <point x="491" y="-19" type="curve" smooth="yes"/>
      <point x="619" y="-19"/>
      <point x="731" y="22"/>
      <point x="802" y="139" type="curve"/>
      <point x="806" y="139" type="line"/>
    </contour>
    <contour>
      <point x="540" y="904" type="curve" smooth="yes"/>
      <point x="697" y="904"/>
      <point x="806" y="754"/>
      <point x="806" y="529" type="curve" smooth="yes"/>
      <point x="806" y="326"/>
      <point x="750" y="131"/>
      <point x="540" y="131" type="curve" smooth="yes"/>
      <point x="364" y="131"/>
      <point x="255" y="315"/>
      <point x="255" y="529" type="curve" smooth="yes"/>
      <point x="255" y="720"/>
      <point x="360" y="904"/>
    </contour>
  </outline>
</glyph>
<glyph name="r" format="2">
  <advance width="634"/>
  <unicode hex="0072"/>
  <outline>
    <contour>
      <point x="127" y="0" type="line"/>
      <point x="304" y="0" type="line"/>
      <point x="304" y="649" type="line" smooth="yes"/>
      <point x="304" y="784"/>
      <point x="394" y="881"/>
      <point x="547" y="881" type="curve" smooth="yes"/>
      <point x="574" y="881"/>
      <point x="589" y="877"/>
      <point x="626" y="870" type="curve"/>
      <point x="626" y="1039" type="line"/>
      <point x="604" y="1054"/>
      <point x="577" y="1057"/>
      <point x="547" y="1057" type="curve" smooth="yes"/>
      <point x="424" y="1057"/>
      <point x="360" y="1001"/>
      <point x="304" y="904" type="curve"/>
      <point x="304" y="1039" type="line"/>
      <point x="127" y="1039" type="line"/>
    </contour>
  </outline>
</glyph>
<glyph name="x" format="2">
  <advance width="986"/>
  <unicode hex="0078"/>
  <outline>
    <contour>
      <point x="41" y="1039" type="line"/>
      <point x="386" y="536" type="line"/>
      <point x="19" y="0" type="line"/>
      <point x="240" y="0" type="line"/>
      <point x="491" y="401" type="line"/>
      <point x="746" y="0" type="line"/>
      <point x="967" y="0" type="line"/>
      <point x="600" y="536" type="line"/>
      <point x="956" y="1039" type="line"/>
      <point x="742" y="1039" type="line"/>
      <point x="491" y="652" type="line"/>
      <point x="255" y="1039" type="line"/>
    </contour>
  </outline>
</glyph>
<glyph name="y" format="2">
  <advance width="979"/>
  <unicode hex="0079"/>
  <outline>
    <contour>
      <point x="19" y="1039" type="line"/>
      <point x="401" y="0" type="line"/>
      <point x="360" y="-139" type="line" smooth="yes"/>
      <point x="345" y="-188"/>
      <point x="311" y="-289"/>
      <point x="240" y="-289" type="curve" smooth="yes"/>
      <point x="199" y="-289"/>
      <point x="172" y="-289"/>
      <point x="139" y="-270" type="curve"/>
      <point x="139" y="-420" type="line"/>
      <point x="176" y="-435"/>
      <point x="221" y="-443"/>
      <point x="259" y="-443" type="curve" smooth="yes"/>
      <point x="341" y="-443"/>
      <point x="440" y="-384"/>
      <point x="502" y="-214" type="curve" smooth="yes"/>
      <point x="960" y="1039" type="line"/>
      <point x="765" y="1039" type="line"/>
      <point x="491" y="221" type="line"/>
      <point x="487" y="221" type="line"/>
      <point x="217" y="1039" type="line"/>
    </contour>
  </outline>
</glyph>
<glyph name="braceleft" format="2">
  <advance width="675"/>
  <unicode hex="007B"/>
  <outline>
    <contour>
      <point x="79" y="644" type="line"/>
      <point x="139" y="644" type="line" smooth="yes"/>
      <point x="244" y="644"/>
      <point x="262" y="543"/>
      <point x="262" y="450" type="curve" smooth="yes"/>
      <point x="262" y="-38" type="line" smooth="yes"/>
      <point x="262" y="-179"/>
      <point x="379" y="-283"/>
      <point x="495" y="-283" type="curve" smooth="yes"/>
      <point x="604" y="-283" type="line"/>
      <point x="604" y="-135" type="line"/>
      <point x="577" y="-135" type="line" smooth="yes"/>
      <point x="495" y="-135"/>
      <point x="424" y="-86"/>
      <point x="424" y="-1" type="curve" smooth="yes"/>
      <point x="424" y="531" type="line" smooth="yes"/>
      <point x="424" y="644"/>
      <point x="345" y="692"/>
      <point x="244" y="717" type="curve"/>
      <point x="352" y="736"/>
      <point x="424" y="793"/>
      <point x="424" y="902" type="curve" smooth="yes"/>
      <point x="424" y="1446" type="line" smooth="yes"/>
      <point x="424" y="1519"/>
      <point x="495" y="1575"/>
      <point x="577" y="1575" type="curve" smooth="yes"/>
      <point x="604" y="1575" type="line"/>
      <point x="604" y="1724" type="line"/>
      <point x="495" y="1724" type="line" smooth="yes"/>
      <point x="379" y="1724"/>
      <point x="262" y="1636"/>
      <point x="262" y="1486" type="curve" smooth="yes"/>
      <point x="262" y="987" type="line" smooth="yes"/>
      <point x="262" y="906"/>
      <point x="244" y="793"/>
      <point x="139" y="793" type="curve" smooth="yes"/>
      <point x="79" y="793" type="line"/>
    </contour>
  </outline>
  <guideline angle="0" x="0" y="1580"/>
  <guideline angle="90" x="604" y="0"/>
</glyph>
<glyph name="sterling" format="2">
  <advance width="1091"/>
  <unicode hex="00A3"/>
  <outline>
    <contour>
      <point x="390" y="780" type="line"/>
      <point x="322" y="907"/>
      <point x="304" y="975"/>
      <point x="304" y="1057" type="curve" smooth="yes"/>
      <point x="304" y="1196"/>
      <point x="394" y="1309"/>
      <point x="581" y="1309" type="curve" smooth="yes"/>
      <point x="754" y="1309"/>
      <point x="832" y="1189"/>
      <point x="855" y="1039" type="curve"/>
      <point x="1050" y="1039" type="line"/>
      <point x="1016" y="1286"/>
      <point x="855" y="1485"/>
      <point x="585" y="1485" type="curve" smooth="yes"/>
      <point x="304" y="1485"/>
      <point x="90" y="1335"/>
      <point x="90" y="1099" type="curve" smooth="yes"/>
      <point x="90" y="952"/>
      <point x="139" y="859"/>
      <point x="180" y="780" type="curve"/>
      <point x="34" y="780" type="line"/>
      <point x="34" y="626" type="line"/>
      <point x="266" y="626" type="line"/>
      <point x="281" y="589"/>
      <point x="304" y="521"/>
      <point x="304" y="480" type="curve" smooth="yes"/>
      <point x="304" y="401"/>
      <point x="259" y="251"/>
      <point x="41" y="109" type="curve"/>
      <point x="142" y="-41" type="line"/>
      <point x="217" y="7"/>
      <point x="311" y="49"/>
      <point x="390" y="49" type="curve" smooth="yes"/>
      <point x="544" y="49"/>
      <point x="667" y="-41"/>
      <point x="791" y="-41" type="curve" smooth="yes"/>
      <point x="892" y="-41"/>
      <point x="967" y="-4"/>
      <point x="1054" y="64" type="curve"/>
      <point x="967" y="202" type="line"/>
      <point x="937" y="169"/>
      <point x="866" y="135"/>
      <point x="806" y="135" type="curve" smooth="yes"/>
      <point x="720" y="135"/>
      <point x="619" y="199"/>
      <point x="491" y="199" type="curve" smooth="yes"/>
      <point x="412" y="199"/>
      <point x="390" y="187"/>
      <point x="334" y="169" type="curve"/>
      <point x="334" y="172" type="line"/>
      <point x="424" y="240"/>
      <point x="495" y="315"/>
      <point x="495" y="480" type="curve" smooth="yes"/>
      <point x="495" y="525"/>
      <point x="476" y="596"/>
      <point x="457" y="626" type="curve"/>
      <point x="742" y="626" type="line"/>
      <point x="742" y="705" type="line"/>
      <point x="739" y="705" type="line"/>
      <point x="739" y="780" type="line"/>
    </contour>
  </outline>
</glyph>
<glyph name="yen" format="2">
  <advance width="1260"/>
  <unicode hex="00A5"/>
  <outline>
    <contour>
      <point x="150" y="442" type="line"/>
      <point x="150" y="315" type="line"/>
      <point x="521" y="315" type="line"/>
      <point x="521" y="0" type="line"/>
      <point x="716" y="0" type="line"/>
      <point x="716" y="315" type="line"/>
      <point x="1087" y="315" type="line"/>
      <point x="1087" y="442" type="line"/>
      <point x="716" y="442" type="line"/>
      <point x="716" y="581" type="line"/>
      <point x="727" y="600" type="line"/>
      <point x="1087" y="600" type="line"/>
      <point x="1087" y="727" type="line"/>
      <point x="806" y="727" type="line"/>
      <point x="1241" y="1447" type="line"/>
      <point x="1001" y="1447" type="line"/>
      <point x="622" y="742" type="line"/>
      <point x="619" y="742" type="line"/>
      <point x="240" y="1447" type="line"/>
      <point x="0" y="1447" type="line"/>
      <point x="435" y="727" type="line"/>
      <point x="150" y="727" type="line"/>
      <point x="150" y="600" type="line"/>
      <point x="514" y="600" type="line"/>
      <point x="521" y="581" type="line"/>
      <point x="521" y="442" type="line"/>
    </contour>
  </outline>
</glyph>
<glyph name="guillemotleft" format="2">
  <advance width="840"/>
  <unicode hex="00AB"/>
  <outline>
    <contour>
      <point x="701" y="161" type="line"/>
      <point x="701" y="304" type="line"/>
      <point x="487" y="480" type="line"/>
      <point x="701" y="664" type="line"/>
      <point x="701" y="802" type="line"/>
      <point x="371" y="521" type="line"/>
      <point x="371" y="442" type="line"/>
    </contour>
    <contour>
      <point x="450" y="161" type="line"/>
      <point x="450" y="304" type="line"/>
      <point x="236" y="480" type="line"/>
      <point x="450" y="664" type="line"/>
      <point x="450" y="802" type="line"/>
      <point x="120" y="521" type="line"/>
      <point x="120" y="442" type="line"/>
    </contour>
  </outline>
</glyph>
<glyph name="degree" format="2">
  <advance width="731"/>
  <unicode hex="00B0"/>
  <outline>
    <contour>
      <point x="367" y="930" type="curve" smooth="yes"/>
      <point x="517" y="930"/>
      <point x="645" y="1054"/>
      <point x="645" y="1207" type="curve" smooth="yes"/>
      <point x="645" y="1361"/>
      <point x="517" y="1485"/>
      <point x="367" y="1485" type="curve" smooth="yes"/>
      <point x="214" y="1485"/>
      <point x="86" y="1361"/>
      <point x="86" y="1207" type="curve" smooth="yes"/>
      <point x="86" y="1054"/>
      <point x="214" y="930"/>
    </contour>
    <contour>
      <point x="367" y="1387" type="curve" smooth="yes"/>
      <point x="461" y="1387"/>
      <point x="544" y="1305"/>
      <point x="544" y="1207" type="curve" smooth="yes"/>
      <point x="544" y="1110"/>
      <point x="461" y="1031"/>
      <point x="367" y="1031" type="curve" smooth="yes"/>
      <point x="270" y="1031"/>
      <point x="187" y="1110"/>
      <point x="187" y="1207" type="curve" smooth="yes"/>
      <point x="187" y="1305"/>
      <point x="270" y="1387"/>
    </contour>
  </outline>
</glyph>
<glyph name="twosuperior" format="2">
  <advance width="705"/>
  <unicode hex="00B2"/>
  <outline>
    <contour>
      <point x="176" y="1185" type="line"/>
      <point x="176" y="1294"/>
      <point x="236" y="1372"/>
      <point x="352" y="1372" type="curve" smooth="yes"/>
      <point x="450" y="1372"/>
      <point x="521" y="1342"/>
      <point x="521" y="1241" type="curve" smooth="yes"/>
      <point x="521" y="1174"/>
      <point x="469" y="1106"/>
      <point x="405" y="1075" type="curve" smooth="yes"/>
      <point x="176" y="964"/>
      <point x="45" y="881"/>
      <point x="19" y="649" type="curve"/>
      <point x="664" y="649" type="line"/>
      <point x="664" y="772" type="line"/>
      <point x="184" y="772" type="line"/>
      <point x="195" y="810"/>
      <point x="214" y="825"/>
      <point x="244" y="847" type="curve"/>
      <point x="322" y="911"/>
      <point x="420" y="949"/>
      <point x="505" y="1002" type="curve" smooth="yes"/>
      <point x="592" y="1057"/>
      <point x="664" y="1117"/>
      <point x="664" y="1230" type="curve" smooth="yes"/>
      <point x="664" y="1361"/>
      <point x="559" y="1485"/>
      <point x="371" y="1485" type="curve" smooth="yes"/>
      <point x="165" y="1485"/>
      <point x="56" y="1372"/>
      <point x="56" y="1185" type="curve"/>
    </contour>
  </outline>
</glyph>
<glyph name="threesuperior" format="2">
  <advance width="705"/>
  <unicode hex="00B3"/>
  <outline>
    <contour>
      <point x="176" y="1230" type="line"/>
      <point x="191" y="1316"/>
      <point x="236" y="1372"/>
      <point x="345" y="1372" type="curve" smooth="yes"/>
      <point x="435" y="1372"/>
      <point x="495" y="1342"/>
      <point x="495" y="1264" type="curve" smooth="yes"/>
      <point x="495" y="1200"/>
      <point x="457" y="1136"/>
      <point x="349" y="1136" type="curve" smooth="yes"/>
      <point x="274" y="1136" type="line"/>
      <point x="274" y="1031" type="line"/>
      <point x="349" y="1031" type="line" smooth="yes"/>
      <point x="465" y="1031"/>
      <point x="536" y="967"/>
      <point x="536" y="881" type="curve" smooth="yes"/>
      <point x="536" y="787"/>
      <point x="450" y="750"/>
      <point x="349" y="750" type="curve" smooth="yes"/>
      <point x="240" y="750"/>
      <point x="176" y="776"/>
      <point x="150" y="911" type="curve"/>
      <point x="19" y="911" type="line"/>
      <point x="49" y="731"/>
      <point x="127" y="634"/>
      <point x="349" y="634" type="curve" smooth="yes"/>
      <point x="521" y="634"/>
      <point x="667" y="720"/>
      <point x="667" y="881" type="curve" smooth="yes"/>
      <point x="667" y="1005"/>
      <point x="581" y="1069"/>
      <point x="495" y="1091" type="curve"/>
      <point x="585" y="1121"/>
      <point x="626" y="1177"/>
      <point x="626" y="1267" type="curve" smooth="yes"/>
      <point x="626" y="1399"/>
      <point x="517" y="1489"/>
      <point x="349" y="1489" type="curve" smooth="yes"/>
      <point x="150" y="1489"/>
      <point x="71" y="1391"/>
      <point x="49" y="1230" type="curve"/>
    </contour>
  </outline>
</glyph>
<glyph name="cedilla" format="2">
  <advance width="1042"/>
  <unicode hex="00B8"/>
  <outline>
    <contour>
      <point x="551" y="0" type="line"/>
      <point x="502" y="-19"/>
      <point x="424" y="-120"/>
      <point x="390" y="-188" type="curve"/>
      <point x="450" y="-191"/>
      <point x="510" y="-225"/>
      <point x="510" y="-281" type="curve" smooth="yes"/>
      <point x="510" y="-326"/>
      <point x="476" y="-353"/>
      <point x="427" y="-353" type="curve" smooth="yes"/>
      <point x="379" y="-353"/>
      <point x="341" y="-330"/>
      <point x="326" y="-315" type="curve"/>
      <point x="281" y="-386" type="line"/>
      <point x="304" y="-413"/>
      <point x="379" y="-443"/>
      <point x="427" y="-443" type="curve" smooth="yes"/>
      <point x="626" y="-443"/>
      <point x="664" y="-338"/>
      <point x="664" y="-255" type="curve" smooth="yes"/>
      <point x="664" y="-188"/>
      <point x="562" y="-131"/>
      <point x="510" y="-128" type="curve"/>
      <point x="532" y="-86"/>
      <point x="607" y="-15"/>
      <point x="660" y="0" type="curve"/>
    </contour>
  </outline>
</glyph>
<glyph name="onesuperior" format="2">
  <advance width="562"/>
  <unicode hex="00B9"/>
  <outline>
    <contour>
      <point x="315" y="645" type="line"/>
      <point x="435" y="645" type="line"/>
      <point x="435" y="1485" type="line"/>
      <point x="337" y="1485" type="line"/>
      <point x="337" y="1395"/>
      <point x="266" y="1331"/>
      <point x="169" y="1331" type="curve" smooth="yes"/>
      <point x="101" y="1331" type="line"/>
      <point x="101" y="1245" type="line"/>
      <point x="315" y="1245" type="line"/>
    </contour>
  </outline>
</glyph>
<glyph name="guillemotright" format="2">
  <advance width="840"/>
  <unicode hex="00BB"/>
  <outline>
    <contour>
      <point x="120" y="161" type="line"/>
      <point x="450" y="442" type="line"/>
      <point x="450" y="521" type="line"/>
      <point x="120" y="802" type="line"/>
      <point x="120" y="664" type="line"/>
      <point x="334" y="480" type="line"/>
      <point x="120" y="304" type="line"/>
    </contour>
    <contour>
      <point x="371" y="161" type="line"/>
      <point x="701" y="442" type="line"/>
      <point x="701" y="521" type="line"/>
      <point x="371" y="802" type="line"/>
      <point x="371" y="664" type="line"/>
      <point x="581" y="480" type="line"/>
      <point x="371" y="304" type="line"/>
    </contour>
  </outline>
</glyph>
<glyph name="onequarter" format="2">
  <advance width="1669"/>
  <unicode hex="00BC"/>
  <outline>
    <contour>
      <point x="334" y="645" type="line"/>
      <point x="454" y="645" type="line"/>
      <point x="454" y="1485" type="line"/>
      <point x="356" y="1485" type="line"/>
      <point x="356" y="1395"/>
      <point x="285" y="1331"/>
      <point x="187" y="1331" type="curve" smooth="yes"/>
      <point x="120" y="1331" type="line"/>
      <point x="120" y="1245" type="line"/>
      <point x="334" y="1245" type="line"/>
    </contour>
    <contour>
      <point x="1072" y="1485" type="line"/>
      <point x="952" y="1485" type="line"/>
      <point x="472" y="-41" type="line"/>
      <point x="592" y="-41" type="line"/>
    </contour>
    <contour>
      <point x="1429" y="0" type="line"/>
      <point x="1429" y="202" type="line"/>
      <point x="1560" y="202" type="line"/>
      <point x="1560" y="296" type="line"/>
      <point x="1429" y="296" type="line"/>
      <point x="1429" y="832" type="line"/>
      <point x="1309" y="832" type="line"/>
      <point x="911" y="322" type="line"/>
      <point x="911" y="202" type="line"/>
      <point x="1309" y="202" type="line"/>
      <point x="1309" y="0" type="line"/>
    </contour>
    <contour>
      <point x="1309" y="671" type="line"/>
      <point x="1309" y="296" type="line"/>
      <point x="1020" y="296" type="line"/>
    </contour>
  </outline>
</glyph>
<glyph name="threequarters" format="2">
  <advance width="1669"/>
  <unicode hex="00BE"/>
  <outline>
    <contour>
      <point x="180" y="1230" type="line"/>
      <point x="191" y="1316"/>
      <point x="236" y="1372"/>
      <point x="349" y="1372" type="curve" smooth="yes"/>
      <point x="439" y="1372"/>
      <point x="499" y="1342"/>
      <point x="499" y="1260" type="curve" smooth="yes"/>
      <point x="499" y="1200"/>
      <point x="457" y="1136"/>
      <point x="349" y="1136" type="curve" smooth="yes"/>
      <point x="274" y="1136" type="line"/>
      <point x="274" y="1027" type="line"/>
      <point x="352" y="1027" type="line" smooth="yes"/>
      <point x="469" y="1027"/>
      <point x="540" y="967"/>
      <point x="540" y="877" type="curve" smooth="yes"/>
      <point x="540" y="787"/>
      <point x="450" y="746"/>
      <point x="352" y="746" type="curve" smooth="yes"/>
      <point x="240" y="746"/>
      <point x="180" y="776"/>
      <point x="154" y="907" type="curve"/>
      <point x="22" y="907" type="line"/>
      <point x="52" y="727"/>
      <point x="131" y="634"/>
      <point x="349" y="634" type="curve" smooth="yes"/>
      <point x="521" y="634"/>
      <point x="671" y="716"/>
      <point x="671" y="877" type="curve" smooth="yes"/>
      <point x="671" y="1005"/>
      <point x="585" y="1065"/>
      <point x="499" y="1087" type="curve"/>
      <point x="585" y="1121"/>
      <point x="630" y="1174"/>
      <point x="630" y="1267" type="curve" smooth="yes"/>
      <point x="630" y="1399"/>
      <point x="517" y="1485"/>
      <point x="349" y="1485" type="curve" smooth="yes"/>
      <point x="154" y="1485"/>
      <point x="71" y="1387"/>
      <point x="52" y="1230" type="curve"/>
    </contour>
    <contour>
      <point x="1106" y="1485" type="line"/>
      <point x="986" y="1485" type="line"/>
      <point x="506" y="-41" type="line"/>
      <point x="626" y="-41" type="line"/>
    </contour>
    <contour>
      <point x="1387" y="0" type="line"/>
      <point x="1387" y="202" type="line"/>
      <point x="1519" y="202" type="line"/>
      <point x="1519" y="296" type="line"/>
      <point x="1387" y="296" type="line"/>
      <point x="1387" y="832" type="line"/>
      <point x="1267" y="832" type="line"/>
      <point x="870" y="322" type="line"/>
      <point x="870" y="202" type="line"/>
      <point x="1267" y="202" type="line"/>
      <point x="1267" y="0" type="line"/>
    </contour>
    <contour>
      <point x="1267" y="671" type="line"/>
      <point x="1267" y="296" type="line"/>
      <point x="979" y="296" type="line"/>
    </contour>
  </outline>
</glyph>
<glyph name="questiondown" format="2">
  <advance width="1106"/>
  <unicode hex="00BF"/>
  <outline>
    <contour>
      <point x="457" y="1057" type="line"/>
      <point x="457" y="1016" type="line" smooth="yes"/>
      <point x="457" y="727"/>
      <point x="109" y="690"/>
      <point x="109" y="379" type="curve" smooth="yes"/>
      <point x="109" y="191"/>
      <point x="232" y="-19"/>
      <point x="536" y="-19" type="curve" smooth="yes"/>
      <point x="791" y="-19"/>
      <point x="967" y="180"/>
      <point x="967" y="461" type="curve"/>
      <point x="787" y="461" type="line"/>
      <point x="787" y="274"/>
      <point x="686" y="139"/>
      <point x="536" y="139" type="curve" smooth="yes"/>
      <point x="382" y="139"/>
      <point x="307" y="229"/>
      <point x="307" y="371" type="curve" smooth="yes"/>
      <point x="307" y="604"/>
      <point x="634" y="705"/>
      <point x="634" y="945" type="curve" smooth="yes"/>
      <point x="634" y="1057" type="line"/>
    </contour>
    <contour>
      <point x="446" y="1447" type="line"/>
      <point x="446" y="1230" type="line"/>
      <point x="641" y="1230" type="line"/>
      <point x="641" y="1447" type="line"/>
    </contour>
  </outline>
</glyph>
<glyph name="Edieresis" format="2">
  <advance width="1267"/>
  <unicode hex="00CB"/>
  <outline>
    <contour>
      <point x="341" y="1714" type="curve" smooth="yes"/>
      <point x="341" y="1657"/>
      <point x="390" y="1609"/>
      <point x="446" y="1609" type="curve" smooth="yes"/>
      <point x="502" y="1609"/>
      <point x="551" y="1657"/>
      <point x="551" y="1714" type="curve" smooth="yes"/>
      <point x="551" y="1770"/>
      <point x="502" y="1819"/>
      <point x="446" y="1819" type="curve" smooth="yes"/>
      <point x="390" y="1819"/>
      <point x="341" y="1770"/>
    </contour>
    <contour>
      <point x="754" y="1714" type="curve" smooth="yes"/>
      <point x="754" y="1657"/>
      <point x="802" y="1609"/>
      <point x="859" y="1609" type="curve" smooth="yes"/>
      <point x="915" y="1609"/>
      <point x="964" y="1657"/>
      <point x="964" y="1714" type="curve" smooth="yes"/>
      <point x="964" y="1770"/>
      <point x="915" y="1819"/>
      <point x="859" y="1819" type="curve" smooth="yes"/>
      <point x="802" y="1819"/>
      <point x="754" y="1770"/>
    </contour>
    <contour>
      <point x="146" y="1440" type="line"/>
      <point x="146" y="0" type="line"/>
      <point x="1166" y="0" type="line"/>
      <point x="1166" y="176" type="line"/>
      <point x="341" y="176" type="line"/>
      <point x="341" y="656" type="line"/>
      <point x="1084" y="656" type="line"/>
      <point x="1084" y="832" type="line"/>
      <point x="341" y="832" type="line"/>
      <point x="341" y="1264" type="line"/>
      <point x="1129" y="1264" type="line"/>
      <point x="1129" y="1440" type="line"/>
    </contour>
  </outline>
</glyph>
<glyph name="Igrave" format="2">
  <advance width="510"/>
  <unicode hex="00CC"/>
  <outline>
    <contour>
      <point x="0" y="1811" type="line"/>
      <point x="394" y="1511" type="line"/>
      <point x="454" y="1511" type="line"/>
      <point x="266" y="1811" type="line"/>
    </contour>
    <contour>
      <point x="157" y="1440" type="line"/>
      <point x="157" y="0" type="line"/>
      <point x="352" y="0" type="line"/>
      <point x="352" y="1440" type="line"/>
    </contour>
  </outline>
</glyph>
<glyph name="Otilde" format="2">
  <advance width="1507"/>
  <unicode hex="00D5"/>
  <outline>
    <contour>
      <point x="469" y="1511" type="line"/>
      <point x="480" y="1571"/>
      <point x="502" y="1624"/>
      <point x="577" y="1624" type="curve" smooth="yes"/>
      <point x="622" y="1624"/>
      <point x="679" y="1605"/>
      <point x="739" y="1567" type="curve" smooth="yes"/>
      <point x="799" y="1530"/>
      <point x="862" y="1511"/>
      <point x="934" y="1511" type="curve" smooth="yes"/>
      <point x="1091" y="1511"/>
      <point x="1144" y="1624"/>
      <point x="1144" y="1755" type="curve"/>
      <point x="1114" y="1755" type="line"/>
      <point x="1102" y="1695"/>
      <point x="1080" y="1646"/>
      <point x="1005" y="1646" type="curve" smooth="yes"/>
      <point x="960" y="1646"/>
      <point x="904" y="1661"/>
      <point x="844" y="1699" type="curve" smooth="yes"/>
      <point x="784" y="1736"/>
      <point x="720" y="1755"/>
      <point x="649" y="1755" type="curve" smooth="yes"/>
      <point x="491" y="1755"/>
      <point x="435" y="1646"/>
      <point x="435" y="1511" type="curve"/>
    </contour>
    <contour>
      <point x="754" y="-41" type="curve" smooth="yes"/>
      <point x="1166" y="-41"/>
      <point x="1425" y="285"/>
      <point x="1425" y="731" type="curve" smooth="yes"/>
      <point x="1425" y="1177"/>
      <point x="1166" y="1485"/>
      <point x="754" y="1485" type="curve" smooth="yes"/>
      <point x="345" y="1485"/>
      <point x="82" y="1177"/>
      <point x="82" y="731" type="curve" smooth="yes"/>
      <point x="82" y="285"/>
      <point x="341" y="-41"/>
    </contour>
    <contour>
      <point x="754" y="139" type="curve" smooth="yes"/>
      <point x="461" y="139"/>
      <point x="292" y="334"/>
      <point x="292" y="731" type="curve" smooth="yes"/>
      <point x="292" y="1129"/>
      <point x="465" y="1309"/>
      <point x="754" y="1309" type="curve" smooth="yes"/>
      <point x="1046" y="1309"/>
      <point x="1215" y="1129"/>
      <point x="1215" y="731" type="curve" smooth="yes"/>
      <point x="1215" y="334"/>
      <point x="1050" y="139"/>
    </contour>
  </outline>
</glyph>
<glyph name="Oslash" format="2">
  <advance width="1541"/>
  <unicode hex="00D8"/>
  <outline>
    <contour>
      <point x="180" y="-11" type="line"/>
      <point x="310" y="128" type="line"/>
      <point x="423" y="21"/>
      <point x="573" y="-41"/>
      <point x="754" y="-41" type="curve" smooth="yes"/>
      <point x="1166" y="-41"/>
      <point x="1425" y="285"/>
      <point x="1425" y="731" type="curve" smooth="yes"/>
      <point x="1425" y="912"/>
      <point x="1382" y="1070"/>
      <point x="1304" y="1194" type="curve"/>
      <point x="1470" y="1372" type="line"/>
      <point x="1395" y="1451" type="line"/>
      <point x="1237" y="1282" type="line"/>
      <point x="1121" y="1410"/>
      <point x="956" y="1485"/>
      <point x="754" y="1485" type="curve" smooth="yes"/>
      <point x="345" y="1485"/>
      <point x="82" y="1177"/>
      <point x="82" y="731" type="curve" smooth="yes"/>
      <point x="82" y="524"/>
      <point x="137" y="344"/>
      <point x="238" y="209" type="curve"/>
      <point x="105" y="67" type="line"/>
    </contour>
    <contour>
      <point x="292" y="731" type="curve" smooth="yes"/>
      <point x="292" y="1129"/>
      <point x="465" y="1309"/>
      <point x="754" y="1309" type="curve" smooth="yes"/>
      <point x="911" y="1309"/>
      <point x="1033" y="1257"/>
      <point x="1111" y="1146" type="curve"/>
      <point x="370" y="351" type="line"/>
      <point x="319" y="445"/>
      <point x="292" y="572"/>
    </contour>
    <contour>
      <point x="754" y="139" type="curve" smooth="yes"/>
      <point x="620" y="139"/>
      <point x="512" y="180"/>
      <point x="434" y="262" type="curve"/>
      <point x="1165" y="1045" type="line"/>
      <point x="1198" y="962"/>
      <point x="1215" y="857"/>
      <point x="1215" y="731" type="curve" smooth="yes"/>
      <point x="1215" y="334"/>
      <point x="1050" y="139"/>
    </contour>
  </outline>
</glyph>
<glyph name="Yacute" format="2">
  <advance width="1279"/>
  <unicode hex="00DD"/>
  <outline>
    <contour>
      <point x="937" y="1811" type="line"/>
      <point x="671" y="1811" type="line"/>
      <point x="484" y="1511" type="line"/>
      <point x="540" y="1511" type="line"/>
    </contour>
    <contour>
      <point x="19" y="1440" type="line"/>
      <point x="540" y="574" type="line"/>
      <point x="540" y="0" type="line"/>
      <point x="735" y="0" type="line"/>
      <point x="735" y="574" type="line"/>
      <point x="1260" y="1440" type="line"/>
      <point x="1020" y="1440" type="line"/>
      <point x="637" y="735" type="line"/>
      <point x="259" y="1440" type="line"/>
    </contour>
  </outline>
</glyph>
<glyph name="acircumflex" format="2">
  <advance width="1095"/>
  <unicode hex="00E2"/>
  <outline>
    <contour>
      <point x="420" y="1474" type="line"/>
      <point x="210" y="1121" type="line"/>
      <point x="244" y="1121" type="line"/>
      <point x="521" y="1346" type="line"/>
      <point x="799" y="1121" type="line"/>
      <point x="836" y="1121" type="line"/>
      <point x="622" y="1474" type="line"/>
    </contour>
    <contour>
      <point x="754" y="322" type="line"/>
      <point x="701" y="184"/>
      <point x="585" y="131"/>
      <point x="454" y="131" type="curve" smooth="yes"/>
      <point x="356" y="131"/>
      <point x="259" y="176"/>
      <point x="259" y="285" type="curve" smooth="yes"/>
      <point x="259" y="491"/>
      <point x="592" y="499"/>
      <point x="754" y="570" type="curve"/>
    </contour>
    <contour>
      <point x="292" y="746" type="line"/>
      <point x="292" y="870"/>
      <point x="394" y="904"/>
      <point x="517" y="904" type="curve" smooth="yes"/>
      <point x="671" y="904"/>
      <point x="754" y="855"/>
      <point x="754" y="746" type="curve" smooth="yes"/>
      <point x="754" y="600"/>
      <point x="75" y="690"/>
      <point x="75" y="281" type="curve" smooth="yes"/>
      <point x="75" y="97"/>
      <point x="202" y="-19"/>
      <point x="382" y="-19" type="curve" smooth="yes"/>
      <point x="544" y="-19"/>
      <point x="667" y="37"/>
      <point x="769" y="157" type="curve"/>
      <point x="769" y="37"/>
      <point x="836" y="-19"/>
      <point x="934" y="-19" type="curve" smooth="yes"/>
      <point x="990" y="-19"/>
      <point x="1020" y="-9"/>
      <point x="1057" y="4" type="curve"/>
      <point x="1057" y="154" type="line"/>
      <point x="1035" y="141"/>
      <point x="1016" y="131"/>
      <point x="997" y="131" type="curve" smooth="yes"/>
      <point x="960" y="131"/>
      <point x="934" y="172"/>
      <point x="934" y="210" type="curve" smooth="yes"/>
      <point x="934" y="746" type="line" smooth="yes"/>
      <point x="934" y="967"/>
      <point x="724" y="1057"/>
      <point x="521" y="1057" type="curve" smooth="yes"/>
      <point x="326" y="1057"/>
      <point x="116" y="956"/>
      <point x="116" y="746" type="curve"/>
    </contour>
  </outline>
</glyph>
<glyph name="ntilde" format="2">
  <advance width="1095"/>
  <unicode hex="00F1"/>
  <outline>
    <contour>
      <point x="127" y="0" type="line"/>
      <point x="304" y="0" type="line"/>
      <point x="304" y="671" type="line"/>
      <point x="334" y="799"/>
      <point x="480" y="904"/>
      <point x="611" y="904" type="curve" smooth="yes"/>
      <point x="690" y="904"/>
      <point x="791" y="825"/>
      <point x="791" y="716" type="curve" smooth="yes"/>
      <point x="791" y="0" type="line"/>
      <point x="967" y="0" type="line"/>
      <point x="967" y="776" type="line" smooth="yes"/>
      <point x="967" y="945"/>
      <point x="825" y="1057"/>
      <point x="626" y="1057" type="curve" smooth="yes"/>
      <point x="506" y="1057"/>
      <point x="375" y="1009"/>
      <point x="307" y="900" type="curve"/>
      <point x="304" y="900" type="line"/>
      <point x="304" y="1039" type="line"/>
      <point x="127" y="1039" type="line"/>
    </contour>
    <contour>
      <point x="829" y="1440" type="line"/>
      <point x="829" y="1346"/>
      <point x="765" y="1297"/>
      <point x="716" y="1297" type="curve" smooth="yes"/>
      <point x="604" y="1297"/>
      <point x="585" y="1485"/>
      <point x="397" y="1485" type="curve" smooth="yes"/>
      <point x="232" y="1485"/>
      <point x="127" y="1346"/>
      <point x="127" y="1189" type="curve"/>
      <point x="266" y="1189" type="line"/>
      <point x="266" y="1282"/>
      <point x="330" y="1331"/>
      <point x="379" y="1331" type="curve" smooth="yes"/>
      <point x="491" y="1331"/>
      <point x="525" y="1144"/>
      <point x="712" y="1144" type="curve" smooth="yes"/>
      <point x="840" y="1144"/>
      <point x="967" y="1222"/>
      <point x="967" y="1440" type="curve"/>
    </contour>
  </outline>
</glyph>
<glyph name="uni012D" format="2">
  <advance width="431"/>
  <unicode hex="012D"/>
  <outline>
    <contour>
      <point x="127" y="1039" type="line"/>
      <point x="127" y="0" type="line"/>
      <point x="304" y="0" type="line"/>
      <point x="304" y="1039" type="line"/>
    </contour>
    <contour>
      <point x="386" y="1520" type="line"/>
      <point x="386" y="1426"/>
      <point x="306" y="1370"/>
      <point x="216" y="1370" type="curve" smooth="yes"/>
      <point x="126" y="1370"/>
      <point x="46" y="1426"/>
      <point x="46" y="1520" type="curve"/>
      <point x="-104" y="1520" type="line"/>
      <point x="-104" y="1302"/>
      <point x="91" y="1220"/>
      <point x="216" y="1220" type="curve" smooth="yes"/>
      <point x="341" y="1220"/>
      <point x="536" y="1302"/>
      <point x="536" y="1520" type="curve"/>
    </contour>
  </outline>
</glyph>
<glyph name="uni014E" format="2">
  <advance width="1507"/>
  <unicode hex="014E"/>
  <outline>
    <contour>
      <point x="754" y="-41" type="curve" smooth="yes"/>
      <point x="1166" y="-41"/>
      <point x="1425" y="285"/>
      <point x="1425" y="731" type="curve" smooth="yes"/>
      <point x="1425" y="1177"/>
      <point x="1166" y="1485"/>
      <point x="754" y="1485" type="curve" smooth="yes"/>
      <point x="345" y="1485"/>
      <point x="82" y="1177"/>
      <point x="82" y="731" type="curve" smooth="yes"/>
      <point x="82" y="285"/>
      <point x="341" y="-41"/>
    </contour>
    <contour>
      <point x="754" y="139" type="curve" smooth="yes"/>
      <point x="461" y="139"/>
      <point x="292" y="334"/>
      <point x="292" y="731" type="curve" smooth="yes"/>
      <point x="292" y="1129"/>
      <point x="465" y="1309"/>
      <point x="754" y="1309" type="curve" smooth="yes"/>
      <point x="1046" y="1309"/>
      <point x="1215" y="1129"/>
      <point x="1215" y="731" type="curve" smooth="yes"/>
      <point x="1215" y="334"/>
      <point x="1050" y="139"/>
    </contour>
    <contour>
      <point x="924" y="1850" type="line"/>
      <point x="924" y="1756"/>
      <point x="844" y="1700"/>
      <point x="754" y="1700" type="curve" smooth="yes"/>
      <point x="664" y="1700"/>
      <point x="584" y="1756"/>
      <point x="584" y="1850" type="curve"/>
      <point x="434" y="1850" type="line"/>
      <point x="434" y="1632"/>
      <point x="629" y="1550"/>
      <point x="754" y="1550" type="curve" smooth="yes"/>
      <point x="879" y="1550"/>
      <point x="1074" y="1632"/>
      <point x="1074" y="1850" type="curve"/>
    </contour>
  </outline>
</glyph>
<glyph name="OE" format="2">
  <advance width="2182"/>
  <unicode hex="0152"/>
  <outline>
    <contour>
      <point x="1136" y="1440" type="line"/>
      <point x="1136" y="1301" type="line"/>
      <point x="1024" y="1417"/>
      <point x="904" y="1485"/>
      <point x="712" y="1485" type="curve" smooth="yes"/>
      <point x="341" y="1485"/>
      <point x="79" y="1177"/>
      <point x="79" y="731" type="curve" smooth="yes"/>
      <point x="79" y="285"/>
      <point x="337" y="-41"/>
      <point x="712" y="-41" type="curve" smooth="yes"/>
      <point x="904" y="-41"/>
      <point x="1024" y="30"/>
      <point x="1136" y="150" type="curve"/>
      <point x="1136" y="0" type="line"/>
      <point x="2081" y="0" type="line"/>
      <point x="2081" y="176" type="line"/>
      <point x="1331" y="176" type="line"/>
      <point x="1331" y="656" type="line"/>
      <point x="1999" y="656" type="line"/>
      <point x="1999" y="832" type="line"/>
      <point x="1331" y="832" type="line"/>
      <point x="1331" y="1264" type="line"/>
      <point x="2044" y="1264" type="line"/>
      <point x="2044" y="1440" type="line"/>
    </contour>
    <contour>
      <point x="712" y="139" type="curve" smooth="yes"/>
      <point x="457" y="139"/>
      <point x="289" y="334"/>
      <point x="289" y="731" type="curve" smooth="yes"/>
      <point x="289" y="1129"/>
      <point x="461" y="1309"/>
      <point x="712" y="1309" type="curve" smooth="yes"/>
      <point x="960" y="1309"/>
      <point x="1136" y="1129"/>
      <point x="1136" y="731" type="curve" smooth="yes"/>
      <point x="1136" y="334"/>
      <point x="964" y="139"/>
    </contour>
  </outline>
</glyph>
<glyph name="uni016C" format="2">
  <advance width="1369"/>
  <unicode hex="016C"/>
  <outline>
    <contour>
      <point x="139" y="1440" type="line"/>
      <point x="139" y="480" type="line" smooth="yes"/>
      <point x="139" y="139"/>
      <point x="420" y="-41"/>
      <point x="675" y="-41" type="curve" smooth="yes"/>
      <point x="941" y="-41"/>
      <point x="1230" y="139"/>
      <point x="1230" y="480" type="curve" smooth="yes"/>
      <point x="1230" y="1440" type="line"/>
      <point x="1035" y="1440" type="line"/>
      <point x="1035" y="450" type="line" smooth="yes"/>
      <point x="1035" y="244"/>
      <point x="847" y="139"/>
      <point x="675" y="139" type="curve" smooth="yes"/>
      <point x="514" y="139"/>
      <point x="334" y="240"/>
      <point x="334" y="450" type="curve" smooth="yes"/>
      <point x="334" y="1440" type="line"/>
    </contour>
    <contour>
      <point x="845" y="1850" type="line"/>
      <point x="845" y="1756"/>
      <point x="765" y="1700"/>
      <point x="675" y="1700" type="curve" smooth="yes"/>
      <point x="585" y="1700"/>
      <point x="505" y="1756"/>
      <point x="505" y="1850" type="curve"/>
      <point x="355" y="1850" type="line"/>
      <point x="355" y="1632"/>
      <point x="550" y="1550"/>
      <point x="675" y="1550" type="curve" smooth="yes"/>
      <point x="800" y="1550"/>
      <point x="995" y="1632"/>
      <point x="995" y="1850" type="curve"/>
    </contour>
  </outline>
</glyph>
<glyph name="uni016D" format="2">
  <advance width="1110"/>
  <unicode hex="016D"/>
  <outline>
    <contour>
      <point x="127" y="1039" type="line"/>
      <point x="127" y="270" type="line" smooth="yes"/>
      <point x="127" y="75"/>
      <point x="262" y="-19"/>
      <point x="454" y="-19" type="curve" smooth="yes"/>
      <point x="596" y="-19"/>
      <point x="720" y="34"/>
      <point x="806" y="139" type="curve"/>
      <point x="806" y="0" type="line"/>
      <point x="982" y="0" type="line"/>
      <point x="982" y="1039" type="line"/>
      <point x="806" y="1039" type="line"/>
      <point x="806" y="326" type="line"/>
      <point x="750" y="217"/>
      <point x="615" y="135"/>
      <point x="495" y="135" type="curve" smooth="yes"/>
      <point x="394" y="135"/>
      <point x="300" y="195"/>
      <point x="300" y="345" type="curve" smooth="yes"/>
      <point x="300" y="1039" type="line"/>
    </contour>
    <contour>
      <point x="723" y="1520" type="line"/>
      <point x="723" y="1426"/>
      <point x="643" y="1370"/>
      <point x="553" y="1370" type="curve" smooth="yes"/>
      <point x="463" y="1370"/>
      <point x="383" y="1426"/>
      <point x="383" y="1520" type="curve"/>
      <point x="233" y="1520" type="line"/>
      <point x="233" y="1302"/>
      <point x="428" y="1220"/>
      <point x="553" y="1220" type="curve" smooth="yes"/>
      <point x="678" y="1220"/>
      <point x="873" y="1302"/>
      <point x="873" y="1520" type="curve"/>
    </contour>
  </outline>
</glyph>
<glyph name="uni01A0" format="2">
  <advance width="1612"/>
  <unicode hex="01A0"/>
  <outline>
    <contour>
      <point x="754" y="-41" type="curve" smooth="yes"/>
      <point x="1166" y="-41"/>
      <point x="1425" y="285"/>
      <point x="1425" y="731" type="curve" smooth="yes"/>
      <point x="1425" y="870"/>
      <point x="1399" y="996"/>
      <point x="1352" y="1104" type="curve"/>
      <point x="1535" y="1174"/>
      <point x="1632" y="1325"/>
      <point x="1632" y="1485" type="curve" smooth="yes"/>
      <point x="1632" y="1552"/>
      <point x="1625" y="1587"/>
      <point x="1608" y="1650" type="curve"/>
      <point x="1408" y="1650" type="line"/>
      <point x="1426" y="1609"/>
      <point x="1442" y="1523"/>
      <point x="1442" y="1485" type="curve" smooth="yes"/>
      <point x="1442" y="1390"/>
      <point x="1378" y="1313"/>
      <point x="1264" y="1274" type="curve" smooth="yes"/>
      <point x="1249" y="1269" type="line"/>
      <point x="1133" y="1405"/>
      <point x="963" y="1485"/>
      <point x="754" y="1485" type="curve" smooth="yes"/>
      <point x="345" y="1485"/>
      <point x="82" y="1177"/>
      <point x="82" y="731" type="curve" smooth="yes"/>
      <point x="82" y="285"/>
      <point x="341" y="-41"/>
    </contour>
    <contour>
      <point x="754" y="139" type="curve" smooth="yes"/>
      <point x="461" y="139"/>
      <point x="292" y="334"/>
      <point x="292" y="731" type="curve" smooth="yes"/>
      <point x="292" y="1129"/>
      <point x="465" y="1309"/>
      <point x="754" y="1309" type="curve" smooth="yes"/>
      <point x="1046" y="1309"/>
      <point x="1215" y="1129"/>
      <point x="1215" y="731" type="curve" smooth="yes"/>
      <point x="1215" y="334"/>
      <point x="1050" y="139"/>
    </contour>
  </outline>
</glyph>
<glyph name="uni01AF" format="2">
  <advance width="1540"/>
  <unicode hex="01AF"/>
  <outline>
    <contour>
      <point x="139" y="1440" type="line"/>
      <point x="139" y="480" type="line" smooth="yes"/>
      <point x="139" y="139"/>
      <point x="420" y="-41"/>
      <point x="675" y="-41" type="curve" smooth="yes"/>
      <point x="941" y="-41"/>
      <point x="1230" y="139"/>
      <point x="1230" y="480" type="curve" smooth="yes"/>
      <point x="1230" y="1085" type="line"/>
      <point x="1270" y="1100" type="line"/>
      <point x="1459" y="1171"/>
      <point x="1560" y="1322"/>
      <point x="1560" y="1485" type="curve" smooth="yes"/>
      <point x="1560" y="1552"/>
      <point x="1553" y="1587"/>
      <point x="1536" y="1650" type="curve"/>
      <point x="1336" y="1650" type="line"/>
      <point x="1354" y="1609"/>
      <point x="1370" y="1523"/>
      <point x="1370" y="1485" type="curve" smooth="yes"/>
      <point x="1370" y="1401"/>
      <point x="1320" y="1331"/>
      <point x="1230" y="1289" type="curve"/>
      <point x="1230" y="1440" type="line"/>
      <point x="1035" y="1440" type="line"/>
      <point x="1035" y="450" type="line" smooth="yes"/>
      <point x="1035" y="244"/>
      <point x="847" y="139"/>
      <point x="675" y="139" type="curve" smooth="yes"/>
      <point x="514" y="139"/>
      <point x="334" y="240"/>
      <point x="334" y="450" type="curve" smooth="yes"/>
      <point x="334" y="1440" type="line"/>
    </contour>
  </outline>
  <guideline angle="19.29" x="-0" y="675"/>
</glyph>
<glyph name="uni01C2" format="2">
  <advance width="874"/>
  <unicode hex="01C2"/>
  <outline>
    <contour>
      <point x="57" y="920" type="line"/>
      <point x="342" y="920" type="line"/>
      <point x="342" y="692" type="line"/>
      <point x="57" y="692" type="line"/>
      <point x="57" y="551" type="line"/>
      <point x="342" y="551" type="line"/>
      <point x="342" y="0" type="line"/>
      <point x="532" y="0" type="line"/>
      <point x="532" y="551" type="line"/>
      <point x="817" y="551" type="line"/>
      <point x="817" y="692" type="line"/>
      <point x="532" y="692" type="line"/>
      <point x="532" y="920" type="line"/>
      <point x="817" y="920" type="line"/>
      <point x="817" y="1060" type="line"/>
      <point x="532" y="1060" type="line"/>
      <point x="532" y="1607" type="line"/>
      <point x="342" y="1607" type="line"/>
      <point x="342" y="1060" type="line"/>
      <point x="57" y="1060" type="line"/>
    </contour>
  </outline>
</glyph>
<glyph name="uni0243" format="2">
  <advance width="1380"/>
  <unicode hex="0243"/>
  <outline>
    <contour>
      <point x="190" y="0" type="line"/>
      <point x="839" y="0" type="line" smooth="yes"/>
      <point x="1060" y="0"/>
      <point x="1251" y="202"/>
      <point x="1251" y="416" type="curve" smooth="yes"/>
      <point x="1251" y="589"/>
      <point x="1169" y="731"/>
      <point x="985" y="776" type="curve"/>
      <point x="1116" y="832"/>
      <point x="1176" y="945"/>
      <point x="1176" y="1099" type="curve" smooth="yes"/>
      <point x="1176" y="1290"/>
      <point x="993" y="1440"/>
      <point x="786" y="1440" type="curve" smooth="yes"/>
      <point x="190" y="1440" type="line"/>
    </contour>
    <contour>
      <point x="385" y="1264" type="line"/>
      <point x="749" y="1264" type="line" smooth="yes"/>
      <point x="906" y="1264"/>
      <point x="978" y="1170"/>
      <point x="978" y="1072" type="curve" smooth="yes"/>
      <point x="978" y="952"/>
      <point x="873" y="851"/>
      <point x="749" y="851" type="curve" smooth="yes"/>
      <point x="385" y="851" type="line"/>
    </contour>
    <contour>
      <point x="385" y="682" type="line"/>
      <point x="771" y="682" type="line" smooth="yes"/>
      <point x="948" y="682"/>
      <point x="1041" y="562"/>
      <point x="1041" y="420" type="curve" smooth="yes"/>
      <point x="1041" y="274"/>
      <point x="910" y="176"/>
      <point x="768" y="176" type="curve" smooth="yes"/>
      <point x="385" y="176" type="line"/>
    </contour>
    <contour>
      <point x="40" y="518" type="line"/>
      <point x="40" y="340" type="line"/>
      <point x="535" y="340" type="line"/>
      <point x="535" y="518" type="line"/>
    </contour>
  </outline>
</glyph>
<glyph name="uni0250" format="2">
  <advance width="1095"/>
  <unicode hex="0250"/>
  <outline>
    <contour>
      <point x="793" y="292" type="line"/>
      <point x="793" y="168"/>
      <point x="691" y="134"/>
      <point x="568" y="134" type="curve" smooth="yes"/>
      <point x="414" y="134"/>
      <point x="331" y="183"/>
      <point x="331" y="292" type="curve" smooth="yes"/>
      <point x="331" y="438"/>
      <point x="1010" y="348"/>
      <point x="1010" y="757" type="curve" smooth="yes"/>
      <point x="1010" y="941"/>
      <point x="883" y="1057"/>
      <point x="703" y="1057" type="curve" smooth="yes"/>
      <point x="541" y="1057"/>
      <point x="418" y="1001"/>
      <point x="316" y="881" type="curve"/>
      <point x="316" y="1001"/>
      <point x="249" y="1057"/>
      <point x="151" y="1057" type="curve" smooth="yes"/>
      <point x="95" y="1057"/>
      <point x="65" y="1047"/>
      <point x="28" y="1034" type="curve"/>
      <point x="28" y="884" type="line"/>
      <point x="50" y="897"/>
      <point x="69" y="907"/>
      <point x="88" y="907" type="curve" smooth="yes"/>
      <point x="125" y="907"/>
      <point x="151" y="866"/>
      <point x="151" y="828" type="curve" smooth="yes"/>
      <point x="151" y="292" type="line" smooth="yes"/>
      <point x="151" y="71"/>
      <point x="361" y="-19"/>
      <point x="564" y="-19" type="curve" smooth="yes"/>
      <point x="759" y="-19"/>
      <point x="969" y="82"/>
      <point x="969" y="292" type="curve"/>
    </contour>
    <contour>
      <point x="331" y="716" type="line"/>
      <point x="384" y="854"/>
      <point x="500" y="907"/>
      <point x="631" y="907" type="curve" smooth="yes"/>
      <point x="729" y="907"/>
      <point x="826" y="862"/>
      <point x="826" y="753" type="curve" smooth="yes"/>
      <point x="826" y="547"/>
      <point x="493" y="539"/>
      <point x="331" y="468" type="curve"/>
    </contour>
  </outline>
</glyph>
<glyph name="uni0252" format="2">
  <advance width="1106"/>
  <unicode hex="0252"/>
  <outline>
    <contour>
      <point x="300" y="1038" type="line"/>
      <point x="127" y="1038" type="line"/>
      <point x="127" y="-9" type="line"/>
      <point x="300" y="-9" type="line"/>
      <point x="300" y="142" type="line"/>
      <point x="364" y="56"/>
      <point x="454" y="-19"/>
      <point x="604" y="-19" type="curve" smooth="yes"/>
      <point x="859" y="-19"/>
      <point x="1035" y="198"/>
      <point x="1035" y="509" type="curve" smooth="yes"/>
      <point x="1035" y="809"/>
      <point x="881" y="1057"/>
      <point x="615" y="1057" type="curve" smooth="yes"/>
      <point x="487" y="1057"/>
      <point x="375" y="1016"/>
      <point x="304" y="899" type="curve"/>
      <point x="300" y="899" type="line"/>
    </contour>
    <contour>
      <point x="566" y="134" type="curve" smooth="yes"/>
      <point x="409" y="134"/>
      <point x="300" y="284"/>
      <point x="300" y="509" type="curve" smooth="yes"/>
      <point x="300" y="712"/>
      <point x="356" y="907"/>
      <point x="566" y="907" type="curve" smooth="yes"/>
      <point x="742" y="907"/>
      <point x="851" y="723"/>
      <point x="851" y="509" type="curve" smooth="yes"/>
      <point x="851" y="318"/>
      <point x="746" y="134"/>
    </contour>
  </outline>
</glyph>
<glyph name="uni0254" format="2">
  <advance width="1042"/>
  <unicode hex="0254"/>
  <outline>
    <contour>
      <point x="70" y="333" type="line"/>
      <point x="103" y="134"/>
      <point x="253" y="-19"/>
      <point x="516" y="-19" type="curve" smooth="yes"/>
      <point x="782" y="-19"/>
      <point x="962" y="209"/>
      <point x="962" y="502" type="curve" smooth="yes"/>
      <point x="962" y="768"/>
      <point x="820" y="1057"/>
      <point x="516" y="1057" type="curve" smooth="yes"/>
      <point x="253" y="1057"/>
      <point x="92" y="905"/>
      <point x="70" y="658" type="curve"/>
      <point x="253" y="658" type="line"/>
      <point x="276" y="808"/>
      <point x="355" y="907"/>
      <point x="516" y="907" type="curve" smooth="yes"/>
      <point x="707" y="907"/>
      <point x="778" y="704"/>
      <point x="778" y="502" type="curve" smooth="yes"/>
      <point x="778" y="307"/>
      <point x="700" y="134"/>
      <point x="512" y="134" type="curve" smooth="yes"/>
      <point x="362" y="134"/>
      <point x="280" y="187"/>
      <point x="253" y="333" type="curve"/>
    </contour>
  </outline>
</glyph>
<glyph name="uni0256" format="2">
  <advance width="1129"/>
  <unicode hex="0256"/>
  <outline>
    <contour>
      <point x="979" y="1447" type="line"/>
      <point x="806" y="1447" type="line"/>
      <point x="806" y="896" type="line"/>
      <point x="742" y="982"/>
      <point x="652" y="1057"/>
      <point x="502" y="1057" type="curve" smooth="yes"/>
      <point x="247" y="1057"/>
      <point x="71" y="840"/>
      <point x="71" y="529" type="curve" smooth="yes"/>
      <point x="71" y="229"/>
      <point x="225" y="-19"/>
      <point x="491" y="-19" type="curve" smooth="yes"/>
      <point x="619" y="-19"/>
      <point x="731" y="22"/>
      <point x="802" y="139" type="curve"/>
      <point x="806" y="139" type="line"/>
      <point x="806" y="0" type="line" smooth="yes"/>
      <point x="806" y="-289"/>
      <point x="887" y="-443"/>
      <point x="1127" y="-443" type="curve" smooth="yes"/>
      <point x="1319" y="-443"/>
      <point x="1438" y="-321"/>
      <point x="1464" y="-150" type="curve"/>
      <point x="1288" y="-150" type="line"/>
      <point x="1268" y="-261"/>
      <point x="1201" y="-296"/>
      <point x="1120" y="-296" type="curve" smooth="yes"/>
      <point x="1020" y="-296"/>
      <point x="979" y="-199"/>
      <point x="979" y="-23" type="curve" smooth="yes"/>
    </contour>
    <contour>
      <point x="540" y="904" type="curve" smooth="yes"/>
      <point x="697" y="904"/>
      <point x="806" y="754"/>
      <point x="806" y="529" type="curve" smooth="yes"/>
      <point x="806" y="326"/>
      <point x="750" y="131"/>
      <point x="540" y="131" type="curve" smooth="yes"/>
      <point x="364" y="131"/>
      <point x="255" y="315"/>
      <point x="255" y="529" type="curve" smooth="yes"/>
      <point x="255" y="720"/>
      <point x="360" y="904"/>
    </contour>
  </outline>
</glyph>
<glyph name="uni025A" format="2">
  <advance width="1463"/>
  <unicode hex="025A"/>
  <outline>
    <contour>
      <point x="85" y="373" type="line"/>
      <point x="125" y="140"/>
      <point x="293" y="-19"/>
      <point x="540" y="-19" type="curve" smooth="yes"/>
      <point x="832" y="-19"/>
      <point x="1016" y="228"/>
      <point x="1016" y="502" type="curve" smooth="yes"/>
      <point x="1016" y="613"/>
      <point x="991" y="717"/>
      <point x="944" y="805" type="curve"/>
      <point x="1094" y="899" type="line"/>
      <point x="1094" y="821" type="line" smooth="yes"/>
      <point x="1094" y="735"/>
      <point x="1159" y="645"/>
      <point x="1263" y="645" type="curve" smooth="yes"/>
      <point x="1391" y="645"/>
      <point x="1455" y="760"/>
      <point x="1463" y="847" type="curve"/>
      <point x="1378" y="884" type="line"/>
      <point x="1357" y="794"/>
      <point x="1333" y="736"/>
      <point x="1263" y="736" type="curve" smooth="yes"/>
      <point x="1196" y="736"/>
      <point x="1185" y="803"/>
      <point x="1185" y="858" type="curve" smooth="yes"/>
      <point x="1185" y="956" type="line"/>
      <point x="1191" y="960" type="line"/>
      <point x="1185" y="970" type="line"/>
      <point x="1185" y="1014" type="line"/>
      <point x="1145" y="1036" type="line"/>
      <point x="1144" y="1038" type="line"/>
      <point x="895" y="882" type="line"/>
      <point x="812" y="989"/>
      <point x="690" y="1057"/>
      <point x="540" y="1057" type="curve" smooth="yes"/>
      <point x="322" y="1057"/>
      <point x="131" y="929"/>
      <point x="97" y="701" type="curve"/>
      <point x="255" y="701" type="line"/>
      <point x="300" y="836"/>
      <point x="394" y="907"/>
      <point x="540" y="907" type="curve" smooth="yes"/>
      <point x="621" y="907"/>
      <point x="691" y="859"/>
      <point x="743" y="787" type="curve"/>
    </contour>
    <contour>
      <point x="832" y="502" type="curve" smooth="yes"/>
      <point x="832" y="292"/>
      <point x="720" y="134"/>
      <point x="540" y="134" type="curve" smooth="yes"/>
      <point x="395" y="134"/>
      <point x="289" y="226"/>
      <point x="253" y="372" type="curve"/>
      <point x="788" y="707" type="line"/>
      <point x="816" y="644"/>
      <point x="832" y="572"/>
    </contour>
  </outline>
  <guideline angle="0" x="0" y="375"/>
  <guideline angle="0" x="0" y="1038"/>
</glyph>
<glyph name="uni0260" format="2">
  <advance width="1460"/>
  <unicode hex="0260"/>
  <outline>
    <contour>
      <point x="975" y="0" type="curve"/>
      <point x="975" y="927" type="line" smooth="yes"/>
      <point x="975" y="1103"/>
      <point x="1016" y="1200"/>
      <point x="1116" y="1200" type="curve" smooth="yes"/>
      <point x="1197" y="1200"/>
      <point x="1264" y="1165"/>
      <point x="1284" y="1054" type="curve"/>
      <point x="1460" y="1054" type="line"/>
      <point x="1434" y="1225"/>
      <point x="1315" y="1347"/>
      <point x="1123" y="1347" type="curve" smooth="yes"/>
      <point x="883" y="1347"/>
      <point x="802" y="1193"/>
      <point x="802" y="904" type="curve"/>
      <point x="727" y="997"/>
      <point x="626" y="1057"/>
      <point x="502" y="1057" type="curve" smooth="yes"/>
      <point x="202" y="1057"/>
      <point x="67" y="814"/>
      <point x="67" y="532" type="curve" smooth="yes"/>
      <point x="67" y="259"/>
      <point x="206" y="-19"/>
      <point x="506" y="-19" type="curve" smooth="yes"/>
      <point x="630" y="-19"/>
      <point x="720" y="30"/>
      <point x="799" y="139" type="curve"/>
      <point x="802" y="139" type="line"/>
      <point x="802" y="-23" type="line" smooth="yes"/>
      <point x="802" y="-169"/>
      <point x="679" y="-296"/>
      <point x="532" y="-296" type="curve" smooth="yes"/>
      <point x="405" y="-296"/>
      <point x="337" y="-266"/>
      <point x="277" y="-120" type="curve"/>
      <point x="105" y="-120" type="line"/>
      <point x="172" y="-356"/>
      <point x="337" y="-443"/>
      <point x="536" y="-443" type="curve" smooth="yes"/>
      <point x="754" y="-443"/>
      <point x="975" y="-289"/>
    </contour>
    <contour>
      <point x="536" y="904" type="curve" smooth="yes"/>
      <point x="750" y="904"/>
      <point x="802" y="731"/>
      <point x="802" y="536" type="curve" smooth="yes"/>
      <point x="802" y="345"/>
      <point x="761" y="131"/>
      <point x="532" y="131" type="curve" smooth="yes"/>
      <point x="319" y="131"/>
      <point x="251" y="341"/>
      <point x="251" y="532" type="curve" smooth="yes"/>
      <point x="251" y="705"/>
      <point x="326" y="904"/>
    </contour>
  </outline>
</glyph>
<glyph name="uni0264" format="2">
  <advance width="1153"/>
  <unicode hex="0264"/>
  <outline>
    <contour>
      <point x="578" y="731" type="line"/>
      <point x="497" y="924" type="line" smooth="yes"/>
      <point x="461" y="1010"/>
      <point x="393" y="1057"/>
      <point x="273" y="1057" type="curve" smooth="yes"/>
      <point x="123" y="1057"/>
      <point x="52" y="962"/>
      <point x="30" y="891" type="curve"/>
      <point x="88" y="891" type="line"/>
      <point x="121" y="947"/>
      <point x="163" y="968"/>
      <point x="213" y="968" type="curve"/>
      <point x="263" y="968"/>
      <point x="305" y="947"/>
      <point x="320" y="911" type="curve"/>
      <point x="488" y="516" type="line"/>
      <point x="439" y="400" type="line" smooth="yes"/>
      <point x="401" y="310"/>
      <point x="375" y="208"/>
      <point x="375" y="155" type="curve" smooth="yes"/>
      <point x="375" y="45"/>
      <point x="448" y="-32"/>
      <point x="578" y="-32" type="curve" smooth="yes"/>
      <point x="708" y="-32"/>
      <point x="795" y="45"/>
      <point x="795" y="155" type="curve" smooth="yes"/>
      <point x="795" y="208"/>
      <point x="755" y="309"/>
      <point x="717" y="400" type="curve" smooth="yes"/>
      <point x="668" y="516" type="line"/>
      <point x="833" y="911" type="line" smooth="yes"/>
      <point x="848" y="947"/>
      <point x="890" y="973"/>
      <point x="940" y="973" type="curve" smooth="yes"/>
      <point x="990" y="973"/>
      <point x="1032" y="947"/>
      <point x="1065" y="891" type="curve"/>
      <point x="1123" y="891" type="line"/>
      <point x="1101" y="962"/>
      <point x="1030" y="1057"/>
      <point x="880" y="1057" type="curve" smooth="yes"/>
      <point x="760" y="1057"/>
      <point x="691" y="1010"/>
      <point x="656" y="924" type="curve" smooth="yes"/>
    </contour>
    <contour>
      <point x="578" y="295" type="curve"/>
      <point x="601" y="242"/>
      <point x="623" y="199"/>
      <point x="623" y="163" type="curve" smooth="yes"/>
      <point x="623" y="131"/>
      <point x="605" y="108"/>
      <point x="578" y="108" type="curve" smooth="yes"/>
      <point x="551" y="108"/>
      <point x="533" y="131"/>
      <point x="533" y="163" type="curve" smooth="yes"/>
      <point x="533" y="199"/>
      <point x="555" y="242"/>
    </contour>
  </outline>
  <guideline angle="0" x="0" y="1057"/>
  <guideline angle="67.2176" x="452" y="-0"/>
  <guideline angle="112.782" x="884" y="-0"/>
</glyph>
<glyph name="uni0266" format="2">
  <advance width="1090"/>
  <unicode hex="0266"/>
  <outline>
    <contour>
      <point x="126" y="1042" type="curve"/>
      <point x="126" y="0" type="line"/>
      <point x="303" y="0" type="line"/>
      <point x="303" y="660" type="line" smooth="yes"/>
      <point x="303" y="799"/>
      <point x="456" y="904"/>
      <point x="588" y="904" type="curve" smooth="yes"/>
      <point x="696" y="904"/>
      <point x="794" y="866"/>
      <point x="794" y="731" type="curve" smooth="yes"/>
      <point x="794" y="0" type="line"/>
      <point x="970" y="0" type="line"/>
      <point x="970" y="784" type="line" smooth="yes"/>
      <point x="970" y="956"/>
      <point x="839" y="1057"/>
      <point x="636" y="1057" type="curve" smooth="yes"/>
      <point x="501" y="1057"/>
      <point x="396" y="1020"/>
      <point x="303" y="904" type="curve"/>
      <point x="303" y="1065" type="line" smooth="yes"/>
      <point x="303" y="1241"/>
      <point x="340" y="1338"/>
      <point x="440" y="1338" type="curve" smooth="yes"/>
      <point x="521" y="1338"/>
      <point x="588" y="1303"/>
      <point x="608" y="1192" type="curve"/>
      <point x="784" y="1192" type="line"/>
      <point x="758" y="1363"/>
      <point x="639" y="1485"/>
      <point x="447" y="1485" type="curve" smooth="yes"/>
      <point x="207" y="1485"/>
      <point x="126" y="1331"/>
    </contour>
  </outline>
</glyph>
<glyph name="uni0268" format="2">
  <advance width="431"/>
  <unicode hex="0268"/>
  <outline>
    <contour>
      <point x="127" y="1447" type="line"/>
      <point x="127" y="1249" type="line"/>
      <point x="304" y="1249" type="line"/>
      <point x="304" y="1447" type="line"/>
    </contour>
    <contour>
      <point x="127" y="1039" type="line"/>
      <point x="127" y="0" type="line"/>
      <point x="304" y="0" type="line"/>
      <point x="304" y="1039" type="line"/>
    </contour>
    <contour>
      <point x="0" y="680" type="line"/>
      <point x="0" y="530" type="line"/>
      <point x="431" y="530" type="line"/>
      <point x="431" y="680" type="line"/>
    </contour>
  </outline>
</glyph>
<glyph name="uni0270" format="2">
  <advance width="1661"/>
  <unicode hex="0270"/>
  <outline>
    <contour>
      <point x="1541" y="1039" type="line"/>
      <point x="1364" y="1039" type="line"/>
      <point x="1364" y="364" type="line" smooth="yes"/>
      <point x="1364" y="252"/>
      <point x="1222" y="135"/>
      <point x="1102" y="135" type="curve" smooth="yes"/>
      <point x="1027" y="135"/>
      <point x="922" y="184"/>
      <point x="922" y="315" type="curve" smooth="yes"/>
      <point x="922" y="1039" type="line"/>
      <point x="746" y="1039" type="line"/>
      <point x="746" y="364" type="line" smooth="yes"/>
      <point x="746" y="252"/>
      <point x="603" y="135"/>
      <point x="483" y="135" type="curve" smooth="yes"/>
      <point x="404" y="135"/>
      <point x="299" y="184"/>
      <point x="299" y="315" type="curve" smooth="yes"/>
      <point x="299" y="1039" type="line"/>
      <point x="127" y="1039" type="line"/>
      <point x="127" y="255" type="line" smooth="yes"/>
      <point x="127" y="90"/>
      <point x="266" y="-22"/>
      <point x="461" y="-22" type="curve" smooth="yes"/>
      <point x="581" y="-22"/>
      <point x="708" y="34"/>
      <point x="779" y="139" type="curve"/>
      <point x="843" y="34"/>
      <point x="948" y="-18"/>
      <point x="1061" y="-18" type="curve" smooth="yes"/>
      <point x="1177" y="-18"/>
      <point x="1293" y="34"/>
      <point x="1364" y="139" type="curve"/>
      <point x="1364" y="-420" type="line"/>
      <point x="1541" y="-420" type="line"/>
    </contour>
  </outline>
</glyph>
<glyph name="uni0272" format="2">
  <advance width="1094"/>
  <unicode hex="0272"/>
  <outline>
    <contour>
      <point x="127" y="1039" type="line"/>
      <point x="127" y="-23" type="line" smooth="yes"/>
      <point x="127" y="-199"/>
      <point x="91" y="-296"/>
      <point x="-9" y="-296" type="curve" smooth="yes"/>
      <point x="-90" y="-296"/>
      <point x="-157" y="-261"/>
      <point x="-177" y="-150" type="curve"/>
      <point x="-353" y="-150" type="line"/>
      <point x="-327" y="-321"/>
      <point x="-208" y="-443"/>
      <point x="-16" y="-443" type="curve" smooth="yes"/>
      <point x="224" y="-443"/>
      <point x="304" y="-289"/>
      <point x="304" y="0" type="curve" smooth="yes"/>
      <point x="304" y="671" type="line"/>
      <point x="334" y="799"/>
      <point x="480" y="904"/>
      <point x="611" y="904" type="curve" smooth="yes"/>
      <point x="690" y="904"/>
      <point x="791" y="825"/>
      <point x="791" y="716" type="curve" smooth="yes"/>
      <point x="791" y="0" type="line"/>
      <point x="967" y="0" type="line"/>
      <point x="967" y="776" type="line" smooth="yes"/>
      <point x="967" y="945"/>
      <point x="825" y="1057"/>
      <point x="626" y="1057" type="curve" smooth="yes"/>
      <point x="506" y="1057"/>
      <point x="375" y="1009"/>
      <point x="304" y="900" type="curve"/>
      <point x="304" y="1039" type="line"/>
    </contour>
  </outline>
</glyph>
<glyph name="uni0277" format="2">
  <advance width="1488"/>
  <unicode hex="0277"/>
  <outline>
    <contour>
      <point x="763" y="1057" type="curve" smooth="yes"/>
      <point x="373" y="1057"/>
      <point x="66" y="839"/>
      <point x="66" y="489" type="curve" smooth="yes"/>
      <point x="66" y="159"/>
      <point x="246" y="-27"/>
      <point x="453" y="-27" type="curve" smooth="yes"/>
      <point x="563" y="-27"/>
      <point x="683" y="14"/>
      <point x="763" y="114" type="curve"/>
      <point x="843" y="14"/>
      <point x="943" y="-17"/>
      <point x="1053" y="-17" type="curve" smooth="yes"/>
      <point x="1260" y="-17"/>
      <point x="1422" y="149"/>
      <point x="1422" y="479" type="curve" smooth="yes"/>
      <point x="1422" y="829"/>
      <point x="1153" y="1057"/>
    </contour>
    <contour>
      <point x="1238" y="483" type="curve" smooth="yes"/>
      <point x="1238" y="243"/>
      <point x="1159" y="126"/>
      <point x="1053" y="126" type="curve" smooth="yes"/>
      <point x="903" y="126"/>
      <point x="848" y="268"/>
      <point x="848" y="418" type="curve" smooth="yes"/>
      <point x="848" y="513" type="line"/>
      <point x="678" y="513" type="line"/>
      <point x="678" y="418" type="line" smooth="yes"/>
      <point x="678" y="268"/>
      <point x="613" y="126"/>
      <point x="463" y="126" type="curve" smooth="yes"/>
      <point x="357" y="126"/>
      <point x="250" y="249"/>
      <point x="250" y="489" type="curve" smooth="yes"/>
      <point x="250" y="779"/>
      <point x="493" y="907"/>
      <point x="763" y="907" type="curve" smooth="yes"/>
      <point x="1033" y="907"/>
      <point x="1238" y="773"/>
    </contour>
  </outline>
</glyph>
<glyph name="uni0281" format="2">
  <advance width="1039"/>
  <unicode hex="0281"/>
  <outline>
    <contour>
      <point x="307" y="453" type="line"/>
      <point x="578" y="453" type="line"/>
      <point x="671" y="453"/>
      <point x="742" y="396"/>
      <point x="742" y="295" type="curve" smooth="yes"/>
      <point x="742" y="198"/>
      <point x="658" y="167"/>
      <point x="578" y="167" type="curve" smooth="yes"/>
      <point x="307" y="167" type="line"/>
    </contour>
    <contour>
      <point x="127" y="0" type="line"/>
      <point x="665" y="0" type="line"/>
      <point x="826" y="0"/>
      <point x="934" y="143"/>
      <point x="934" y="276" type="curve" smooth="yes"/>
      <point x="934" y="404"/>
      <point x="866" y="517"/>
      <point x="771" y="537" type="curve"/>
      <point x="885" y="563"/>
      <point x="912" y="653"/>
      <point x="912" y="750" type="curve"/>
      <point x="912" y="905" type="line" smooth="yes"/>
      <point x="912" y="970"/>
      <point x="934" y="1014"/>
      <point x="961" y="1040" type="curve"/>
      <point x="763" y="1040" type="line"/>
      <point x="737" y="1014"/>
      <point x="731" y="945"/>
      <point x="731" y="910" type="curve"/>
      <point x="731" y="767" type="line" smooth="yes"/>
      <point x="731" y="697"/>
      <point x="686" y="622"/>
      <point x="580" y="622" type="curve" smooth="yes"/>
      <point x="307" y="622" type="line"/>
      <point x="307" y="1040" type="line"/>
      <point x="127" y="1040" type="line"/>
    </contour>
  </outline>
</glyph>
<glyph name="uni0283" format="2">
  <advance width="790"/>
  <unicode hex="0283"/>
  <outline>
    <contour>
      <point x="572" y="0" type="curve" smooth="yes"/>
      <point x="572" y="180"/>
      <point x="528" y="356"/>
      <point x="484" y="532" type="curve" smooth="yes"/>
      <point x="440" y="709"/>
      <point x="395" y="885"/>
      <point x="395" y="1065" type="curve" smooth="yes"/>
      <point x="395" y="1241"/>
      <point x="431" y="1338"/>
      <point x="531" y="1338" type="curve" smooth="yes"/>
      <point x="612" y="1338"/>
      <point x="679" y="1303"/>
      <point x="699" y="1192" type="curve"/>
      <point x="875" y="1192" type="line"/>
      <point x="849" y="1363"/>
      <point x="730" y="1485"/>
      <point x="538" y="1485" type="curve" smooth="yes"/>
      <point x="298" y="1485"/>
      <point x="218" y="1331"/>
      <point x="218" y="1042" type="curve" smooth="yes"/>
      <point x="218" y="862"/>
      <point x="263" y="685"/>
      <point x="307" y="509" type="curve" smooth="yes"/>
      <point x="351" y="333"/>
      <point x="395" y="157"/>
      <point x="395" y="-23" type="curve" smooth="yes"/>
      <point x="395" y="-199"/>
      <point x="359" y="-296"/>
      <point x="259" y="-296" type="curve" smooth="yes"/>
      <point x="178" y="-296"/>
      <point x="111" y="-261"/>
      <point x="91" y="-150" type="curve"/>
      <point x="-85" y="-150" type="line"/>
      <point x="-59" y="-321"/>
      <point x="60" y="-443"/>
      <point x="252" y="-443" type="curve" smooth="yes"/>
      <point x="492" y="-443"/>
      <point x="572" y="-289"/>
    </contour>
  </outline>
</glyph>
<glyph name="uni0288" format="2">
  <advance width="566"/>
  <unicode hex="0288"/>
  <outline>
    <contour>
      <point x="187" y="1342" type="line"/>
      <point x="187" y="1039" type="line"/>
      <point x="26" y="1039" type="line"/>
      <point x="26" y="889" type="line"/>
      <point x="187" y="889" type="line"/>
      <point x="187" y="-237" type="line" smooth="yes"/>
      <point x="187" y="-387"/>
      <point x="289" y="-443"/>
      <point x="405" y="-443" type="curve" smooth="yes"/>
      <point x="457" y="-443"/>
      <point x="506" y="-435"/>
      <point x="544" y="-428" type="curve"/>
      <point x="544" y="-278" type="line"/>
      <point x="517" y="-289"/>
      <point x="502" y="-289"/>
      <point x="484" y="-289" type="curve" smooth="yes"/>
      <point x="409" y="-289"/>
      <point x="360" y="-252"/>
      <point x="360" y="-162" type="curve" smooth="yes"/>
      <point x="360" y="889" type="line"/>
      <point x="517" y="889" type="line"/>
      <point x="517" y="1039" type="line"/>
      <point x="360" y="1039" type="line"/>
      <point x="360" y="1342" type="line"/>
    </contour>
  </outline>
</glyph>
<glyph name="uni028D" format="2">
  <advance width="1424"/>
  <unicode hex="028D"/>
  <outline>
    <contour>
      <point x="1413" y="-1" type="line"/>
      <point x="1113" y="1038" type="line"/>
      <point x="937" y="1038" type="line"/>
      <point x="712" y="179" type="line"/>
      <point x="487" y="1038" type="line"/>
      <point x="311" y="1038" type="line"/>
      <point x="11" y="-1" type="line"/>
      <point x="191" y="-1" type="line"/>
      <point x="401" y="779" type="line"/>
      <point x="615" y="-1" type="line"/>
      <point x="806" y="-1" type="line"/>
      <point x="1020" y="779" type="line"/>
      <point x="1230" y="-1" type="line"/>
    </contour>
  </outline>
</glyph>
<glyph name="uni0290" format="2">
  <advance width="1059"/>
  <unicode hex="0290"/>
  <outline>
    <contour>
      <point x="101" y="1039" type="line"/>
      <point x="101" y="885" type="line"/>
      <point x="667" y="885" type="line"/>
      <point x="667" y="881" type="line"/>
      <point x="64" y="154" type="line"/>
      <point x="64" y="0" type="line"/>
      <point x="922" y="0" type="line"/>
      <point x="922" y="154" type="line"/>
      <point x="296" y="154" type="line"/>
      <point x="296" y="157" type="line"/>
      <point x="904" y="885" type="line"/>
      <point x="904" y="1039" type="line"/>
    </contour>
    <contour>
      <point x="745" y="133" type="line"/>
      <point x="745" y="0" type="line" smooth="yes"/>
      <point x="745" y="-289"/>
      <point x="826" y="-443"/>
      <point x="1066" y="-443" type="curve" smooth="yes"/>
      <point x="1258" y="-443"/>
      <point x="1377" y="-321"/>
      <point x="1403" y="-150" type="curve"/>
      <point x="1227" y="-150" type="line"/>
      <point x="1207" y="-261"/>
      <point x="1140" y="-296"/>
      <point x="1059" y="-296" type="curve" smooth="yes"/>
      <point x="959" y="-296"/>
      <point x="922" y="-199"/>
      <point x="922" y="-23" type="curve" smooth="yes"/>
      <point x="922" y="133" type="line"/>
    </contour>
  </outline>
</glyph>
<glyph name="uni0291" format="2">
  <advance width="1160"/>
  <unicode hex="0291"/>
  <outline>
    <contour>
      <point x="700" y="0" type="line"/>
      <point x="963" y="0"/>
      <point x="1120" y="122"/>
      <point x="1120" y="290" type="curve" smooth="yes"/>
      <point x="1120" y="410"/>
      <point x="1023" y="490"/>
      <point x="873" y="490" type="curve" smooth="yes"/>
      <point x="632" y="490"/>
      <point x="553" y="160"/>
      <point x="553" y="-180" type="curve"/>
      <point x="673" y="-180" type="line"/>
      <point x="673" y="8"/>
      <point x="706" y="370"/>
      <point x="873" y="370" type="curve" smooth="yes"/>
      <point x="925" y="370"/>
      <point x="977" y="342"/>
      <point x="977" y="290" type="curve" smooth="yes"/>
      <point x="977" y="197"/>
      <point x="861" y="154"/>
      <point x="700" y="154" type="curve"/>
      <point x="296" y="154" type="line"/>
      <point x="296" y="157" type="line"/>
      <point x="904" y="885" type="line"/>
      <point x="904" y="1039" type="line"/>
      <point x="101" y="1039" type="line"/>
      <point x="101" y="885" type="line"/>
      <point x="667" y="885" type="line"/>
      <point x="667" y="881" type="line"/>
      <point x="64" y="154" type="line"/>
      <point x="64" y="0" type="line"/>
    </contour>
  </outline>
</glyph>
<glyph name="uni0293" format="2">
  <advance width="993"/>
  <unicode hex="0293"/>
  <outline>
    <contour>
      <point x="779" y="112" type="curve" smooth="yes"/>
      <point x="779" y="-163"/>
      <point x="679" y="-323"/>
      <point x="487" y="-323" type="curve" smooth="yes"/>
      <point x="331" y="-323"/>
      <point x="203" y="-243"/>
      <point x="203" y="-120" type="curve" smooth="yes"/>
      <point x="203" y="-40"/>
      <point x="264" y="0"/>
      <point x="340" y="0" type="curve" smooth="yes"/>
      <point x="513" y="0"/>
      <point x="654" y="-217"/>
      <point x="724" y="-505" type="curve" smooth="yes"/>
      <point x="732" y="-538"/>
      <point x="755" y="-550"/>
      <point x="782" y="-550" type="curve" smooth="yes"/>
      <point x="815" y="-550"/>
      <point x="842" y="-527"/>
      <point x="842" y="-495" type="curve" smooth="yes"/>
      <point x="842" y="-490"/>
      <point x="841" y="-484"/>
      <point x="840" y="-479" type="curve" smooth="yes"/>
      <point x="777" y="-188"/>
      <point x="601" y="120"/>
      <point x="340" y="120" type="curve" smooth="yes"/>
      <point x="210" y="120"/>
      <point x="83" y="40"/>
      <point x="83" y="-120" type="curve" smooth="yes"/>
      <point x="83" y="-285"/>
      <point x="232" y="-443"/>
      <point x="487" y="-443" type="curve" smooth="yes"/>
      <point x="826" y="-443"/>
      <point x="963" y="-185"/>
      <point x="963" y="112" type="curve"/>
      <point x="963" y="356"/>
      <point x="837" y="555"/>
      <point x="642" y="614" type="curve"/>
      <point x="867" y="885" type="line"/>
      <point x="867" y="1039" type="line"/>
      <point x="64" y="1039" type="line"/>
      <point x="64" y="885" type="line"/>
      <point x="630" y="885" type="line"/>
      <point x="630" y="881" type="line"/>
      <point x="267" y="445" type="line"/>
      <point x="311" y="411" type="line"/>
      <point x="355" y="460"/>
      <point x="421" y="480"/>
      <point x="513" y="480" type="curve" smooth="yes"/>
      <point x="701" y="480"/>
      <point x="779" y="307"/>
    </contour>
  </outline>
</glyph>
<glyph name="uni0294" format="2">
  <advance width="1124"/>
  <unicode hex="0294"/>
  <outline>
    <contour>
      <point x="662" y="0" type="line"/>
      <point x="662" y="57" type="line" smooth="yes"/>
      <point x="662" y="536"/>
      <point x="1042" y="612"/>
      <point x="1042" y="1018" type="curve" smooth="yes"/>
      <point x="1042" y="1253"/>
      <point x="912" y="1485"/>
      <point x="569" y="1485" type="curve" smooth="yes"/>
      <point x="262" y="1485"/>
      <point x="82" y="1277"/>
      <point x="82" y="966" type="curve"/>
      <point x="292" y="966" type="line"/>
      <point x="292" y="1182"/>
      <point x="386" y="1319"/>
      <point x="569" y="1319" type="curve" smooth="yes"/>
      <point x="753" y="1319"/>
      <point x="833" y="1197"/>
      <point x="832" y="1026" type="curve" smooth="yes"/>
      <point x="830" y="677"/>
      <point x="452" y="539"/>
      <point x="452" y="141" type="curve" smooth="yes"/>
      <point x="452" y="0" type="line"/>
    </contour>
  </outline>
</glyph>
<glyph name="uni0296" format="2">
  <advance width="1124"/>
  <unicode hex="0296"/>
  <outline>
    <contour>
      <point x="672" y="1440" type="line"/>
      <point x="672" y="1383" type="line" smooth="yes"/>
      <point x="672" y="904"/>
      <point x="1052" y="828"/>
      <point x="1052" y="422" type="curve" smooth="yes"/>
      <point x="1052" y="187"/>
      <point x="922" y="-45"/>
      <point x="579" y="-45" type="curve" smooth="yes"/>
      <point x="272" y="-45"/>
      <point x="92" y="163"/>
      <point x="92" y="474" type="curve"/>
      <point x="302" y="474" type="line"/>
      <point x="302" y="258"/>
      <point x="396" y="121"/>
      <point x="579" y="121" type="curve" smooth="yes"/>
      <point x="763" y="121"/>
      <point x="843" y="243"/>
      <point x="842" y="414" type="curve" smooth="yes"/>
      <point x="840" y="763"/>
      <point x="462" y="901"/>
      <point x="462" y="1299" type="curve" smooth="yes"/>
      <point x="462" y="1440" type="line"/>
    </contour>
  </outline>
</glyph>
<glyph name="uni0297" format="2">
  <advance width="1042"/>
  <unicode hex="0297"/>
  <outline>
    <contour>
      <point x="75" y="112" type="line"/>
      <point x="75" y="-154"/>
      <point x="217" y="-443"/>
      <point x="521" y="-443" type="curve" smooth="yes"/>
      <point x="784" y="-443"/>
      <point x="945" y="-291"/>
      <point x="967" y="-44" type="curve"/>
      <point x="784" y="-44" type="line"/>
      <point x="761" y="-194"/>
      <point x="682" y="-293"/>
      <point x="521" y="-293" type="curve" smooth="yes"/>
      <point x="330" y="-293"/>
      <point x="259" y="-90"/>
      <point x="259" y="112" type="curve" smooth="yes"/>
      <point x="259" y="536" type="line"/>
      <point x="259" y="731"/>
      <point x="337" y="904"/>
      <point x="525" y="904" type="curve" smooth="yes"/>
      <point x="675" y="904"/>
      <point x="757" y="851"/>
      <point x="784" y="705" type="curve"/>
      <point x="967" y="705" type="line"/>
      <point x="934" y="904"/>
      <point x="784" y="1057"/>
      <point x="521" y="1057" type="curve" smooth="yes"/>
      <point x="255" y="1057"/>
      <point x="75" y="829"/>
      <point x="75" y="536" type="curve" smooth="yes"/>
    </contour>
  </outline>
</glyph>
<glyph name="uni029F" format="2">
  <advance width="981"/>
  <unicode hex="029F"/>
  <outline>
    <contour>
      <point x="146" y="1039" type="line"/>
      <point x="146" y="0" type="line"/>
      <point x="966" y="0" type="line"/>
      <point x="966" y="167" type="line"/>
      <point x="341" y="167" type="line"/>
      <point x="341" y="1039" type="line"/>
    </contour>
  </outline>
</glyph>
<glyph name="uni02C7" format="2">
  <advance width="686"/>
  <unicode hex="02C7"/>
  <outline>
    <contour>
      <point x="446" y="1120" type="line"/>
      <point x="656" y="1473" type="line"/>
      <point x="622" y="1473" type="line"/>
      <point x="344" y="1248" type="line"/>
      <point x="67" y="1473" type="line"/>
      <point x="29" y="1473" type="line"/>
      <point x="243" y="1120" type="line"/>
    </contour>
  </outline>
</glyph>
<glyph name="uni02CC" format="2">
  <advance width="456"/>
  <unicode hex="02CC"/>
  <outline>
    <contour>
      <point x="152" y="-551" type="line"/>
      <point x="304" y="-551" type="line"/>
      <point x="304" y="152" type="line"/>
      <point x="152" y="152" type="line"/>
    </contour>
  </outline>
</glyph>
<glyph name="tilde" format="2">
  <advance width="1050"/>
  <unicode hex="02DC"/>
  <outline>
    <contour>
      <point x="817" y="1440" type="line"/>
      <point x="817" y="1346"/>
      <point x="754" y="1297"/>
      <point x="705" y="1297" type="curve" smooth="yes"/>
      <point x="592" y="1297"/>
      <point x="551" y="1485"/>
      <point x="364" y="1485" type="curve" smooth="yes"/>
      <point x="199" y="1485"/>
      <point x="94" y="1346"/>
      <point x="94" y="1189" type="curve"/>
      <point x="232" y="1189" type="line"/>
      <point x="232" y="1282"/>
      <point x="296" y="1331"/>
      <point x="345" y="1331" type="curve" smooth="yes"/>
      <point x="457" y="1331"/>
      <point x="514" y="1144"/>
      <point x="701" y="1144" type="curve" smooth="yes"/>
      <point x="829" y="1144"/>
      <point x="956" y="1222"/>
      <point x="956" y="1440" type="curve"/>
    </contour>
  </outline>
</glyph>
<glyph name="uni02DD" format="2">
  <advance width="686"/>
  <unicode hex="02DD"/>
  <outline>
    <contour>
      <point x="221" y="1111" type="line"/>
      <point x="334" y="1065" type="line"/>
      <point x="519" y="1524" type="line"/>
      <point x="406" y="1570" type="line"/>
    </contour>
    <contour>
      <point x="521" y="1111" type="line"/>
      <point x="634" y="1065" type="line"/>
      <point x="819" y="1524" type="line"/>
      <point x="706" y="1570" type="line"/>
    </contour>
  </outline>
</glyph>
<glyph name="uni0304" format="2">
  <unicode hex="0304"/>
  <outline>
    <contour>
      <point x="-845" y="1364" type="line"/>
      <point x="-845" y="1231" type="line"/>
      <point x="-155" y="1231" type="line"/>
      <point x="-155" y="1364" type="line"/>
    </contour>
  </outline>
</glyph>
<glyph name="uni0319" format="2">
  <unicode hex="0319"/>
  <outline>
    <contour>
      <point x="-608" y="-133" type="line"/>
      <point x="-722" y="-133" type="line"/>
      <point x="-722" y="-513" type="line"/>
      <point x="-608" y="-513" type="line"/>
      <point x="-608" y="-380" type="line"/>
      <point x="-380" y="-380" type="line"/>
      <point x="-380" y="-266" type="line"/>
      <point x="-608" y="-266" type="line"/>
    </contour>
  </outline>
</glyph>
<glyph name="uni031A" format="2">
  <advance width="570"/>
  <unicode hex="031A"/>
  <outline>
    <contour>
      <point x="342" y="1003" type="line"/>
      <point x="456" y="1003" type="line"/>
      <point x="456" y="1459" type="line"/>
      <point x="57" y="1459" type="line"/>
      <point x="57" y="1345" type="line"/>
      <point x="342" y="1345" type="line"/>
    </contour>
  </outline>
</glyph>
<glyph name="uni031D" format="2">
  <unicode hex="031D"/>
  <outline>
    <contour>
      <point x="-342" y="-494" type="line"/>
      <point x="-342" y="-380" type="line"/>
      <point x="-475" y="-380" type="line"/>
      <point x="-475" y="-152" type="line"/>
      <point x="-589" y="-152" type="line"/>
      <point x="-589" y="-380" type="line"/>
      <point x="-722" y="-380" type="line"/>
      <point x="-722" y="-494" type="line"/>
    </contour>
  </outline>
</glyph>
<glyph name="uni0320" format="2">
  <unicode hex="0320"/>
  <outline>
    <contour>
      <point x="-342" y="-266" type="line"/>
      <point x="-342" y="-152" type="line"/>
      <point x="-722" y="-152" type="line"/>
      <point x="-722" y="-266" type="line"/>
    </contour>
  </outline>
</glyph>
<glyph name="uni0323" format="2">
  <advance width="2"/>
  <unicode hex="0323"/>
  <outline>
    <contour>
      <point x="-648" y="-266" type="curve" smooth="yes"/>
      <point x="-648" y="-323"/>
      <point x="-591" y="-380"/>
      <point x="-534" y="-380" type="curve" smooth="yes"/>
      <point x="-477" y="-380"/>
      <point x="-420" y="-323"/>
      <point x="-420" y="-266" type="curve" smooth="yes"/>
      <point x="-420" y="-209"/>
      <point x="-477" y="-152"/>
      <point x="-534" y="-152" type="curve" smooth="yes"/>
      <point x="-591" y="-152"/>
      <point x="-648" y="-209"/>
    </contour>
  </outline>
</glyph>
<glyph name="uni032A" format="2">
  <unicode hex="032A"/>
  <outline>
    <contour>
      <point x="-342" y="-532" type="line"/>
      <point x="-228" y="-532" type="line"/>
      <point x="-228" y="-152" type="line"/>
      <point x="-798" y="-152" type="line"/>
      <point x="-798" y="-532" type="line"/>
      <point x="-684" y="-532" type="line"/>
      <point x="-684" y="-266" type="line"/>
      <point x="-342" y="-266" type="line"/>
    </contour>
  </outline>
</glyph>
<glyph name="uni032B" format="2">
  <unicode hex="032B"/>
  <outline>
    <contour>
      <point x="-247" y="-152" type="line"/>
      <point x="-270" y="-209"/>
      <point x="-304" y="-266"/>
      <point x="-380" y="-266" type="curve" smooth="yes"/>
      <point x="-437" y="-266"/>
      <point x="-490" y="-209"/>
      <point x="-513" y="-152" type="curve"/>
      <point x="-551" y="-152" type="line"/>
      <point x="-574" y="-209"/>
      <point x="-608" y="-266"/>
      <point x="-684" y="-266" type="curve" smooth="yes"/>
      <point x="-741" y="-266"/>
      <point x="-794" y="-209"/>
      <point x="-817" y="-152" type="curve"/>
      <point x="-855" y="-152" type="line"/>
      <point x="-836" y="-247"/>
      <point x="-779" y="-361"/>
      <point x="-684" y="-361" type="curve" smooth="yes"/>
      <point x="-597" y="-361"/>
      <point x="-554" y="-295"/>
      <point x="-530" y="-222" type="curve"/>
      <point x="-502" y="-295"/>
      <point x="-452" y="-361"/>
      <point x="-380" y="-361" type="curve" smooth="yes"/>
      <point x="-266" y="-361"/>
      <point x="-228" y="-247"/>
      <point x="-209" y="-152" type="curve"/>
    </contour>
  </outline>
</glyph>
<glyph name="uni032C" format="2">
  <unicode hex="032C"/>
  <outline>
    <contour>
      <point x="-441" y="-456" type="line"/>
      <point x="-228" y="-99" type="line"/>
      <point x="-262" y="-99" type="line"/>
      <point x="-543" y="-327" type="line"/>
      <point x="-825" y="-99" type="line"/>
      <point x="-863" y="-99" type="line"/>
      <point x="-646" y="-456" type="line"/>
    </contour>
  </outline>
</glyph>
<glyph name="uni032F" format="2">
  <unicode hex="032F"/>
  <outline>
    <contour>
      <point x="-828" y="-475" type="line"/>
      <point x="-806" y="-418"/>
      <point x="-699" y="-281"/>
      <point x="-547" y="-281" type="curve" smooth="yes"/>
      <point x="-395" y="-281"/>
      <point x="-289" y="-418"/>
      <point x="-266" y="-475" type="curve"/>
      <point x="-228" y="-475" type="line"/>
      <point x="-247" y="-380"/>
      <point x="-338" y="-152"/>
      <point x="-547" y="-152" type="curve" smooth="yes"/>
      <point x="-756" y="-152"/>
      <point x="-844" y="-380"/>
      <point x="-863" y="-475" type="curve"/>
    </contour>
  </outline>
</glyph>
<glyph name="uni0333" format="2">
  <unicode hex="0333"/>
  <outline>
    <contour>
      <point x="-1010" y="-427" type="line"/>
      <point x="-1010" y="-560" type="line"/>
      <point x="0" y="-560" type="line"/>
      <point x="0" y="-427" type="line"/>
    </contour>
    <contour>
      <point x="-1010" y="-150" type="line"/>
      <point x="-1010" y="-283" type="line"/>
      <point x="0" y="-283" type="line"/>
      <point x="0" y="-150" type="line"/>
    </contour>
  </outline>
</glyph>
<glyph name="uni0336" format="2">
  <unicode hex="0336"/>
  <outline>
    <contour>
      <point x="-1100" y="577" type="line"/>
      <point x="-1100" y="444" type="line"/>
      <point x="0" y="444" type="line"/>
      <point x="0" y="577" type="line"/>
    </contour>
  </outline>
</glyph>
<glyph name="uni0339" format="2">
  <unicode hex="0339"/>
  <outline>
    <contour>
      <point x="-627" y="-722" type="line"/>
      <point x="-469" y="-722"/>
      <point x="-342" y="-595"/>
      <point x="-342" y="-437" type="curve" smooth="yes"/>
      <point x="-342" y="-279"/>
      <point x="-469" y="-152"/>
      <point x="-627" y="-152" type="curve"/>
      <point x="-627" y="-266" type="line"/>
      <point x="-532" y="-266"/>
      <point x="-456" y="-342"/>
      <point x="-456" y="-437" type="curve" smooth="yes"/>
      <point x="-456" y="-532"/>
      <point x="-532" y="-608"/>
      <point x="-627" y="-608" type="curve"/>
    </contour>
  </outline>
</glyph>
<glyph name="beta" format="2">
  <advance width="1315"/>
  <unicode hex="03B2"/>
  <outline>
    <contour>
      <point x="127" y="-420" type="line"/>
      <point x="304" y="-420" type="line"/>
      <point x="304" y="997" type="line" smooth="yes"/>
      <point x="304" y="1249"/>
      <point x="457" y="1320"/>
      <point x="589" y="1320" type="curve" smooth="yes"/>
      <point x="697" y="1320"/>
      <point x="795" y="1241"/>
      <point x="795" y="1106" type="curve" smooth="yes"/>
      <point x="795" y="986"/>
      <point x="611" y="926"/>
      <point x="611" y="769" type="curve"/>
      <point x="611" y="514"/>
      <point x="971" y="495"/>
      <point x="971" y="300" type="curve" smooth="yes"/>
      <point x="971" y="206"/>
      <point x="915" y="127"/>
      <point x="810" y="127" type="curve" smooth="yes"/>
      <point x="712" y="127"/>
      <point x="634" y="217"/>
      <point x="611" y="277" type="curve"/>
      <point x="469" y="206" type="line"/>
      <point x="517" y="101"/>
      <point x="630" y="-23"/>
      <point x="810" y="-23" type="curve" smooth="yes"/>
      <point x="1009" y="-23"/>
      <point x="1147" y="131"/>
      <point x="1147" y="300" type="curve"/>
      <point x="1147" y="596"/>
      <point x="787" y="622"/>
      <point x="787" y="769" type="curve" smooth="yes"/>
      <point x="787" y="874"/>
      <point x="971" y="952"/>
      <point x="971" y="1106" type="curve" smooth="yes"/>
      <point x="971" y="1282"/>
      <point x="829" y="1470"/>
      <point x="589" y="1470" type="curve" smooth="yes"/>
      <point x="322" y="1470"/>
      <point x="127" y="1301"/>
      <point x="127" y="997" type="curve"/>
    </contour>
  </outline>
</glyph>
<glyph name="uni1786" format="2">
  <advance width="1600"/>
  <unicode hex="1786"/>
  <anchor x="1462" y="0" name="L"/>
  <anchor x="1462" y="1440" name="U"/>
  <outline>
    <contour>
      <point x="700" y="934" type="line"/>
      <point x="565" y="945"/>
      <point x="397" y="1005"/>
      <point x="397" y="1099" type="curve" smooth="yes"/>
      <point x="397" y="1155"/>
      <point x="464" y="1192"/>
      <point x="539" y="1192" type="curve" smooth="yes"/>
      <point x="674" y="1192"/>
      <point x="798" y="1170"/>
      <point x="888" y="1114" type="curve"/>
      <point x="975" y="1169"/>
      <point x="1034" y="1185"/>
      <point x="1129" y="1185" type="curve" smooth="yes"/>
      <point x="1239" y="1185"/>
      <point x="1308" y="1102"/>
      <point x="1383" y="1102" type="curve" smooth="yes"/>
      <point x="1507" y="1102"/>
      <point x="1593" y="1219"/>
      <point x="1600" y="1402" type="curve"/>
      <point x="1552" y="1354"/>
      <point x="1499" y="1346"/>
      <point x="1450" y="1346" type="curve" smooth="yes"/>
      <point x="1353" y="1346"/>
      <point x="1319" y="1440"/>
      <point x="1143" y="1440" type="curve"/>
      <point x="1004" y="1440"/>
      <point x="937" y="1387"/>
      <point x="888" y="1335" type="curve"/>
      <point x="790" y="1391"/>
      <point x="667" y="1440"/>
      <point x="528" y="1440" type="curve" smooth="yes"/>
      <point x="307" y="1440"/>
      <point x="194" y="1305"/>
      <point x="194" y="1140" type="curve" smooth="yes"/>
      <point x="194" y="1049"/>
      <point x="258" y="950"/>
      <point x="325" y="899" type="curve"/>
      <point x="325" y="457" type="line"/>
      <point x="194" y="431"/>
      <point x="119" y="364"/>
      <point x="119" y="259" type="curve" smooth="yes"/>
      <point x="119" y="180"/>
      <point x="190" y="41"/>
      <point x="400" y="0" type="curve"/>
      <point x="517" y="0"/>
      <point x="663" y="26"/>
      <point x="700" y="112" type="curve"/>
      <point x="700" y="319" type="line"/>
      <point x="813" y="292"/>
      <point x="892" y="0"/>
      <point x="1098" y="0" type="curve" smooth="yes"/>
      <point x="1342" y="0"/>
      <point x="1450" y="124"/>
      <point x="1450" y="229" type="curve" smooth="yes"/>
      <point x="1450" y="862" type="line"/>
      <point x="1413" y="949"/>
      <point x="1267" y="975"/>
      <point x="1150" y="975" type="curve"/>
      <point x="940" y="934"/>
      <point x="869" y="795"/>
      <point x="869" y="716" type="curve" smooth="yes"/>
      <point x="869" y="611"/>
      <point x="944" y="544"/>
      <point x="1075" y="517" type="curve"/>
      <point x="1075" y="232" type="line" smooth="yes"/>
      <point x="1075" y="210"/>
      <point x="1075" y="184"/>
      <point x="1045" y="184" type="curve" smooth="yes"/>
      <point x="959" y="184"/>
      <point x="832" y="431"/>
      <point x="700" y="450" type="curve"/>
    </contour>
    <contour>
      <point x="243" y="277" type="curve" smooth="yes"/>
      <point x="243" y="319"/>
      <point x="295" y="356"/>
      <point x="325" y="356" type="curve"/>
      <point x="325" y="180" type="line"/>
      <point x="292" y="191"/>
      <point x="243" y="221"/>
    </contour>
    <contour>
      <point x="993" y="694" type="curve" smooth="yes"/>
      <point x="993" y="750"/>
      <point x="1042" y="780"/>
      <point x="1075" y="791" type="curve"/>
      <point x="1075" y="615" type="line"/>
      <point x="1045" y="615"/>
      <point x="993" y="652"/>
    </contour>
  </outline>
</glyph>
<glyph name="uni1799" format="2">
  <advance width="2175"/>
  <unicode hex="1799"/>
  <anchor x="2025" y="0" name="L"/>
  <anchor x="2025" y="1440" name="U"/>
  <outline>
    <contour>
      <point x="664" y="1159" type="curve" smooth="yes"/>
      <point x="664" y="1117"/>
      <point x="630" y="1080"/>
      <point x="600" y="1080" type="curve"/>
      <point x="600" y="1275" type="line"/>
      <point x="634" y="1264"/>
      <point x="664" y="1215"/>
    </contour>
    <contour>
      <point x="1350" y="915" type="line"/>
      <point x="1350" y="945"/>
      <point x="1282" y="986"/>
      <point x="1177" y="1039" type="curve"/>
      <point x="1155" y="1050"/>
      <point x="997" y="1106"/>
      <point x="997" y="1144" type="curve"/>
      <point x="997" y="1170"/>
      <point x="1020" y="1181"/>
      <point x="1039" y="1181" type="curve" smooth="yes"/>
      <point x="1072" y="1181"/>
      <point x="1170" y="1087"/>
      <point x="1256" y="1087" type="curve"/>
      <point x="1414" y="1087"/>
      <point x="1492" y="1215"/>
      <point x="1500" y="1402" type="curve"/>
      <point x="1451" y="1354"/>
      <point x="1399" y="1346"/>
      <point x="1350" y="1346" type="curve" smooth="yes"/>
      <point x="1267" y="1346"/>
      <point x="1192" y="1440"/>
      <point x="1065" y="1440" type="curve"/>
      <point x="907" y="1440"/>
      <point x="806" y="1297"/>
      <point x="806" y="1177" type="curve"/>
      <point x="806" y="1121"/>
      <point x="821" y="1076"/>
      <point x="941" y="1009" type="curve"/>
      <point x="964" y="997"/>
      <point x="975" y="971"/>
      <point x="975" y="915" type="curve"/>
      <point x="975" y="202" type="line" smooth="yes"/>
      <point x="975" y="146"/>
      <point x="840" y="131"/>
      <point x="787" y="131" type="curve" smooth="yes"/>
      <point x="735" y="131"/>
      <point x="600" y="146"/>
      <point x="600" y="202" type="curve" smooth="yes"/>
      <point x="600" y="982" type="line"/>
      <point x="716" y="1009"/>
      <point x="784" y="1072"/>
      <point x="784" y="1181" type="curve"/>
      <point x="784" y="1256"/>
      <point x="727" y="1399"/>
      <point x="525" y="1440" type="curve"/>
      <point x="409" y="1440"/>
      <point x="225" y="1429"/>
      <point x="225" y="1335" type="curve"/>
      <point x="225" y="206" type="line" smooth="yes"/>
      <point x="225" y="97"/>
      <point x="555" y="0"/>
      <point x="787" y="0" type="curve" smooth="yes"/>
      <point x="915" y="0"/>
      <point x="1027" y="30"/>
      <point x="1162" y="75" type="curve"/>
      <point x="1290" y="30"/>
      <point x="1376" y="0"/>
      <point x="1500" y="0" type="curve" smooth="yes"/>
      <point x="1732" y="0"/>
      <point x="2025" y="97"/>
      <point x="2025" y="206" type="curve" smooth="yes"/>
      <point x="2025" y="915" type="line"/>
      <point x="2025" y="945"/>
      <point x="1957" y="986"/>
      <point x="1852" y="1039" type="curve"/>
      <point x="1830" y="1050"/>
      <point x="1672" y="1106"/>
      <point x="1672" y="1144" type="curve"/>
      <point x="1672" y="1170"/>
      <point x="1695" y="1181"/>
      <point x="1714" y="1181" type="curve" smooth="yes"/>
      <point x="1747" y="1181"/>
      <point x="1845" y="1087"/>
      <point x="1931" y="1087" type="curve"/>
      <point x="2089" y="1087"/>
      <point x="2167" y="1215"/>
      <point x="2175" y="1402" type="curve"/>
      <point x="2126" y="1354"/>
      <point x="2074" y="1346"/>
      <point x="2025" y="1346" type="curve"/>
      <point x="1942" y="1346"/>
      <point x="1867" y="1440"/>
      <point x="1740" y="1440" type="curve"/>
      <point x="1582" y="1440"/>
      <point x="1481" y="1297"/>
      <point x="1481" y="1177" type="curve"/>
      <point x="1481" y="1121"/>
      <point x="1496" y="1076"/>
      <point x="1616" y="1009" type="curve"/>
      <point x="1639" y="997"/>
      <point x="1650" y="971"/>
      <point x="1650" y="915" type="curve"/>
      <point x="1650" y="202" type="line" smooth="yes"/>
      <point x="1650" y="146"/>
      <point x="1552" y="131"/>
      <point x="1500" y="131" type="curve" smooth="yes"/>
      <point x="1447" y="131"/>
      <point x="1350" y="146"/>
      <point x="1350" y="202" type="curve" smooth="yes"/>
    </contour>
  </outline>
</glyph>
<glyph name="uni179A" format="2">
  <advance width="850"/>
  <unicode hex="179A"/>
  <anchor x="507" y="0" name="L"/>
  <anchor x="712" y="1440" name="U"/>
  <outline>
    <contour>
      <point x="325" y="457" type="line"/>
      <point x="194" y="431"/>
      <point x="119" y="364"/>
      <point x="119" y="259" type="curve" smooth="yes"/>
      <point x="119" y="180"/>
      <point x="190" y="41"/>
      <point x="400" y="0" type="curve"/>
      <point x="517" y="0"/>
      <point x="663" y="19"/>
      <point x="700" y="105" type="curve"/>
      <point x="700" y="915" type="line"/>
      <point x="700" y="945"/>
      <point x="633" y="986"/>
      <point x="528" y="1039" type="curve"/>
      <point x="505" y="1050"/>
      <point x="348" y="1106"/>
      <point x="348" y="1144" type="curve"/>
      <point x="348" y="1170"/>
      <point x="370" y="1181"/>
      <point x="389" y="1181" type="curve" smooth="yes"/>
      <point x="423" y="1181"/>
      <point x="520" y="1087"/>
      <point x="607" y="1087" type="curve"/>
      <point x="764" y="1087"/>
      <point x="843" y="1215"/>
      <point x="850" y="1402" type="curve"/>
      <point x="802" y="1354"/>
      <point x="749" y="1346"/>
      <point x="700" y="1346" type="curve" smooth="yes"/>
      <point x="618" y="1346"/>
      <point x="543" y="1440"/>
      <point x="415" y="1440" type="curve"/>
      <point x="258" y="1440"/>
      <point x="157" y="1297"/>
      <point x="157" y="1177" type="curve"/>
      <point x="157" y="1121"/>
      <point x="172" y="1076"/>
      <point x="292" y="1009" type="curve"/>
      <point x="314" y="997"/>
      <point x="325" y="971"/>
      <point x="325" y="915" type="curve"/>
    </contour>
    <contour>
      <point x="243" y="277" type="curve" smooth="yes"/>
      <point x="243" y="319"/>
      <point x="295" y="356"/>
      <point x="325" y="356" type="curve"/>
      <point x="325" y="180" type="line"/>
      <point x="292" y="191"/>
      <point x="243" y="221"/>
    </contour>
  </outline>
</glyph>
<glyph name="uni17AD" format="2">
  <advance width="1500"/>
  <unicode hex="17AD"/>
  <anchor x="1350" y="-600" name="L"/>
  <anchor x="1350" y="1440" name="U"/>
  <outline>
    <contour>
      <point x="600" y="1147" type="line"/>
      <point x="600" y="1162"/>
      <point x="600" y="1196"/>
      <point x="615" y="1196" type="curve"/>
      <point x="634" y="1196"/>
      <point x="765" y="1084"/>
      <point x="787" y="1084" type="curve" smooth="yes"/>
      <point x="809" y="1084"/>
      <point x="941" y="1196"/>
      <point x="960" y="1196" type="curve"/>
      <point x="975" y="1196"/>
      <point x="975" y="1159"/>
      <point x="975" y="1147" type="curve" smooth="yes"/>
      <point x="975" y="0" type="line"/>
      <point x="1350" y="0" type="line"/>
      <point x="1350" y="1185" type="line"/>
      <point x="1350" y="1282"/>
      <point x="1136" y="1440"/>
      <point x="994" y="1440" type="curve" smooth="yes"/>
      <point x="937" y="1440"/>
      <point x="814" y="1320"/>
      <point x="787" y="1309" type="curve"/>
      <point x="761" y="1320"/>
      <point x="637" y="1440"/>
      <point x="581" y="1440" type="curve" smooth="yes"/>
      <point x="439" y="1440"/>
      <point x="225" y="1282"/>
      <point x="225" y="1185" type="curve" smooth="yes"/>
      <point x="225" y="105" type="line"/>
      <point x="262" y="19"/>
      <point x="409" y="0"/>
      <point x="525" y="0" type="curve"/>
      <point x="735" y="41"/>
      <point x="806" y="180"/>
      <point x="806" y="259" type="curve"/>
      <point x="806" y="364"/>
      <point x="731" y="431"/>
      <point x="600" y="457" type="curve"/>
    </contour>
    <contour>
      <point x="682" y="277" type="curve" smooth="yes"/>
      <point x="682" y="221"/>
      <point x="634" y="191"/>
      <point x="600" y="180" type="curve"/>
      <point x="600" y="356" type="line"/>
      <point x="630" y="356"/>
      <point x="682" y="319"/>
    </contour>
    <contour>
      <point x="922" y="-248" type="curve" smooth="yes"/>
      <point x="922" y="-334"/>
      <point x="994" y="-353"/>
      <point x="1057" y="-360" type="curve"/>
      <point x="1057" y="-394"/>
      <point x="1024" y="-424"/>
      <point x="982" y="-424" type="curve" smooth="yes"/>
      <point x="922" y="-424"/>
      <point x="844" y="-353"/>
      <point x="817" y="-326" type="curve"/>
      <point x="727" y="-225"/>
      <point x="630" y="-161"/>
      <point x="454" y="-161" type="curve" smooth="yes"/>
      <point x="255" y="-161"/>
      <point x="169" y="-375"/>
      <point x="165" y="-443" type="curve"/>
      <point x="214" y="-371"/>
      <point x="349" y="-338"/>
      <point x="401" y="-338" type="curve" smooth="yes"/>
      <point x="502" y="-338"/>
      <point x="555" y="-386"/>
      <point x="620" y="-449" type="curve" smooth="yes"/>
      <point x="746" y="-574"/>
      <point x="832" y="-600"/>
      <point x="994" y="-600" type="curve" smooth="yes"/>
      <point x="1200" y="-600"/>
      <point x="1350" y="-503"/>
      <point x="1350" y="-296" type="curve" smooth="yes"/>
      <point x="1350" y="-191"/>
      <point x="1282" y="-131"/>
      <point x="1117" y="-131" type="curve" smooth="yes"/>
      <point x="1012" y="-131"/>
      <point x="922" y="-180"/>
    </contour>
  </outline>
</glyph>
<glyph name="uni17B1" format="2">
  <advance width="1465"/>
  <unicode hex="17B1"/>
  <anchor x="1312" y="-150" name="L"/>
  <anchor x="1312" y="1762" name="U"/>
  <outline>
    <contour>
      <point x="940" y="322" type="line"/>
      <point x="895" y="251"/>
      <point x="794" y="150"/>
      <point x="700" y="150" type="curve" smooth="yes"/>
      <point x="610" y="150"/>
      <point x="502" y="236"/>
      <point x="502" y="300" type="curve" smooth="yes"/>
      <point x="502" y="311"/>
      <point x="513" y="322"/>
      <point x="524" y="326" type="curve"/>
      <point x="648" y="364"/>
      <point x="1315" y="727"/>
      <point x="1315" y="1065" type="curve" smooth="yes"/>
      <point x="1315" y="1301"/>
      <point x="1128" y="1440"/>
      <point x="723" y="1440" type="curve" smooth="yes"/>
      <point x="679" y="1440"/>
      <point x="633" y="1436"/>
      <point x="587" y="1429" type="curve"/>
      <point x="512" y="1446"/>
      <point x="468" y="1511"/>
      <point x="468" y="1560" type="curve" smooth="yes"/>
      <point x="468" y="1639"/>
      <point x="513" y="1657"/>
      <point x="550" y="1657" type="curve" smooth="yes"/>
      <point x="633" y="1657"/>
      <point x="790" y="1481"/>
      <point x="989" y="1481" type="curve" smooth="yes"/>
      <point x="1180" y="1481"/>
      <point x="1285" y="1605"/>
      <point x="1315" y="1672" type="curve"/>
      <point x="1222" y="1627"/>
      <point x="1162" y="1620"/>
      <point x="1113" y="1620" type="curve" smooth="yes"/>
      <point x="1038" y="1620"/>
      <point x="952" y="1669"/>
      <point x="880" y="1718" type="curve" smooth="yes"/>
      <point x="787" y="1781"/>
      <point x="700" y="1837"/>
      <point x="528" y="1837" type="curve" smooth="yes"/>
      <point x="310" y="1837"/>
      <point x="172" y="1736"/>
      <point x="172" y="1586" type="curve" smooth="yes"/>
      <point x="172" y="1454"/>
      <point x="293" y="1377"/>
      <point x="377" y="1366" type="curve"/>
      <point x="269" y="1314"/>
      <point x="190" y="1233"/>
      <point x="190" y="1121" type="curve" smooth="yes"/>
      <point x="190" y="1009"/>
      <point x="250" y="930"/>
      <point x="344" y="878" type="curve" smooth="yes"/>
      <point x="378" y="859"/>
      <point x="453" y="844"/>
      <point x="520" y="844" type="curve" smooth="yes"/>
      <point x="648" y="844"/>
      <point x="775" y="900"/>
      <point x="775" y="986" type="curve" smooth="yes"/>
      <point x="775" y="1046"/>
      <point x="757" y="1102"/>
      <point x="633" y="1102" type="curve" smooth="yes"/>
      <point x="610" y="1102"/>
      <point x="584" y="1076"/>
      <point x="562" y="1076" type="curve" smooth="yes"/>
      <point x="539" y="1076"/>
      <point x="528" y="1084"/>
      <point x="528" y="1129" type="curve" smooth="yes"/>
      <point x="528" y="1241"/>
      <point x="599" y="1327"/>
      <point x="742" y="1327" type="curve" smooth="yes"/>
      <point x="873" y="1327"/>
      <point x="940" y="1252"/>
      <point x="940" y="1065" type="curve" smooth="yes"/>
      <point x="940" y="776"/>
      <point x="307" y="424"/>
      <point x="190" y="390" type="curve"/>
      <point x="190" y="191"/>
      <point x="408" y="0"/>
      <point x="682" y="0" type="curve" smooth="yes"/>
      <point x="790" y="0"/>
      <point x="880" y="45"/>
      <point x="940" y="112" type="curve"/>
      <point x="940" y="-83" type="line" smooth="yes"/>
      <point x="940" y="-113"/>
      <point x="948" y="-150"/>
      <point x="978" y="-150" type="curve" smooth="yes"/>
      <point x="1353" y="-150" type="line"/>
      <point x="1323" y="-139"/>
      <point x="1315" y="-116"/>
      <point x="1315" y="-86" type="curve" smooth="yes"/>
      <point x="1315" y="487" type="line"/>
      <point x="940" y="487" type="line"/>
    </contour>
  </outline>
</glyph>
<glyph name="uni17B6" format="2">
  <advance width="750"/>
  <unicode hex="17B6"/>
  <anchor x="600" y="0" name="L"/>
  <anchor x="600" y="1440" name="U"/>
  <outline>
    <contour>
      <point x="-296" y="1324" type="curve"/>
      <point x="-241" y="1241" type="line"/>
      <point x="-174" y="1280"/>
      <point x="-79" y="1309"/>
      <point x="19" y="1309" type="curve"/>
      <point x="139" y="1309"/>
      <point x="225" y="1234"/>
      <point x="225" y="1147" type="curve"/>
      <point x="225" y="0" type="line"/>
      <point x="600" y="0" type="line"/>
      <point x="600" y="1166" type="line"/>
      <point x="600" y="1264"/>
      <point x="416" y="1440"/>
      <point x="56" y="1440" type="curve"/>
      <point x="-104" y="1440"/>
      <point x="-226" y="1374"/>
    </contour>
  </outline>
</glyph>
<glyph name="uni17C3" format="2">
  <advance width="825"/>
  <unicode hex="17C3"/>
  <outline>
    <contour>
      <point x="600" y="457" type="curve"/>
      <point x="600" y="915" type="line"/>
      <point x="600" y="945"/>
      <point x="533" y="986"/>
      <point x="428" y="1039" type="curve"/>
      <point x="405" y="1050"/>
      <point x="248" y="1106"/>
      <point x="248" y="1144" type="curve"/>
      <point x="248" y="1170"/>
      <point x="270" y="1181"/>
      <point x="289" y="1181" type="curve" smooth="yes"/>
      <point x="323" y="1181"/>
      <point x="420" y="1087"/>
      <point x="507" y="1087" type="curve"/>
      <point x="664" y="1087"/>
      <point x="743" y="1215"/>
      <point x="750" y="1402" type="curve"/>
      <point x="702" y="1354"/>
      <point x="649" y="1346"/>
      <point x="600" y="1346" type="curve" smooth="yes"/>
      <point x="518" y="1346"/>
      <point x="443" y="1440"/>
      <point x="315" y="1440" type="curve"/>
      <point x="158" y="1440"/>
      <point x="57" y="1297"/>
      <point x="57" y="1177" type="curve"/>
      <point x="57" y="1121"/>
      <point x="72" y="1076"/>
      <point x="192" y="1009" type="curve"/>
      <point x="214" y="997"/>
      <point x="225" y="971"/>
      <point x="225" y="915" type="curve"/>
      <point x="225" y="105" type="line"/>
      <point x="263" y="19"/>
      <point x="409" y="0"/>
      <point x="525" y="0" type="curve"/>
      <point x="728" y="41"/>
      <point x="825" y="184"/>
      <point x="825" y="255" type="curve"/>
      <point x="825" y="360"/>
      <point x="732" y="431"/>
    </contour>
    <contour>
      <point x="702" y="277" type="curve" smooth="yes"/>
      <point x="702" y="221"/>
      <point x="634" y="172"/>
      <point x="600" y="161" type="curve"/>
      <point x="600" y="356" type="line"/>
      <point x="630" y="356"/>
      <point x="702" y="319"/>
    </contour>
    <contour>
      <point x="462" y="1590" type="curve" smooth="yes"/>
      <point x="638" y="1590"/>
      <point x="750" y="1695"/>
      <point x="750" y="1811" type="curve"/>
      <point x="750" y="1924"/>
      <point x="705" y="2070"/>
      <point x="432" y="2097" type="curve" smooth="yes"/>
      <point x="357" y="2104"/>
      <point x="293" y="2156"/>
      <point x="293" y="2197" type="curve" smooth="yes"/>
      <point x="293" y="2314"/>
      <point x="199" y="2355"/>
      <point x="0" y="2366" type="curve"/>
      <point x="49" y="2325"/>
      <point x="75" y="2212"/>
      <point x="75" y="2167" type="curve"/>
      <point x="75" y="2029"/>
      <point x="229" y="1935"/>
      <point x="405" y="1920" type="curve"/>
      <point x="484" y="1909"/>
      <point x="518" y="1871"/>
      <point x="518" y="1830" type="curve"/>
      <point x="518" y="1792"/>
      <point x="492" y="1766"/>
      <point x="450" y="1766" type="curve" smooth="yes"/>
      <point x="405" y="1766"/>
      <point x="381" y="1788"/>
      <point x="368" y="1804" type="curve" smooth="yes"/>
      <point x="349" y="1826"/>
      <point x="312" y="1841"/>
      <point x="267" y="1841" type="curve" smooth="yes"/>
      <point x="180" y="1841"/>
      <point x="139" y="1804"/>
      <point x="139" y="1774" type="curve" smooth="yes"/>
      <point x="139" y="1687"/>
      <point x="255" y="1590"/>
    </contour>
  </outline>
</glyph>
<glyph name="uni17CB" format="2">
  <unicode hex="17CB"/>
  <anchor x="-150" y="1873" name="U"/>
  <anchor x="-150" y="1440" name="_U"/>
  <anchor x="-713" y="1440" name="_UM"/>
  <outline>
    <contour>
      <point x="-877" y="1860" type="curve" smooth="yes"/>
      <point x="-877" y="1788"/>
      <point x="-790" y="1755"/>
      <point x="-760" y="1751" type="curve"/>
      <point x="-742" y="1751"/>
      <point x="-742" y="1732"/>
      <point x="-742" y="1717" type="curve" smooth="yes"/>
      <point x="-742" y="1646"/>
      <point x="-794" y="1620"/>
      <point x="-794" y="1601" type="curve" smooth="yes"/>
      <point x="-794" y="1593"/>
      <point x="-783" y="1590"/>
      <point x="-764" y="1590" type="curve" smooth="yes"/>
      <point x="-663" y="1590"/>
      <point x="-539" y="1695"/>
      <point x="-539" y="1856" type="curve" smooth="yes"/>
      <point x="-539" y="1927"/>
      <point x="-592" y="1983"/>
      <point x="-712" y="1983" type="curve" smooth="yes"/>
      <point x="-832" y="1983"/>
      <point x="-877" y="1931"/>
    </contour>
  </outline>
</glyph>
<glyph name="uni17CF" format="2">
  <unicode hex="17CF"/>
  <anchor x="-150" y="2096" name="U"/>
  <anchor x="-150" y="1440" name="_U"/>
  <anchor x="-713" y="1440" name="_UM"/>
  <outline>
    <contour>
      <point x="-1165" y="1811" type="curve" smooth="yes"/>
      <point x="-1165" y="1676"/>
      <point x="-1012" y="1590"/>
      <point x="-895" y="1590" type="curve"/>
      <point x="-802" y="1590"/>
      <point x="-753" y="1646"/>
      <point x="-712" y="1646" type="curve" smooth="yes"/>
      <point x="-685" y="1646"/>
      <point x="-640" y="1590"/>
      <point x="-539" y="1590" type="curve" smooth="yes"/>
      <point x="-348" y="1590"/>
      <point x="-258" y="1702"/>
      <point x="-258" y="1804" type="curve" smooth="yes"/>
      <point x="-258" y="1845"/>
      <point x="-299" y="1912"/>
      <point x="-404" y="1912" type="curve" smooth="yes"/>
      <point x="-472" y="1912"/>
      <point x="-524" y="1890"/>
      <point x="-524" y="1849" type="curve" smooth="yes"/>
      <point x="-524" y="1837"/>
      <point x="-509" y="1822"/>
      <point x="-509" y="1811" type="curve" smooth="yes"/>
      <point x="-509" y="1781"/>
      <point x="-528" y="1766"/>
      <point x="-569" y="1766" type="curve" smooth="yes"/>
      <point x="-618" y="1766"/>
      <point x="-655" y="1834"/>
      <point x="-712" y="1834" type="curve" smooth="yes"/>
      <point x="-760" y="1834"/>
      <point x="-790" y="1774"/>
      <point x="-854" y="1774" type="curve" smooth="yes"/>
      <point x="-895" y="1774"/>
      <point x="-922" y="1807"/>
      <point x="-922" y="1849" type="curve" smooth="yes"/>
      <point x="-922" y="1912"/>
      <point x="-854" y="1939"/>
      <point x="-813" y="1939" type="curve" smooth="yes"/>
      <point x="-727" y="1939"/>
      <point x="-693" y="1901"/>
      <point x="-629" y="1901" type="curve" smooth="yes"/>
      <point x="-483" y="1901"/>
      <point x="-322" y="1987"/>
      <point x="-322" y="2104" type="curve" smooth="yes"/>
      <point x="-322" y="2156"/>
      <point x="-292" y="2197"/>
      <point x="-265" y="2227" type="curve"/>
      <point x="-284" y="2239"/>
      <point x="-340" y="2246"/>
      <point x="-385" y="2246" type="curve"/>
      <point x="-505" y="2246"/>
      <point x="-565" y="2212"/>
      <point x="-565" y="2156" type="curve" smooth="yes"/>
      <point x="-565" y="2100"/>
      <point x="-588" y="2077"/>
      <point x="-667" y="2077" type="curve" smooth="yes"/>
      <point x="-723" y="2077"/>
      <point x="-764" y="2107"/>
      <point x="-850" y="2107" type="curve" smooth="yes"/>
      <point x="-1012" y="2107"/>
      <point x="-1165" y="1995"/>
    </contour>
  </outline>
</glyph>
<glyph name="uni17DD" format="2">
  <unicode hex="17DD"/>
  <anchor x="-150" y="2100" name="U"/>
  <anchor x="-150" y="1440" name="_U"/>
  <anchor x="-713" y="1440" name="_UM"/>
  <outline>
    <contour>
      <point x="-188" y="1590" type="curve"/>
      <point x="-191" y="1879"/>
      <point x="-386" y="2100"/>
      <point x="-754" y="2100" type="curve" smooth="yes"/>
      <point x="-1031" y="2100"/>
      <point x="-1230" y="1954"/>
      <point x="-1230" y="1797" type="curve" smooth="yes"/>
      <point x="-1230" y="1714"/>
      <point x="-1166" y="1647"/>
      <point x="-1043" y="1647" type="curve"/>
      <point x="-938" y="1647"/>
      <point x="-859" y="1688"/>
      <point x="-859" y="1759" type="curve"/>
      <point x="-859" y="1785"/>
      <point x="-878" y="1815"/>
      <point x="-911" y="1845" type="curve"/>
      <point x="-878" y="1890"/>
      <point x="-810" y="1928"/>
      <point x="-709" y="1928" type="curve"/>
      <point x="-506" y="1928"/>
      <point x="-263" y="1733"/>
    </contour>
  </outline>
</glyph>
<glyph name="uni17E4" format="2">
  <advance width="1500"/>
  <unicode hex="17E4"/>
  <outline>
    <contour>
      <point x="1117" y="371" type="curve" smooth="yes"/>
      <point x="1234" y="371"/>
      <point x="1312" y="412"/>
      <point x="1312" y="521" type="curve"/>
      <point x="1312" y="630"/>
      <point x="1170" y="712"/>
      <point x="1001" y="712" type="curve"/>
      <point x="765" y="712"/>
      <point x="656" y="600"/>
      <point x="656" y="442" type="curve"/>
      <point x="656" y="367"/>
      <point x="716" y="266"/>
      <point x="821" y="169" type="curve"/>
      <point x="769" y="180"/>
      <point x="724" y="180"/>
      <point x="697" y="180" type="curve" smooth="yes"/>
      <point x="671" y="180"/>
      <point x="652" y="176"/>
      <point x="607" y="165" type="curve"/>
      <point x="547" y="221"/>
      <point x="525" y="394"/>
      <point x="525" y="517" type="curve" smooth="yes"/>
      <point x="525" y="720"/>
      <point x="675" y="859"/>
      <point x="807" y="963" type="curve" smooth="yes"/>
      <point x="975" y="1095"/>
      <point x="1200" y="1301"/>
      <point x="1200" y="1462" type="curve" smooth="yes"/>
      <point x="1200" y="1650"/>
      <point x="1095" y="1693"/>
      <point x="1035" y="1721" type="curve" smooth="yes"/>
      <point x="979" y="1747"/>
      <point x="896" y="1759"/>
      <point x="810" y="1759" type="curve" smooth="yes"/>
      <point x="776" y="1759"/>
      <point x="727" y="1744"/>
      <point x="709" y="1729" type="curve"/>
      <point x="795" y="1684"/>
      <point x="825" y="1582"/>
      <point x="825" y="1511" type="curve" smooth="yes"/>
      <point x="825" y="1361"/>
      <point x="682" y="1245"/>
      <point x="545" y="1135" type="curve" smooth="yes"/>
      <point x="321" y="956"/>
      <point x="150" y="732"/>
      <point x="150" y="499" type="curve" smooth="yes"/>
      <point x="150" y="139"/>
      <point x="345" y="0"/>
      <point x="502" y="0" type="curve"/>
      <point x="596" y="0"/>
      <point x="664" y="30"/>
      <point x="742" y="30" type="curve" smooth="yes"/>
      <point x="791" y="30"/>
      <point x="885" y="19"/>
      <point x="941" y="10" type="curve"/>
      <point x="982" y="4"/>
      <point x="1024" y="0"/>
      <point x="1057" y="0" type="curve"/>
      <point x="1189" y="0"/>
      <point x="1222" y="30"/>
      <point x="1222" y="60" type="curve"/>
      <point x="1222" y="94"/>
      <point x="1159" y="172"/>
      <point x="1083" y="243" type="curve" smooth="yes"/>
      <point x="1046" y="277"/>
      <point x="967" y="367"/>
      <point x="956" y="431" type="curve"/>
      <point x="997" y="390"/>
      <point x="1069" y="371"/>
    </contour>
  </outline>
</glyph>
<glyph name="uni17E7" format="2">
  <advance width="2025"/>
  <unicode hex="17E7"/>
  <outline>
    <contour>
      <point x="1425" y="1297" type="line"/>
      <point x="1425" y="210" type="line" smooth="yes"/>
      <point x="1425" y="154"/>
      <point x="1417" y="131"/>
      <point x="1387" y="131" type="curve" smooth="yes"/>
      <point x="1357" y="131"/>
      <point x="1350" y="154"/>
      <point x="1350" y="210" type="curve" smooth="yes"/>
      <point x="1350" y="1185" type="line" smooth="yes"/>
      <point x="1350" y="1282"/>
      <point x="1136" y="1440"/>
      <point x="994" y="1440" type="curve" smooth="yes"/>
      <point x="937" y="1440"/>
      <point x="814" y="1320"/>
      <point x="787" y="1309" type="curve"/>
      <point x="761" y="1320"/>
      <point x="637" y="1440"/>
      <point x="581" y="1440" type="curve" smooth="yes"/>
      <point x="439" y="1440"/>
      <point x="225" y="1282"/>
      <point x="225" y="1185" type="curve" smooth="yes"/>
      <point x="225" y="105" type="line"/>
      <point x="262" y="19"/>
      <point x="409" y="0"/>
      <point x="525" y="0" type="curve"/>
      <point x="735" y="41"/>
      <point x="806" y="180"/>
      <point x="806" y="259" type="curve" smooth="yes"/>
      <point x="806" y="364"/>
      <point x="731" y="431"/>
      <point x="600" y="457" type="curve"/>
      <point x="600" y="1147" type="line" smooth="yes"/>
      <point x="600" y="1162"/>
      <point x="600" y="1196"/>
      <point x="615" y="1196" type="curve" smooth="yes"/>
      <point x="634" y="1196"/>
      <point x="765" y="1084"/>
      <point x="787" y="1084" type="curve" smooth="yes"/>
      <point x="809" y="1084"/>
      <point x="941" y="1196"/>
      <point x="960" y="1196" type="curve" smooth="yes"/>
      <point x="975" y="1196"/>
      <point x="975" y="1159"/>
      <point x="975" y="1147" type="curve" smooth="yes"/>
      <point x="975" y="206" type="line" smooth="yes"/>
      <point x="975" y="97"/>
      <point x="1174" y="0"/>
      <point x="1406" y="0" type="curve" smooth="yes"/>
      <point x="1639" y="0"/>
      <point x="1800" y="97"/>
      <point x="1800" y="206" type="curve" smooth="yes"/>
      <point x="1800" y="1406" type="line"/>
      <point x="1800" y="1641"/>
      <point x="1710" y="1770"/>
      <point x="1438" y="1770" type="curve" smooth="yes"/>
      <point x="1299" y="1770"/>
      <point x="1198" y="1716"/>
      <point x="1125" y="1590" type="curve"/>
      <point x="1176" y="1633"/>
      <point x="1217" y="1646"/>
      <point x="1266" y="1646" type="curve" smooth="yes"/>
      <point x="1359" y="1646"/>
      <point x="1425" y="1590"/>
      <point x="1425" y="1387" type="curve" smooth="yes"/>
    </contour>
    <contour>
      <point x="682" y="277" type="curve" smooth="yes"/>
      <point x="682" y="221"/>
      <point x="634" y="191"/>
      <point x="600" y="180" type="curve"/>
      <point x="600" y="356" type="line"/>
      <point x="630" y="356"/>
      <point x="682" y="319"/>
    </contour>
  </outline>
</glyph>
<glyph name="uni17E8" format="2">
  <advance width="1612"/>
  <unicode hex="17E8"/>
  <outline>
    <contour>
      <point x="225" y="532" type="curve" smooth="yes"/>
      <point x="225" y="172"/>
      <point x="457" y="-4"/>
      <point x="615" y="-4" type="curve"/>
      <point x="727" y="-4"/>
      <point x="829" y="22"/>
      <point x="874" y="56" type="curve"/>
      <point x="922" y="26"/>
      <point x="990" y="0"/>
      <point x="1099" y="0" type="curve"/>
      <point x="1279" y="0"/>
      <point x="1425" y="240"/>
      <point x="1425" y="405" type="curve"/>
      <point x="1425" y="581"/>
      <point x="1309" y="720"/>
      <point x="1076" y="720" type="curve"/>
      <point x="904" y="720"/>
      <point x="802" y="637"/>
      <point x="802" y="529" type="curve"/>
      <point x="802" y="469"/>
      <point x="862" y="371"/>
      <point x="997" y="371" type="curve" smooth="yes"/>
      <point x="1057" y="371"/>
      <point x="1076" y="420"/>
      <point x="1110" y="450" type="curve"/>
      <point x="1110" y="300"/>
      <point x="1069" y="187"/>
      <point x="1031" y="187" type="curve"/>
      <point x="992" y="187"/>
      <point x="911" y="281"/>
      <point x="874" y="281" type="curve" smooth="yes"/>
      <point x="836" y="281"/>
      <point x="751" y="187"/>
      <point x="712" y="187" type="curve"/>
      <point x="656" y="187"/>
      <point x="600" y="409"/>
      <point x="600" y="514" type="curve"/>
      <point x="600" y="836"/>
      <point x="667" y="949"/>
      <point x="739" y="949" type="curve" smooth="yes"/>
      <point x="832" y="949"/>
      <point x="904" y="885"/>
      <point x="1020" y="885" type="curve" smooth="yes"/>
      <point x="1222" y="885"/>
      <point x="1354" y="1054"/>
      <point x="1354" y="1237" type="curve"/>
      <point x="1354" y="1290"/>
      <point x="1279" y="1440"/>
      <point x="1279" y="1507" type="curve"/>
      <point x="1279" y="1590"/>
      <point x="1324" y="1672"/>
      <point x="1399" y="1672" type="curve"/>
      <point x="1357" y="1732"/>
      <point x="1312" y="1770"/>
      <point x="1177" y="1770" type="curve"/>
      <point x="1020" y="1770"/>
      <point x="937" y="1624"/>
      <point x="937" y="1489" type="curve" smooth="yes"/>
      <point x="937" y="1417"/>
      <point x="1016" y="1320"/>
      <point x="1016" y="1241" type="curve" smooth="yes"/>
      <point x="1016" y="1162"/>
      <point x="990" y="1121"/>
      <point x="941" y="1121" type="curve" smooth="yes"/>
      <point x="832" y="1121"/>
      <point x="802" y="1177"/>
      <point x="652" y="1177" type="curve"/>
      <point x="510" y="1177"/>
      <point x="225" y="997"/>
    </contour>
  </outline>
</glyph>
<glyph name="uni17E9" format="2">
  <advance width="1537"/>
  <unicode hex="17E9"/>
  <outline>
    <contour>
      <point x="225" y="480" type="curve" smooth="yes"/>
      <point x="225" y="229"/>
      <point x="472" y="0"/>
      <point x="836" y="0" type="curve"/>
      <point x="1140" y="0"/>
      <point x="1387" y="139"/>
      <point x="1387" y="367" type="curve"/>
      <point x="1387" y="521"/>
      <point x="1249" y="622"/>
      <point x="1027" y="622" type="curve"/>
      <point x="855" y="622"/>
      <point x="727" y="536"/>
      <point x="727" y="427" type="curve"/>
      <point x="727" y="322"/>
      <point x="802" y="274"/>
      <point x="889" y="274" type="curve" smooth="yes"/>
      <point x="937" y="274"/>
      <point x="994" y="304"/>
      <point x="1024" y="352" type="curve"/>
      <point x="1024" y="199"/>
      <point x="911" y="154"/>
      <point x="836" y="154" type="curve"/>
      <point x="682" y="154"/>
      <point x="600" y="307"/>
      <point x="600" y="480" type="curve"/>
      <point x="600" y="649"/>
      <point x="709" y="806"/>
      <point x="817" y="806" type="curve" smooth="yes"/>
      <point x="967" y="806"/>
      <point x="934" y="690"/>
      <point x="1106" y="690" type="curve" smooth="yes"/>
      <point x="1192" y="690"/>
      <point x="1275" y="716"/>
      <point x="1275" y="757" type="curve"/>
      <point x="1275" y="802"/>
      <point x="1147" y="904"/>
      <point x="967" y="941" type="curve"/>
      <point x="915" y="982"/>
      <point x="712" y="1076"/>
      <point x="712" y="1177" type="curve"/>
      <point x="712" y="1219"/>
      <point x="746" y="1256"/>
      <point x="787" y="1256" type="curve" smooth="yes"/>
      <point x="889" y="1256"/>
      <point x="997" y="1072"/>
      <point x="1151" y="1072" type="curve" smooth="yes"/>
      <point x="1252" y="1072"/>
      <point x="1354" y="1144"/>
      <point x="1354" y="1234" type="curve"/>
      <point x="1354" y="1290"/>
      <point x="1294" y="1417"/>
      <point x="1294" y="1489" type="curve"/>
      <point x="1294" y="1571"/>
      <point x="1324" y="1676"/>
      <point x="1399" y="1676" type="curve"/>
      <point x="1350" y="1732"/>
      <point x="1312" y="1770"/>
      <point x="1177" y="1770" type="curve"/>
      <point x="1020" y="1770"/>
      <point x="975" y="1605"/>
      <point x="975" y="1470" type="curve" smooth="yes"/>
      <point x="975" y="1444"/>
      <point x="982" y="1395"/>
      <point x="994" y="1372" type="curve"/>
      <point x="956" y="1399"/>
      <point x="817" y="1440"/>
      <point x="742" y="1440" type="curve"/>
      <point x="517" y="1440"/>
      <point x="375" y="1357"/>
      <point x="375" y="1181" type="curve"/>
      <point x="375" y="1072"/>
      <point x="457" y="982"/>
      <point x="574" y="926" type="curve"/>
      <point x="367" y="859"/>
      <point x="225" y="675"/>
    </contour>
  </outline>
</glyph>
<glyph name="uni17F5" format="2">
  <advance width="1350"/>
  <unicode hex="17F5"/>
  <outline>
    <contour>
      <point x="225" y="757" type="curve" smooth="yes"/>
      <point x="225" y="495"/>
      <point x="435" y="300"/>
      <point x="712" y="300" type="curve" smooth="yes"/>
      <point x="990" y="300"/>
      <point x="1200" y="495"/>
      <point x="1200" y="757" type="curve" smooth="yes"/>
      <point x="1200" y="946"/>
      <point x="1091" y="1100"/>
      <point x="927" y="1172" type="curve"/>
      <point x="1252" y="1571" type="line"/>
      <point x="915" y="1571" type="line"/>
      <point x="712" y="1324" type="line"/>
      <point x="510" y="1571" type="line"/>
      <point x="172" y="1571" type="line"/>
      <point x="498" y="1172" type="line"/>
      <point x="333" y="1100"/>
      <point x="225" y="946"/>
    </contour>
    <contour>
      <point x="600" y="757" type="curve" smooth="yes"/>
      <point x="600" y="964"/>
      <point x="637" y="1102"/>
      <point x="712" y="1102" type="curve" smooth="yes"/>
      <point x="787" y="1102"/>
      <point x="825" y="964"/>
      <point x="825" y="757" type="curve" smooth="yes"/>
      <point x="825" y="551"/>
      <point x="787" y="412"/>
      <point x="712" y="412" type="curve" smooth="yes"/>
      <point x="637" y="412"/>
      <point x="600" y="551"/>
    </contour>
  </outline>
</glyph>
<glyph name="emdash" format="2">
  <advance width="1511"/>
  <unicode hex="2014"/>
  <outline>
    <contour>
      <point x="41" y="637" type="line"/>
      <point x="41" y="484" type="line"/>
      <point x="1470" y="484" type="line"/>
      <point x="1470" y="637" type="line"/>
    </contour>
  </outline>
</glyph>
<glyph name="bullet" format="2">
  <advance width="536"/>
  <unicode hex="2022"/>
  <outline>
    <contour>
      <point x="270" y="386" type="curve" smooth="yes"/>
      <point x="394" y="386"/>
      <point x="495" y="491"/>
      <point x="495" y="615" type="curve"/>
      <point x="495" y="742"/>
      <point x="394" y="844"/>
      <point x="270" y="844" type="curve" smooth="yes"/>
      <point x="142" y="844"/>
      <point x="41" y="742"/>
      <point x="41" y="615" type="curve" smooth="yes"/>
      <point x="41" y="491"/>
      <point x="142" y="386"/>
    </contour>
  </outline>
</glyph>
<glyph name="ellipsis" format="2">
  <advance width="1661"/>
  <unicode hex="2026"/>
  <outline>
    <contour>
      <point x="180" y="217" type="line"/>
      <point x="180" y="0" type="line"/>
      <point x="375" y="0" type="line"/>
      <point x="375" y="217" type="line"/>
    </contour>
    <contour>
      <point x="724" y="217" type="line"/>
      <point x="724" y="0" type="line"/>
      <point x="919" y="0" type="line"/>
      <point x="919" y="217" type="line"/>
    </contour>
    <contour>
      <point x="1267" y="217" type="line"/>
      <point x="1267" y="0" type="line"/>
      <point x="1462" y="0" type="line"/>
      <point x="1462" y="217" type="line"/>
    </contour>
  </outline>
</glyph>
<glyph name="perthousand" format="2">
  <advance width="2167"/>
  <unicode hex="2030"/>
  <outline>
    <contour>
      <point x="356" y="0" type="line"/>
      <point x="1166" y="1387" type="line"/>
      <point x="1031" y="1387" type="line"/>
      <point x="221" y="0" type="line"/>
    </contour>
    <contour>
      <point x="360" y="712" type="curve" smooth="yes"/>
      <point x="547" y="712"/>
      <point x="701" y="866"/>
      <point x="701" y="1057" type="curve" smooth="yes"/>
      <point x="701" y="1252"/>
      <point x="547" y="1406"/>
      <point x="360" y="1406" type="curve" smooth="yes"/>
      <point x="172" y="1406"/>
      <point x="19" y="1252"/>
      <point x="19" y="1057" type="curve" smooth="yes"/>
      <point x="19" y="866"/>
      <point x="172" y="712"/>
    </contour>
    <contour>
      <point x="360" y="847" type="curve" smooth="yes"/>
      <point x="255" y="847"/>
      <point x="169" y="941"/>
      <point x="169" y="1057" type="curve" smooth="yes"/>
      <point x="169" y="1177"/>
      <point x="255" y="1271"/>
      <point x="360" y="1271" type="curve" smooth="yes"/>
      <point x="461" y="1271"/>
      <point x="551" y="1177"/>
      <point x="551" y="1057" type="curve" smooth="yes"/>
      <point x="551" y="941"/>
      <point x="461" y="847"/>
    </contour>
    <contour>
      <point x="1035" y="-19" type="curve" smooth="yes"/>
      <point x="1222" y="-19"/>
      <point x="1376" y="135"/>
      <point x="1376" y="326" type="curve" smooth="yes"/>
      <point x="1376" y="521"/>
      <point x="1222" y="675"/>
      <point x="1035" y="675" type="curve" smooth="yes"/>
      <point x="847" y="675"/>
      <point x="694" y="521"/>
      <point x="694" y="326" type="curve" smooth="yes"/>
      <point x="694" y="135"/>
      <point x="847" y="-19"/>
    </contour>
    <contour>
      <point x="1035" y="116" type="curve" smooth="yes"/>
      <point x="930" y="116"/>
      <point x="844" y="210"/>
      <point x="844" y="326" type="curve" smooth="yes"/>
      <point x="844" y="446"/>
      <point x="930" y="540"/>
      <point x="1035" y="540" type="curve" smooth="yes"/>
      <point x="1140" y="540"/>
      <point x="1230" y="446"/>
      <point x="1230" y="326" type="curve" smooth="yes"/>
      <point x="1230" y="210"/>
      <point x="1140" y="116"/>
    </contour>
    <contour>
      <point x="1807" y="-19" type="curve" smooth="yes"/>
      <point x="1995" y="-19"/>
      <point x="2145" y="135"/>
      <point x="2145" y="326" type="curve" smooth="yes"/>
      <point x="2145" y="521"/>
      <point x="1995" y="675"/>
      <point x="1807" y="675" type="curve" smooth="yes"/>
      <point x="1620" y="675"/>
      <point x="1466" y="521"/>
      <point x="1466" y="326" type="curve" smooth="yes"/>
      <point x="1466" y="135"/>
      <point x="1620" y="-19"/>
    </contour>
    <contour>
      <point x="1807" y="116" type="curve" smooth="yes"/>
      <point x="1702" y="116"/>
      <point x="1612" y="210"/>
      <point x="1612" y="326" type="curve" smooth="yes"/>
      <point x="1612" y="446"/>
      <point x="1702" y="540"/>
      <point x="1807" y="540" type="curve" smooth="yes"/>
      <point x="1909" y="540"/>
      <point x="1999" y="446"/>
      <point x="1999" y="326" type="curve" smooth="yes"/>
      <point x="1999" y="210"/>
      <point x="1909" y="116"/>
    </contour>
  </outline>
</glyph>
<glyph name="trademark" format="2">
  <advance width="1800"/>
  <unicode hex="2122"/>
  <outline>
    <contour>
      <point x="79" y="1447" type="line"/>
      <point x="79" y="1346" type="line"/>
      <point x="367" y="1346" type="line"/>
      <point x="367" y="634" type="line"/>
      <point x="487" y="634" type="line"/>
      <point x="487" y="1346" type="line"/>
      <point x="776" y="1346" type="line"/>
      <point x="776" y="1447" type="line"/>
    </contour>
    <contour>
      <point x="832" y="1447" type="line"/>
      <point x="832" y="634" type="line"/>
      <point x="952" y="634" type="line"/>
      <point x="952" y="1301" type="line"/>
      <point x="956" y="1301" type="line"/>
      <point x="1192" y="634" type="line"/>
      <point x="1297" y="634" type="line"/>
      <point x="1534" y="1301" type="line"/>
      <point x="1537" y="1301" type="line"/>
      <point x="1537" y="634" type="line"/>
      <point x="1661" y="634" type="line"/>
      <point x="1661" y="1447" type="line"/>
      <point x="1485" y="1447" type="line"/>
      <point x="1245" y="757" type="line"/>
      <point x="1241" y="757" type="line"/>
      <point x="1016" y="1447" type="line"/>
    </contour>
  </outline>
</glyph>
<glyph name="Delta" format="2">
  <advance width="1306"/>
  <unicode hex="2206"/>
  <outline>
    <contour>
      <point x="1045" y="161" type="line"/>
      <point x="255" y="161" type="line"/>
      <point x="650" y="1064" type="line"/>
    </contour>
    <contour>
      <point x="1290" y="0" type="line"/>
      <point x="650" y="1469" type="line"/>
      <point x="10" y="0" type="line"/>
    </contour>
  </outline>
  <guideline angle="113.749" x="1115" y="-0"/>
</glyph>
<glyph name="product" format="2">
  <advance width="1580"/>
  <unicode hex="220F"/>
  <outline>
    <contour>
      <point x="280" y="0" type="line"/>
      <point x="480" y="0" type="line"/>
      <point x="480" y="1262" type="line"/>
      <point x="1100" y="1262" type="line"/>
      <point x="1100" y="0" type="line"/>
      <point x="1300" y="0" type="line"/>
      <point x="1300" y="1262" type="line"/>
      <point x="1540" y="1262" type="line"/>
      <point x="1540" y="1442" type="line"/>
      <point x="40" y="1442" type="line"/>
      <point x="40" y="1262" type="line"/>
      <point x="280" y="1262" type="line"/>
    </contour>
  </outline>
</glyph>
<glyph name="uni2309" format="2">
  <unicode hex="2309"/>
  <outline>
    <contour>
      <point x="-520" y="1790" type="line"/>
      <point x="-520" y="1710" type="line"/>
      <point x="0" y="1710" type="line"/>
      <point x="0" y="0" type="line"/>
      <point x="80" y="0" type="line"/>
      <point x="80" y="1790" type="line"/>
    </contour>
  </outline>
</glyph>
<glyph name="KrungSpecial" format="2">
  <advance width="409"/>
  <outline>
    <contour>
      <point x="221" y="1222" type="curve" smooth="yes"/>
      <point x="221" y="1155"/>
      <point x="285" y="1027"/>
      <point x="401" y="911" type="curve"/>
      <point x="416" y="896"/>
      <point x="457" y="862"/>
      <point x="514" y="862" type="curve"/>
      <point x="604" y="862"/>
      <point x="664" y="900"/>
      <point x="667" y="926" type="curve"/>
      <point x="667" y="952"/>
      <point x="634" y="975"/>
      <point x="585" y="1009" type="curve" smooth="yes"/>
      <point x="525" y="1050"/>
      <point x="476" y="1144"/>
      <point x="476" y="1170" type="curve" smooth="yes"/>
      <point x="476" y="1174"/>
      <point x="476" y="1177"/>
      <point x="480" y="1177" type="curve"/>
      <point x="495" y="1176"/>
      <point x="514" y="1170"/>
      <point x="529" y="1170" type="curve" smooth="yes"/>
      <point x="592" y="1170"/>
      <point x="667" y="1215"/>
      <point x="667" y="1309" type="curve" smooth="yes"/>
      <point x="667" y="1391"/>
      <point x="619" y="1436"/>
      <point x="487" y="1436" type="curve" smooth="yes"/>
      <point x="311" y="1436"/>
      <point x="221" y="1376"/>
    </contour>
  </outline>
</glyph>
<glyph name="j.dotless" format="2">
  <advance width="431"/>
  <outline>
    <contour>
      <point x="127" y="1039" type="line"/>
      <point x="127" y="-150" type="line" smooth="yes"/>
      <point x="127" y="-225"/>
      <point x="97" y="-289"/>
      <point x="30" y="-289" type="curve" smooth="yes"/>
      <point x="7" y="-289"/>
      <point x="-19" y="-278"/>
      <point x="-38" y="-274" type="curve"/>
      <point x="-38" y="-420" type="line"/>
      <point x="-15" y="-439"/>
      <point x="26" y="-443"/>
      <point x="56" y="-443" type="curve" smooth="yes"/>
      <point x="195" y="-443"/>
      <point x="304" y="-356"/>
      <point x="304" y="-176" type="curve" smooth="yes"/>
      <point x="304" y="1039" type="line"/>
    </contour>
  </outline>
</glyph>
<glyph name="uni01AF0306" format="2">
  <advance width="1540"/>
  <outline>
    <component base="uni01AF"/>
    <contour>
      <point x="854" y="1800" type="line"/>
      <point x="854" y="1706"/>
      <point x="774" y="1650"/>
      <point x="684" y="1650" type="curve" smooth="yes"/>
      <point x="594" y="1650"/>
      <point x="514" y="1706"/>
      <point x="514" y="1800" type="curve"/>
      <point x="364" y="1800" type="line"/>
      <point x="364" y="1582"/>
      <point x="559" y="1500"/>
      <point x="684" y="1500" type="curve" smooth="yes"/>
      <point x="809" y="1500"/>
      <point x="1004" y="1582"/>
      <point x="1004" y="1800" type="curve"/>
    </contour>
  </outline>
</glyph>
<glyph name="uni178517C5.right" format="2">
  <advance width="2250"/>
  <anchor x="1387" y="0" name="L"/>
  <anchor x="1387" y="1440" name="U"/>
  <outline>
    <contour>
      <point x="600" y="934" type="line"/>
      <point x="405" y="994"/>
      <point x="334" y="1046"/>
      <point x="334" y="1099" type="curve" smooth="yes"/>
      <point x="334" y="1151"/>
      <point x="409" y="1189"/>
      <point x="529" y="1189" type="curve" smooth="yes"/>
      <point x="728" y="1189"/>
      <point x="1005" y="1129"/>
      <point x="1069" y="1065" type="curve"/>
      <point x="1125" y="1125"/>
      <point x="1298" y="1189"/>
      <point x="1482" y="1189" type="curve" smooth="yes"/>
      <point x="1602" y="1189"/>
      <point x="1725" y="1151"/>
      <point x="1725" y="1065" type="curve" smooth="yes"/>
      <point x="1725" y="0" type="line"/>
      <point x="2100" y="0" type="line"/>
      <point x="2100" y="1129" type="line" smooth="yes"/>
      <point x="2100" y="1162"/>
      <point x="2071" y="1210"/>
      <point x="2018" y="1258" type="curve"/>
      <point x="2086" y="1333"/>
      <point x="2138" y="1452"/>
      <point x="2138" y="1590" type="curve" smooth="yes"/>
      <point x="2138" y="1725"/>
      <point x="2055" y="1935"/>
      <point x="1819" y="1935" type="curve" smooth="yes"/>
      <point x="1729" y="1935"/>
      <point x="1650" y="1912"/>
      <point x="1650" y="1826" type="curve" smooth="yes"/>
      <point x="1650" y="1762"/>
      <point x="1699" y="1721"/>
      <point x="1767" y="1702" type="curve" smooth="yes"/>
      <point x="1849" y="1680"/>
      <point x="1905" y="1594"/>
      <point x="1905" y="1507" type="curve" smooth="yes"/>
      <point x="1905" y="1455"/>
      <point x="1885" y="1400"/>
      <point x="1853" y="1364" type="curve"/>
      <point x="1757" y="1408"/>
      <point x="1637" y="1440"/>
      <point x="1500" y="1440" type="curve" smooth="yes"/>
      <point x="1339" y="1440"/>
      <point x="1125" y="1357"/>
      <point x="1054" y="1297" type="curve"/>
      <point x="934" y="1357"/>
      <point x="698" y="1440"/>
      <point x="465" y="1440" type="curve" smooth="yes"/>
      <point x="207" y="1440"/>
      <point x="94" y="1305"/>
      <point x="94" y="1140" type="curve" smooth="yes"/>
      <point x="94" y="1038"/>
      <point x="158" y="961"/>
      <point x="225" y="919" type="curve"/>
      <point x="225" y="206" type="line" smooth="yes"/>
      <point x="225" y="97"/>
      <point x="555" y="0"/>
      <point x="788" y="0" type="curve" smooth="yes"/>
      <point x="1020" y="0"/>
      <point x="1350" y="97"/>
      <point x="1350" y="206" type="curve" smooth="yes"/>
      <point x="1350" y="866" type="line"/>
      <point x="1313" y="952"/>
      <point x="1167" y="971"/>
      <point x="1050" y="971" type="curve"/>
      <point x="840" y="930"/>
      <point x="769" y="791"/>
      <point x="769" y="712" type="curve" smooth="yes"/>
      <point x="769" y="607"/>
      <point x="844" y="540"/>
      <point x="975" y="514" type="curve"/>
      <point x="975" y="210" type="line" smooth="yes"/>
      <point x="975" y="154"/>
      <point x="840" y="131"/>
      <point x="788" y="131" type="curve" smooth="yes"/>
      <point x="735" y="131"/>
      <point x="600" y="154"/>
      <point x="600" y="210" type="curve" smooth="yes"/>
    </contour>
    <contour>
      <point x="975" y="615" type="line"/>
      <point x="945" y="615"/>
      <point x="893" y="652"/>
      <point x="893" y="694" type="curve" smooth="yes"/>
      <point x="893" y="750"/>
      <point x="942" y="780"/>
      <point x="975" y="791" type="curve"/>
    </contour>
  </outline>
</glyph>
<glyph name="uni178A17CF" format="2">
  <advance width="1500"/>
  <outline>
    <contour>
      <point x="225" y="904" type="line"/>
      <point x="225" y="79" type="line"/>
      <point x="225" y="37"/>
      <point x="315" y="0"/>
      <point x="405" y="0" type="curve"/>
      <point x="525" y="0" type="line"/>
      <point x="619" y="0"/>
      <point x="776" y="154"/>
      <point x="787" y="154" type="curve"/>
      <point x="799" y="154"/>
      <point x="956" y="0"/>
      <point x="1050" y="0" type="curve"/>
      <point x="1162" y="0" type="line"/>
      <point x="1252" y="0"/>
      <point x="1350" y="37"/>
      <point x="1350" y="79" type="curve"/>
      <point x="1350" y="904" type="line"/>
      <point x="975" y="904" type="line"/>
      <point x="975" y="266" type="line"/>
      <point x="975" y="251"/>
      <point x="967" y="244"/>
      <point x="956" y="244" type="curve" smooth="yes"/>
      <point x="919" y="244"/>
      <point x="799" y="375"/>
      <point x="787" y="375" type="curve"/>
      <point x="776" y="375"/>
      <point x="652" y="244"/>
      <point x="619" y="244" type="curve" smooth="yes"/>
      <point x="607" y="244"/>
      <point x="600" y="251"/>
      <point x="600" y="266" type="curve"/>
      <point x="600" y="904" type="line"/>
    </contour>
    <contour>
      <point x="225" y="1241" type="curve" smooth="yes"/>
      <point x="225" y="1035"/>
      <point x="487" y="934"/>
      <point x="731" y="934" type="curve"/>
      <point x="1091" y="934"/>
      <point x="1350" y="1076"/>
      <point x="1350" y="1345" type="curve"/>
      <point x="1350" y="1553"/>
      <point x="1137" y="1737"/>
      <point x="935" y="1737" type="curve"/>
      <point x="829" y="1737"/>
      <point x="787" y="1696"/>
      <point x="787" y="1644" type="curve"/>
      <point x="787" y="1576"/>
      <point x="840" y="1538"/>
      <point x="934" y="1499" type="curve" smooth="yes"/>
      <point x="1025" y="1461"/>
      <point x="1069" y="1427"/>
      <point x="1069" y="1326" type="curve" smooth="yes"/>
      <point x="1069" y="1147"/>
      <point x="892" y="1084"/>
      <point x="742" y="1084" type="curve"/>
      <point x="627" y="1084"/>
      <point x="506" y="1125"/>
      <point x="506" y="1195" type="curve" smooth="yes"/>
      <point x="506" y="1235"/>
      <point x="536" y="1256"/>
      <point x="577" y="1256" type="curve" smooth="yes"/>
      <point x="626" y="1256"/>
      <point x="746" y="1267"/>
      <point x="746" y="1384" type="curve"/>
      <point x="746" y="1444"/>
      <point x="660" y="1504"/>
      <point x="536" y="1504" type="curve" smooth="yes"/>
      <point x="349" y="1504"/>
      <point x="225" y="1387"/>
    </contour>
    <contour>
      <point x="335" y="2065" type="curve" smooth="yes"/>
      <point x="335" y="1930"/>
      <point x="488" y="1844"/>
      <point x="605" y="1844" type="curve"/>
      <point x="698" y="1844"/>
      <point x="747" y="1900"/>
      <point x="788" y="1900" type="curve" smooth="yes"/>
      <point x="815" y="1900"/>
      <point x="860" y="1844"/>
      <point x="961" y="1844" type="curve" smooth="yes"/>
      <point x="1152" y="1844"/>
      <point x="1242" y="1956"/>
      <point x="1242" y="2058" type="curve" smooth="yes"/>
      <point x="1242" y="2099"/>
      <point x="1201" y="2166"/>
      <point x="1096" y="2166" type="curve" smooth="yes"/>
      <point x="1028" y="2166"/>
      <point x="976" y="2144"/>
      <point x="976" y="2103" type="curve" smooth="yes"/>
      <point x="976" y="2091"/>
      <point x="991" y="2076"/>
      <point x="991" y="2065" type="curve" smooth="yes"/>
      <point x="991" y="2035"/>
      <point x="972" y="2020"/>
      <point x="931" y="2020" type="curve" smooth="yes"/>
      <point x="882" y="2020"/>
      <point x="845" y="2088"/>
      <point x="788" y="2088" type="curve" smooth="yes"/>
      <point x="740" y="2088"/>
      <point x="710" y="2028"/>
      <point x="646" y="2028" type="curve" smooth="yes"/>
      <point x="605" y="2028"/>
      <point x="578" y="2061"/>
      <point x="578" y="2103" type="curve" smooth="yes"/>
      <point x="578" y="2166"/>
      <point x="646" y="2193"/>
      <point x="687" y="2193" type="curve" smooth="yes"/>
      <point x="773" y="2193"/>
      <point x="807" y="2155"/>
      <point x="871" y="2155" type="curve" smooth="yes"/>
      <point x="1017" y="2155"/>
      <point x="1178" y="2241"/>
      <point x="1178" y="2358" type="curve" smooth="yes"/>
      <point x="1178" y="2410"/>
      <point x="1208" y="2451"/>
      <point x="1235" y="2481" type="curve"/>
      <point x="1216" y="2493"/>
      <point x="1160" y="2500"/>
      <point x="1115" y="2500" type="curve"/>
      <point x="995" y="2500"/>
      <point x="935" y="2466"/>
      <point x="935" y="2410" type="curve" smooth="yes"/>
      <point x="935" y="2354"/>
      <point x="912" y="2331"/>
      <point x="833" y="2331" type="curve" smooth="yes"/>
      <point x="777" y="2331"/>
      <point x="736" y="2361"/>
      <point x="650" y="2361" type="curve" smooth="yes"/>
      <point x="488" y="2361"/>
      <point x="335" y="2249"/>
    </contour>
  </outline>
</glyph>
<glyph name="uni178B17B6" format="2">
  <advance width="2325"/>
  <anchor x="1425" y="0" name="L"/>
  <anchor x="1425" y="1665" name="U"/>
  <outline>
    <contour>
      <point x="1050" y="202" type="line" smooth="yes"/>
      <point x="1050" y="146"/>
      <point x="915" y="131"/>
      <point x="862" y="131" type="curve" smooth="yes"/>
      <point x="810" y="131"/>
      <point x="675" y="146"/>
      <point x="675" y="202" type="curve" smooth="yes"/>
      <point x="675" y="907" type="line" smooth="yes"/>
      <point x="675" y="1001"/>
      <point x="491" y="1012"/>
      <point x="375" y="1012" type="curve"/>
      <point x="172" y="971"/>
      <point x="75" y="829"/>
      <point x="75" y="754" type="curve" smooth="yes"/>
      <point x="75" y="645"/>
      <point x="165" y="581"/>
      <point x="300" y="555" type="curve"/>
      <point x="300" y="206" type="line" smooth="yes"/>
      <point x="300" y="97"/>
      <point x="630" y="0"/>
      <point x="862" y="0" type="curve" smooth="yes"/>
      <point x="1095" y="0"/>
      <point x="1425" y="97"/>
      <point x="1425" y="206" type="curve" smooth="yes"/>
      <point x="1425" y="915" type="line" smooth="yes"/>
      <point x="1425" y="945"/>
      <point x="1357" y="986"/>
      <point x="1252" y="1039" type="curve" smooth="yes"/>
      <point x="1230" y="1050"/>
      <point x="1072" y="1106"/>
      <point x="1072" y="1144" type="curve" smooth="yes"/>
      <point x="1072" y="1170"/>
      <point x="1095" y="1181"/>
      <point x="1114" y="1181" type="curve" smooth="yes"/>
      <point x="1147" y="1181"/>
      <point x="1245" y="1087"/>
      <point x="1331" y="1087" type="curve" smooth="yes"/>
      <point x="1454" y="1087"/>
      <point x="1533" y="1164"/>
      <point x="1562" y="1287" type="curve"/>
      <point x="1585" y="1301"/>
      <point x="1614" y="1309"/>
      <point x="1650" y="1309" type="curve" smooth="yes"/>
      <point x="1732" y="1309"/>
      <point x="1800" y="1234"/>
      <point x="1800" y="1147" type="curve" smooth="yes"/>
      <point x="1800" y="0" type="line"/>
      <point x="2175" y="0" type="line"/>
      <point x="2175" y="1166" type="line" smooth="yes"/>
      <point x="2175" y="1264"/>
      <point x="1935" y="1440"/>
      <point x="1687" y="1440" type="curve" smooth="yes"/>
      <point x="1641" y="1440"/>
      <point x="1604" y="1431"/>
      <point x="1574" y="1418" type="curve"/>
      <point x="1565" y="1620"/>
      <point x="1379" y="1777"/>
      <point x="1192" y="1777" type="curve" smooth="yes"/>
      <point x="1027" y="1777"/>
      <point x="975" y="1729"/>
      <point x="975" y="1665" type="curve" smooth="yes"/>
      <point x="975" y="1594"/>
      <point x="1046" y="1537"/>
      <point x="1140" y="1534" type="curve" smooth="yes"/>
      <point x="1290" y="1530"/>
      <point x="1451" y="1474"/>
      <point x="1451" y="1384" type="curve" smooth="yes"/>
      <point x="1451" y="1354"/>
      <point x="1436" y="1346"/>
      <point x="1425" y="1346" type="curve" smooth="yes"/>
      <point x="1342" y="1346"/>
      <point x="1267" y="1440"/>
      <point x="1140" y="1440" type="curve" smooth="yes"/>
      <point x="982" y="1440"/>
      <point x="881" y="1297"/>
      <point x="881" y="1177" type="curve" smooth="yes"/>
      <point x="881" y="1121"/>
      <point x="896" y="1076"/>
      <point x="1016" y="1009" type="curve"/>
      <point x="1039" y="997"/>
      <point x="1050" y="971"/>
      <point x="1050" y="915" type="curve" smooth="yes"/>
    </contour>
    <contour>
      <point x="195" y="720" type="curve" smooth="yes"/>
      <point x="195" y="776"/>
      <point x="266" y="825"/>
      <point x="300" y="836" type="curve"/>
      <point x="300" y="641" type="line"/>
      <point x="270" y="641"/>
      <point x="195" y="679"/>
    </contour>
  </outline>
</glyph>
<glyph name="uni178D17C5.right" format="2">
  <advance width="3000"/>
  <anchor x="2100" y="0" name="L"/>
  <anchor x="2100" y="1440" name="U"/>
  <outline>
    <contour>
      <point x="1050" y="1147" type="curve"/>
      <point x="1050" y="457" type="line"/>
      <point x="919" y="431"/>
      <point x="844" y="364"/>
      <point x="844" y="259" type="curve" smooth="yes"/>
      <point x="844" y="180"/>
      <point x="915" y="41"/>
      <point x="1125" y="0" type="curve"/>
      <point x="1241" y="0"/>
      <point x="1387" y="0"/>
      <point x="1425" y="67" type="curve"/>
      <point x="1425" y="337" type="line"/>
      <point x="1481" y="322"/>
      <point x="1661" y="0"/>
      <point x="1860" y="0" type="curve" smooth="yes"/>
      <point x="2070" y="0"/>
      <point x="2100" y="146"/>
      <point x="2100" y="202" type="curve" smooth="yes"/>
      <point x="2100" y="915" type="line" smooth="yes"/>
      <point x="2100" y="967"/>
      <point x="1901" y="1024"/>
      <point x="1800" y="1091" type="curve"/>
      <point x="1786" y="1103"/>
      <point x="1780" y="1115"/>
      <point x="1780" y="1125" type="curve" smooth="yes"/>
      <point x="1780" y="1183"/>
      <point x="1969" y="1215"/>
      <point x="2119" y="1215" type="curve" smooth="yes"/>
      <point x="2272" y="1215"/>
      <point x="2475" y="1144"/>
      <point x="2475" y="1069" type="curve" smooth="yes"/>
      <point x="2475" y="0" type="line"/>
      <point x="2850" y="0" type="line"/>
      <point x="2850" y="1129" type="line" smooth="yes"/>
      <point x="2850" y="1162"/>
      <point x="2822" y="1208"/>
      <point x="2766" y="1255" type="curve"/>
      <point x="2835" y="1330"/>
      <point x="2888" y="1451"/>
      <point x="2888" y="1590" type="curve" smooth="yes"/>
      <point x="2888" y="1725"/>
      <point x="2805" y="1935"/>
      <point x="2569" y="1935" type="curve" smooth="yes"/>
      <point x="2479" y="1935"/>
      <point x="2400" y="1912"/>
      <point x="2400" y="1826" type="curve" smooth="yes"/>
      <point x="2400" y="1762"/>
      <point x="2449" y="1721"/>
      <point x="2517" y="1702" type="curve" smooth="yes"/>
      <point x="2599" y="1680"/>
      <point x="2655" y="1594"/>
      <point x="2655" y="1507" type="curve" smooth="yes"/>
      <point x="2655" y="1450"/>
      <point x="2631" y="1390"/>
      <point x="2593" y="1355" type="curve"/>
      <point x="2473" y="1404"/>
      <point x="2309" y="1440"/>
      <point x="2100" y="1440" type="curve"/>
      <point x="1841" y="1432"/>
      <point x="1549" y="1331"/>
      <point x="1549" y="1177" type="curve" smooth="yes"/>
      <point x="1549" y="1121"/>
      <point x="1564" y="1076"/>
      <point x="1684" y="1009" type="curve" smooth="yes"/>
      <point x="1706" y="997"/>
      <point x="1725" y="971"/>
      <point x="1725" y="915" type="curve" smooth="yes"/>
      <point x="1725" y="262" type="line" smooth="yes"/>
      <point x="1725" y="251"/>
      <point x="1721" y="236"/>
      <point x="1710" y="236" type="curve" smooth="yes"/>
      <point x="1672" y="236"/>
      <point x="1504" y="439"/>
      <point x="1425" y="457" type="curve"/>
      <point x="1425" y="1185" type="line" smooth="yes"/>
      <point x="1425" y="1282"/>
      <point x="1211" y="1440"/>
      <point x="1069" y="1440" type="curve" smooth="yes"/>
      <point x="1012" y="1440"/>
      <point x="851" y="1320"/>
      <point x="825" y="1309" type="curve"/>
      <point x="799" y="1320"/>
      <point x="637" y="1440"/>
      <point x="581" y="1440" type="curve" smooth="yes"/>
      <point x="439" y="1440"/>
      <point x="225" y="1282"/>
      <point x="225" y="1185" type="curve" smooth="yes"/>
      <point x="225" y="105" type="line"/>
      <point x="262" y="19"/>
      <point x="409" y="0"/>
      <point x="525" y="0" type="curve"/>
      <point x="735" y="41"/>
      <point x="806" y="180"/>
      <point x="806" y="259" type="curve" smooth="yes"/>
      <point x="806" y="364"/>
      <point x="731" y="431"/>
      <point x="600" y="457" type="curve"/>
      <point x="600" y="1147" type="line" smooth="yes"/>
      <point x="600" y="1162"/>
      <point x="600" y="1196"/>
      <point x="615" y="1196" type="curve" smooth="yes"/>
      <point x="634" y="1196"/>
      <point x="802" y="1084"/>
      <point x="825" y="1084" type="curve" smooth="yes"/>
      <point x="847" y="1084"/>
      <point x="1016" y="1196"/>
      <point x="1035" y="1196" type="curve" smooth="yes"/>
      <point x="1050" y="1196"/>
      <point x="1050" y="1159"/>
    </contour>
    <contour>
      <point x="1050" y="180" type="line"/>
      <point x="1016" y="191"/>
      <point x="967" y="221"/>
      <point x="967" y="277" type="curve" smooth="yes"/>
      <point x="967" y="319"/>
      <point x="1020" y="356"/>
      <point x="1050" y="356" type="curve"/>
    </contour>
    <contour>
      <point x="682" y="277" type="curve" smooth="yes"/>
      <point x="682" y="221"/>
      <point x="634" y="191"/>
      <point x="600" y="180" type="curve"/>
      <point x="600" y="356" type="line"/>
      <point x="630" y="356"/>
      <point x="682" y="319"/>
    </contour>
  </outline>
</glyph>
<glyph name="uni17A017C5.right" format="2">
  <advance width="2287"/>
  <anchor x="1387" y="0" name="L"/>
  <anchor x="1387" y="1440" name="U"/>
  <outline>
    <contour>
      <point x="262" y="206" type="line"/>
      <point x="262" y="97"/>
      <point x="517" y="0"/>
      <point x="750" y="0" type="curve" smooth="yes"/>
      <point x="982" y="0"/>
      <point x="1237" y="97"/>
      <point x="1237" y="206" type="curve" smooth="yes"/>
      <point x="1237" y="1230" type="line" smooth="yes"/>
      <point x="1237" y="1286"/>
      <point x="1297" y="1309"/>
      <point x="1350" y="1309" type="curve" smooth="yes"/>
      <point x="1402" y="1309"/>
      <point x="1462" y="1286"/>
      <point x="1462" y="1230" type="curve" smooth="yes"/>
      <point x="1462" y="0" type="line"/>
      <point x="1837" y="0" type="line"/>
      <point x="1837" y="1234" type="line" smooth="yes"/>
      <point x="1837" y="1342"/>
      <point x="1582" y="1440"/>
      <point x="1350" y="1440" type="curve" smooth="yes"/>
      <point x="1117" y="1440"/>
      <point x="862" y="1342"/>
      <point x="862" y="1234" type="curve" smooth="yes"/>
      <point x="862" y="210" type="line" smooth="yes"/>
      <point x="862" y="154"/>
      <point x="802" y="131"/>
      <point x="750" y="131" type="curve" smooth="yes"/>
      <point x="697" y="131"/>
      <point x="637" y="154"/>
      <point x="637" y="210" type="curve" smooth="yes"/>
      <point x="637" y="915" type="line"/>
      <point x="637" y="945"/>
      <point x="570" y="986"/>
      <point x="465" y="1039" type="curve"/>
      <point x="442" y="1050"/>
      <point x="285" y="1106"/>
      <point x="285" y="1144" type="curve"/>
      <point x="285" y="1170"/>
      <point x="307" y="1181"/>
      <point x="326" y="1181" type="curve" smooth="yes"/>
      <point x="360" y="1181"/>
      <point x="457" y="1087"/>
      <point x="544" y="1087" type="curve"/>
      <point x="701" y="1087"/>
      <point x="780" y="1215"/>
      <point x="787" y="1402" type="curve"/>
      <point x="739" y="1354"/>
      <point x="686" y="1346"/>
      <point x="637" y="1346" type="curve" smooth="yes"/>
      <point x="555" y="1346"/>
      <point x="480" y="1440"/>
      <point x="352" y="1440" type="curve"/>
      <point x="195" y="1440"/>
      <point x="94" y="1297"/>
      <point x="94" y="1177" type="curve"/>
      <point x="94" y="1121"/>
      <point x="109" y="1076"/>
      <point x="229" y="1009" type="curve"/>
      <point x="251" y="997"/>
      <point x="262" y="971"/>
      <point x="262" y="915" type="curve"/>
    </contour>
  </outline>
</glyph>
<glyph name="uni17A217B6" format="2">
  <advance width="2362"/>
  <anchor x="1462" y="0" name="L"/>
  <anchor x="1462" y="1440" name="U"/>
  <outline>
    <contour>
      <point x="1462" y="915" type="line" smooth="yes"/>
      <point x="1462" y="967"/>
      <point x="1264" y="1024"/>
      <point x="1162" y="1091" type="curve"/>
      <point x="1148" y="1103"/>
      <point x="1142" y="1115"/>
      <point x="1142" y="1125" type="curve" smooth="yes"/>
      <point x="1142" y="1183"/>
      <point x="1332" y="1215"/>
      <point x="1481" y="1215" type="curve" smooth="yes"/>
      <point x="1635" y="1215"/>
      <point x="1837" y="1144"/>
      <point x="1837" y="1069" type="curve" smooth="yes"/>
      <point x="1837" y="0" type="line"/>
      <point x="2212" y="0" type="line"/>
      <point x="2212" y="1129" type="line" smooth="yes"/>
      <point x="2212" y="1226"/>
      <point x="1972" y="1440"/>
      <point x="1462" y="1440" type="curve"/>
      <point x="1204" y="1432"/>
      <point x="911" y="1331"/>
      <point x="911" y="1177" type="curve" smooth="yes"/>
      <point x="911" y="1121"/>
      <point x="926" y="1076"/>
      <point x="1046" y="1009" type="curve"/>
      <point x="1069" y="997"/>
      <point x="1087" y="971"/>
      <point x="1087" y="915" type="curve" smooth="yes"/>
      <point x="1087" y="730" type="line"/>
      <point x="712" y="730" type="line"/>
      <point x="712" y="915" type="line" smooth="yes"/>
      <point x="712" y="945"/>
      <point x="645" y="986"/>
      <point x="540" y="1039" type="curve" smooth="yes"/>
      <point x="517" y="1050"/>
      <point x="360" y="1106"/>
      <point x="360" y="1144" type="curve" smooth="yes"/>
      <point x="360" y="1170"/>
      <point x="382" y="1181"/>
      <point x="401" y="1181" type="curve" smooth="yes"/>
      <point x="435" y="1181"/>
      <point x="532" y="1087"/>
      <point x="619" y="1087" type="curve" smooth="yes"/>
      <point x="776" y="1087"/>
      <point x="855" y="1215"/>
      <point x="862" y="1402" type="curve"/>
      <point x="814" y="1354"/>
      <point x="761" y="1346"/>
      <point x="712" y="1346" type="curve" smooth="yes"/>
      <point x="630" y="1346"/>
      <point x="555" y="1440"/>
      <point x="427" y="1440" type="curve" smooth="yes"/>
      <point x="270" y="1440"/>
      <point x="169" y="1297"/>
      <point x="169" y="1177" type="curve" smooth="yes"/>
      <point x="169" y="1121"/>
      <point x="184" y="1076"/>
      <point x="304" y="1009" type="curve" smooth="yes"/>
      <point x="326" y="997"/>
      <point x="337" y="971"/>
      <point x="337" y="915" type="curve" smooth="yes"/>
      <point x="337" y="457" type="line"/>
      <point x="206" y="431"/>
      <point x="131" y="364"/>
      <point x="131" y="259" type="curve" smooth="yes"/>
      <point x="131" y="180"/>
      <point x="202" y="41"/>
      <point x="412" y="0" type="curve"/>
      <point x="529" y="0"/>
      <point x="675" y="0"/>
      <point x="712" y="67" type="curve"/>
      <point x="712" y="562" type="line"/>
      <point x="1087" y="562" type="line"/>
      <point x="1087" y="457" type="line"/>
      <point x="956" y="431"/>
      <point x="881" y="364"/>
      <point x="881" y="259" type="curve" smooth="yes"/>
      <point x="881" y="180"/>
      <point x="952" y="41"/>
      <point x="1162" y="0" type="curve"/>
      <point x="1279" y="0"/>
      <point x="1425" y="0"/>
      <point x="1462" y="67" type="curve"/>
    </contour>
    <contour>
      <point x="1087" y="180" type="line"/>
      <point x="1054" y="191"/>
      <point x="1005" y="221"/>
      <point x="1005" y="277" type="curve" smooth="yes"/>
      <point x="1005" y="319"/>
      <point x="1057" y="356"/>
      <point x="1087" y="356" type="curve"/>
    </contour>
    <contour>
      <point x="337" y="180" type="line"/>
      <point x="304" y="191"/>
      <point x="255" y="221"/>
      <point x="255" y="277" type="curve" smooth="yes"/>
      <point x="255" y="319"/>
      <point x="307" y="356"/>
      <point x="337" y="356" type="curve"/>
    </contour>
  </outline>
</glyph>
<glyph name="uni17B7.narrow" format="2">
  <anchor x="-150" y="1946" name="U"/>
  <anchor x="-150" y="1440" name="_U"/>
  <outline>
    <contour>
      <point x="-435" y="1676" type="curve" smooth="yes"/>
      <point x="-311" y="1676"/>
      <point x="-221" y="1590"/>
      <point x="-94" y="1590" type="curve"/>
      <point x="-34" y="1590"/>
      <point x="0" y="1631"/>
      <point x="0" y="1676" type="curve" smooth="yes"/>
      <point x="0" y="1699"/>
      <point x="-4" y="1714"/>
      <point x="-15" y="1740" type="curve" smooth="yes"/>
      <point x="-60" y="1845"/>
      <point x="-195" y="2096"/>
      <point x="-443" y="2096" type="curve"/>
      <point x="-615" y="2096"/>
      <point x="-769" y="1999"/>
      <point x="-769" y="1837" type="curve"/>
      <point x="-769" y="1725"/>
      <point x="-683" y="1665"/>
      <point x="-574" y="1665" type="curve"/>
      <point x="-525" y="1665"/>
      <point x="-495" y="1676"/>
    </contour>
    <contour>
      <point x="-465" y="1845" type="curve" smooth="yes"/>
      <point x="-484" y="1845"/>
      <point x="-506" y="1856"/>
      <point x="-506" y="1879" type="curve" smooth="yes"/>
      <point x="-506" y="1905"/>
      <point x="-480" y="1927"/>
      <point x="-443" y="1927" type="curve" smooth="yes"/>
      <point x="-364" y="1927"/>
      <point x="-300" y="1871"/>
      <point x="-263" y="1811" type="curve"/>
      <point x="-300" y="1830"/>
      <point x="-364" y="1849"/>
      <point x="-416" y="1849" type="curve" smooth="yes"/>
      <point x="-431" y="1849"/>
      <point x="-454" y="1845"/>
    </contour>
  </outline>
</glyph>
